<?xml version="1.0" encoding="utf-8" standalone="no"?>
<!DOCTYPE svg PUBLIC "-//W3C//DTD SVG 1.1//EN"
  "http://www.w3.org/Graphics/SVG/1.1/DTD/svg11.dtd">
<svg xmlns:xlink="http://www.w3.org/1999/xlink" width="397.643234pt" height="219.868344pt" viewBox="0 0 397.643234 219.868344" xmlns="http://www.w3.org/2000/svg" version="1.1">
 <metadata>
  <rdf:RDF xmlns:dc="http://purl.org/dc/elements/1.1/" xmlns:cc="http://creativecommons.org/ns#" xmlns:rdf="http://www.w3.org/1999/02/22-rdf-syntax-ns#">
   <cc:Work>
    <dc:type rdf:resource="http://purl.org/dc/dcmitype/StillImage"/>
    <dc:format>image/svg+xml</dc:format>
    <dc:creator>
     <cc:Agent>
      <dc:title>Matplotlib v3.10.9, https://matplotlib.org/</dc:title>
     </cc:Agent>
    </dc:creator>
   </cc:Work>
  </rdf:RDF>
 </metadata>
 <defs>
  <style type="text/css">*{stroke-linejoin: round; stroke-linecap: butt}</style>
 </defs>
 <g id="figure_1">
  <g id="patch_1">
   <path d="M 0 219.868344 
L 397.643234 219.868344 
L 397.643234 0 
L 0 0 
z
" style="fill: #ffffff"/>
  </g>
  <g id="axes_1">
   <g id="patch_2">
    <path d="M 33.640344 198.196 
L 368.440344 198.196 
L 368.440344 9.7 
L 33.640344 9.7 
z
" style="fill: #ffffff"/>
   </g>
   <g id="FillBetweenPolyCollection_1">
    <defs>
     <path id="md624a9fc59" d="M 128.758742 -21.672344 
L 128.758742 -45.005935 
L 129.177766 -44.708686 
L 129.596789 -44.415004 
L 130.015813 -44.124852 
L 130.434837 -43.838193 
L 130.853861 -43.554988 
L 131.272884 -43.275201 
L 131.691908 -42.998795 
L 132.110932 -42.725733 
L 132.529956 -42.45598 
L 132.94898 -42.189498 
L 133.368003 -41.926253 
L 133.787027 -41.666209 
L 134.206051 -41.409331 
L 134.625075 -41.155585 
L 135.044098 -40.904934 
L 135.463122 -40.657347 
L 135.882146 -40.412788 
L 136.30117 -40.171224 
L 136.720194 -39.932621 
L 137.139217 -39.696948 
L 137.558241 -39.46417 
L 137.977265 -39.234255 
L 138.396289 -39.007172 
L 138.815312 -38.782888 
L 139.234336 -38.561372 
L 139.65336 -38.342593 
L 140.072384 -38.126519 
L 140.491408 -37.91312 
L 140.910431 -37.702365 
L 141.329455 -37.494225 
L 141.748479 -37.288669 
L 142.167503 -37.085667 
L 142.586526 -36.885191 
L 143.00555 -36.687212 
L 143.424574 -36.4917 
L 143.843598 -36.298628 
L 144.262622 -36.107966 
L 144.681645 -35.919688 
L 145.100669 -35.733765 
L 145.519693 -35.550171 
L 145.938717 -35.368877 
L 146.35774 -35.189858 
L 146.776764 -35.013087 
L 147.195788 -34.838536 
L 147.614812 -34.666182 
L 148.033836 -34.495996 
L 148.452859 -34.327955 
L 148.871883 -34.162033 
L 149.290907 -33.998204 
L 149.709931 -33.836445 
L 150.128955 -33.67673 
L 150.547978 -33.519036 
L 150.967002 -33.363338 
L 151.386026 -33.209613 
L 151.80505 -33.057837 
L 152.224073 -32.907987 
L 152.643097 -32.76004 
L 153.062121 -32.613973 
L 153.481145 -32.469764 
L 153.900169 -32.327391 
L 154.319192 -32.186831 
L 154.738216 -32.048063 
L 155.15724 -31.911065 
L 155.576264 -31.775816 
L 155.995287 -31.642294 
L 156.414311 -31.51048 
L 156.833335 -31.380351 
L 157.252359 -31.251889 
L 157.671383 -31.125072 
L 158.090406 -30.99988 
L 158.50943 -30.876295 
L 158.928454 -30.754295 
L 159.347478 -30.633863 
L 159.766501 -30.514979 
L 160.185525 -30.397623 
L 160.604549 -30.281778 
L 161.023573 -30.167425 
L 161.442597 -30.054545 
L 161.86162 -29.943121 
L 162.280644 -29.833134 
L 162.699668 -29.724567 
L 163.118692 -29.617403 
L 163.537715 -29.511624 
L 163.956739 -29.407212 
L 164.375763 -29.304152 
L 164.794787 -29.202427 
L 165.213811 -29.102019 
L 165.632834 -29.002914 
L 166.051858 -28.905093 
L 166.470882 -28.808543 
L 166.889906 -28.713246 
L 167.308929 -28.619187 
L 167.727953 -28.526352 
L 168.146977 -28.434724 
L 168.566001 -28.344288 
L 168.985025 -28.25503 
L 169.404048 -28.166935 
L 169.823072 -28.079989 
L 170.242096 -27.994176 
L 170.66112 -27.909484 
L 171.080143 -27.825897 
L 171.499167 -27.743402 
L 171.918191 -27.661986 
L 172.337215 -27.581634 
L 172.756239 -27.502334 
L 173.175262 -27.424071 
L 173.594286 -27.346834 
L 174.01331 -27.270609 
L 174.432334 -27.195383 
L 174.851358 -27.121144 
L 175.270381 -27.047879 
L 175.689405 -26.975576 
L 176.108429 -26.904222 
L 176.527453 -26.833807 
L 176.946476 -26.764317 
L 177.3655 -26.695741 
L 177.784524 -26.628068 
L 178.203548 -26.561286 
L 178.622572 -26.495383 
L 179.041595 -26.430349 
L 179.460619 -26.366173 
L 179.879643 -26.302843 
L 180.298667 -26.240348 
L 180.71769 -26.178679 
L 181.136714 -26.117824 
L 181.555738 -26.057773 
L 181.974762 -25.998516 
L 182.393786 -25.940043 
L 182.812809 -25.882344 
L 183.231833 -25.825408 
L 183.650857 -25.769226 
L 184.069881 -25.713788 
L 184.488904 -25.659085 
L 184.907928 -25.605107 
L 185.326952 -25.551845 
L 185.745976 -25.49929 
L 186.165 -25.447433 
L 186.584023 -25.396264 
L 187.003047 -25.345775 
L 187.422071 -25.295957 
L 187.841095 -25.246801 
L 188.260118 -25.198299 
L 188.679142 -25.150443 
L 189.098166 -25.103223 
L 189.51719 -25.056633 
L 189.936214 -25.010662 
L 190.355237 -24.965305 
L 190.774261 -24.920552 
L 191.193285 -24.876396 
L 191.612309 -24.832829 
L 192.031332 -24.789843 
L 192.450356 -24.747432 
L 192.86938 -24.705587 
L 193.288404 -24.6643 
L 193.707428 -24.623566 
L 194.126451 -24.583376 
L 194.545475 -24.543724 
L 194.964499 -24.504602 
L 195.383523 -24.466004 
L 195.802547 -24.427923 
L 196.22157 -24.390351 
L 196.640594 -24.353283 
L 197.059618 -24.316712 
L 197.478642 -24.280631 
L 197.897665 -24.245034 
L 198.316689 -24.209915 
L 198.735713 -24.175267 
L 199.154737 -24.141084 
L 199.573761 -24.10736 
L 199.992784 -24.074089 
L 200.411808 -24.041265 
L 200.830832 -24.008883 
L 201.249856 -23.976935 
L 201.668879 -23.945418 
L 202.087903 -23.914324 
L 202.506927 -23.883649 
L 202.925951 -23.853387 
L 203.344975 -23.823533 
L 203.763998 -23.794081 
L 204.183022 -23.765026 
L 204.602046 -23.736362 
L 205.02107 -23.708085 
L 205.440093 -23.680189 
L 205.859117 -23.652669 
L 206.278141 -23.625521 
L 206.697165 -23.59874 
L 207.116189 -23.57232 
L 207.535212 -23.546257 
L 207.954236 -23.520546 
L 208.37326 -23.495183 
L 208.792284 -23.470162 
L 209.211307 -23.44548 
L 209.630331 -23.421132 
L 210.049355 -23.397113 
L 210.468379 -23.373419 
L 210.887403 -23.350047 
L 211.306426 -23.32699 
L 211.72545 -23.304246 
L 212.144474 -23.28181 
L 212.563498 -23.259678 
L 212.982521 -23.237847 
L 213.401545 -23.216311 
L 213.820569 -23.195067 
L 214.239593 -23.174112 
L 214.658617 -23.153441 
L 215.07764 -23.133051 
L 215.496664 -23.112937 
L 215.915688 -23.093097 
L 216.334712 -23.073526 
L 216.753735 -23.054221 
L 217.172759 -23.035179 
L 217.591783 -23.016395 
L 218.010807 -22.997867 
L 218.429831 -22.979591 
L 218.848854 -22.961564 
L 219.267878 -22.943782 
L 219.686902 -22.926242 
L 220.105926 -22.908941 
L 220.52495 -22.891876 
L 220.943973 -22.875043 
L 221.362997 -22.858439 
L 221.782021 -22.842062 
L 222.201045 -22.825908 
L 222.620068 -22.809974 
L 223.039092 -22.794258 
L 223.458116 -22.778756 
L 223.87714 -22.763465 
L 224.296164 -22.748383 
L 224.715187 -22.733508 
L 225.134211 -22.718835 
L 225.553235 -22.704363 
L 225.972259 -22.690088 
L 226.391282 -22.676008 
L 226.810306 -22.662121 
L 227.22933 -22.648424 
L 227.648354 -22.634914 
L 228.067378 -22.621589 
L 228.486401 -22.608446 
L 228.905425 -22.595483 
L 229.324449 -22.582698 
L 229.743473 -22.570087 
L 230.162496 -22.557649 
L 230.58152 -22.545381 
L 231.000544 -22.533282 
L 231.419568 -22.521348 
L 231.838592 -22.509578 
L 232.257615 -22.497969 
L 232.676639 -22.486519 
L 233.095663 -22.475226 
L 233.514687 -22.464089 
L 233.93371 -22.453104 
L 234.352734 -22.442269 
L 234.771758 -22.431584 
L 235.190782 -22.421045 
L 235.609806 -22.41065 
L 236.028829 -22.400399 
L 236.447853 -22.390288 
L 236.866877 -22.380316 
L 237.285901 -22.370481 
L 237.704924 -22.360782 
L 238.123948 -22.351215 
L 238.542972 -22.341781 
L 238.961996 -22.332476 
L 239.38102 -22.323299 
L 239.800043 -22.314248 
L 240.219067 -22.305321 
L 240.638091 -22.296518 
L 241.057115 -22.287836 
L 241.476138 -22.279273 
L 241.895162 -22.270828 
L 242.314186 -22.2625 
L 242.73321 -22.254286 
L 243.152234 -22.246185 
L 243.571257 -22.238196 
L 243.990281 -22.230317 
L 244.409305 -22.222547 
L 244.828329 -22.214884 
L 245.247353 -22.207326 
L 245.666376 -22.199873 
L 246.0854 -22.192523 
L 246.504424 -22.185274 
L 246.923448 -22.178125 
L 247.342471 -22.171075 
L 247.761495 -22.164122 
L 248.180519 -22.157265 
L 248.599543 -22.150503 
L 249.018567 -22.143834 
L 249.43759 -22.137257 
L 249.856614 -22.130771 
L 250.275638 -22.124375 
L 250.694662 -22.118067 
L 251.113685 -22.111847 
L 251.532709 -22.105712 
L 251.951733 -22.099662 
L 252.370757 -22.093696 
L 252.789781 -22.087813 
L 253.208804 -22.082011 
L 253.627828 -22.076289 
L 254.046852 -22.070646 
L 254.465876 -22.065082 
L 254.884899 -22.059594 
L 255.303923 -22.054183 
L 255.722947 -22.048846 
L 256.141971 -22.043584 
L 256.560995 -22.038394 
L 256.980018 -22.033276 
L 257.399042 -22.028229 
L 257.818066 -22.023252 
L 258.23709 -22.018344 
L 258.656113 -22.013504 
L 259.075137 -22.008732 
L 259.494161 -22.004025 
L 259.913185 -21.999384 
L 260.332209 -21.994807 
L 260.751232 -21.990294 
L 261.170256 -21.985843 
L 261.58928 -21.981454 
L 262.008304 -21.977126 
L 262.427327 -21.972858 
L 262.846351 -21.968649 
L 263.265375 -21.964499 
L 263.684399 -21.960407 
L 264.103423 -21.956371 
L 264.522446 -21.952391 
L 264.94147 -21.948467 
L 265.360494 -21.944597 
L 265.779518 -21.940781 
L 266.198541 -21.937018 
L 266.617565 -21.933308 
L 267.036589 -21.929649 
L 267.455613 -21.926041 
L 267.874637 -21.922483 
L 268.29366 -21.918974 
L 268.712684 -21.915515 
L 269.131708 -21.912103 
L 269.550732 -21.908739 
L 269.969756 -21.905422 
L 270.388779 -21.902151 
L 270.807803 -21.898926 
L 271.226827 -21.895745 
L 271.645851 -21.892609 
L 272.064874 -21.889517 
L 272.483898 -21.886467 
L 272.902922 -21.88346 
L 273.321946 -21.880495 
L 273.74097 -21.877572 
L 274.159993 -21.874689 
L 274.579017 -21.871846 
L 274.998041 -21.869043 
L 275.417065 -21.866279 
L 275.836088 -21.863554 
L 276.255112 -21.860866 
L 276.674136 -21.858216 
L 277.09316 -21.855603 
L 277.512184 -21.853027 
L 277.931207 -21.850486 
L 278.350231 -21.847981 
L 278.769255 -21.845511 
L 279.188279 -21.843076 
L 279.607302 -21.840674 
L 280.026326 -21.838306 
L 280.44535 -21.835971 
L 280.864374 -21.833669 
L 281.283398 -21.831399 
L 281.702421 -21.82916 
L 282.121445 -21.826953 
L 282.540469 -21.824777 
L 282.959493 -21.822631 
L 283.378516 -21.820515 
L 283.79754 -21.818428 
L 284.216564 -21.816371 
L 284.635588 -21.814343 
L 285.054612 -21.812343 
L 285.473635 -21.810371 
L 285.892659 -21.808426 
L 286.311683 -21.806509 
L 286.730707 -21.804619 
L 287.14973 -21.802755 
L 287.568754 -21.800917 
L 287.987778 -21.799105 
L 288.406802 -21.797318 
L 288.825826 -21.795556 
L 289.244849 -21.793819 
L 289.663873 -21.792107 
L 290.082897 -21.790418 
L 290.501921 -21.788753 
L 290.920945 -21.787111 
L 291.339968 -21.785492 
L 291.758992 -21.783896 
L 292.178016 -21.782322 
L 292.59704 -21.780771 
L 293.016063 -21.779241 
L 293.435087 -21.777733 
L 293.854111 -21.776245 
L 294.273135 -21.774779 
L 294.692159 -21.773333 
L 295.111182 -21.771907 
L 295.530206 -21.770502 
L 295.94923 -21.769116 
L 296.368254 -21.767749 
L 296.787277 -21.766402 
L 297.206301 -21.765074 
L 297.625325 -21.763764 
L 298.044349 -21.762473 
L 298.463373 -21.7612 
L 298.882396 -21.759944 
L 299.30142 -21.758707 
L 299.720444 -21.757486 
L 300.139468 -21.756283 
L 300.558491 -21.755097 
L 300.977515 -21.753927 
L 301.396539 -21.752774 
L 301.815563 -21.751637 
L 302.234587 -21.750516 
L 302.65361 -21.749411 
L 303.072634 -21.748321 
L 303.491658 -21.747247 
L 303.910682 -21.746188 
L 304.329705 -21.745143 
L 304.748729 -21.744113 
L 305.167753 -21.743098 
L 305.586777 -21.742097 
L 306.005801 -21.74111 
L 306.424824 -21.740137 
L 306.843848 -21.739178 
L 307.262872 -21.738232 
L 307.681896 -21.7373 
L 308.100919 -21.73638 
L 308.519943 -21.735474 
L 308.938967 -21.73458 
L 309.357991 -21.733699 
L 309.777015 -21.732831 
L 310.196038 -21.731974 
L 310.615062 -21.73113 
L 311.034086 -21.730297 
L 311.45311 -21.729476 
L 311.872133 -21.728667 
L 312.291157 -21.727869 
L 312.710181 -21.727083 
L 313.129205 -21.726307 
L 313.548229 -21.725543 
L 313.967252 -21.724789 
L 314.386276 -21.724046 
L 314.8053 -21.723313 
L 315.224324 -21.722591 
L 315.643348 -21.721878 
L 316.062371 -21.721176 
L 316.481395 -21.720484 
L 316.900419 -21.719802 
L 317.319443 -21.719129 
L 317.738466 -21.718465 
L 318.15749 -21.717811 
L 318.576514 -21.717167 
L 318.995538 -21.716531 
L 319.414562 -21.715904 
L 319.833585 -21.715286 
L 320.252609 -21.714677 
L 320.671633 -21.714076 
L 321.090657 -21.713484 
L 321.50968 -21.712901 
L 321.928704 -21.712325 
L 322.347728 -21.711758 
L 322.766752 -21.711198 
L 323.185776 -21.710647 
L 323.604799 -21.710103 
L 324.023823 -21.709567 
L 324.442847 -21.709039 
L 324.861871 -21.708518 
L 325.280894 -21.708004 
L 325.699918 -21.707498 
L 326.118942 -21.706999 
L 326.537966 -21.706507 
L 326.95699 -21.706021 
L 327.376013 -21.705543 
L 327.795037 -21.705072 
L 328.214061 -21.704607 
L 328.633085 -21.704148 
L 329.052108 -21.703696 
L 329.471132 -21.703251 
L 329.890156 -21.702812 
L 330.30918 -21.702379 
L 330.728204 -21.701952 
L 331.147227 -21.701531 
L 331.566251 -21.701116 
L 331.985275 -21.700707 
L 332.404299 -21.700304 
L 332.823322 -21.699907 
L 333.242346 -21.699515 
L 333.66137 -21.699129 
L 334.080394 -21.698748 
L 334.499418 -21.698372 
L 334.918441 -21.698002 
L 335.337465 -21.697637 
L 335.756489 -21.697277 
L 336.175513 -21.696923 
L 336.594536 -21.696573 
L 337.01356 -21.696228 
L 337.432584 -21.695889 
L 337.851608 -21.695554 
L 338.270632 -21.695223 
L 338.689655 -21.694898 
L 339.108679 -21.694577 
L 339.527703 -21.694261 
L 339.946727 -21.693949 
L 340.365751 -21.693641 
L 340.784774 -21.693338 
L 341.203798 -21.693039 
L 341.622822 -21.692745 
L 342.041846 -21.692454 
L 342.460869 -21.692168 
L 342.879893 -21.691885 
L 343.298917 -21.691607 
L 343.717941 -21.691333 
L 344.136965 -21.691062 
L 344.555988 -21.690796 
L 344.975012 -21.690533 
L 345.394036 -21.690274 
L 345.81306 -21.690019 
L 346.232083 -21.689767 
L 346.651107 -21.689519 
L 347.070131 -21.689274 
L 347.489155 -21.689033 
L 347.908179 -21.688795 
L 348.327202 -21.68856 
L 348.746226 -21.688329 
L 349.16525 -21.688101 
L 349.584274 -21.687877 
L 350.003297 -21.687656 
L 350.422321 -21.687437 
L 350.841345 -21.687222 
L 351.260369 -21.68701 
L 351.679393 -21.686801 
L 352.098416 -21.686595 
L 352.51744 -21.686392 
L 352.936464 -21.686191 
L 353.355488 -21.685994 
L 353.774511 -21.685799 
L 354.193535 -21.685607 
L 354.612559 -21.685418 
L 355.031583 -21.685232 
L 355.450607 -21.685048 
L 355.86963 -21.684866 
L 356.288654 -21.684688 
L 356.707678 -21.684512 
L 357.126702 -21.684338 
L 357.545725 -21.684167 
L 357.964749 -21.683998 
L 358.383773 -21.683832 
L 358.802797 -21.683668 
L 359.221821 -21.683506 
L 359.640844 -21.683347 
L 360.059868 -21.68319 
L 360.478892 -21.683035 
L 360.897916 -21.682883 
L 361.316939 -21.682732 
L 361.735963 -21.682584 
L 362.154987 -21.682438 
L 362.574011 -21.682293 
L 362.993035 -21.682151 
L 363.412058 -21.682011 
L 363.831082 -21.681873 
L 364.250106 -21.681737 
L 364.66913 -21.681603 
L 365.088154 -21.681471 
L 365.507177 -21.68134 
L 365.926201 -21.681212 
L 366.345225 -21.681085 
L 366.764249 -21.68096 
L 367.183272 -21.680837 
L 367.602296 -21.680716 
L 368.02132 -21.680596 
L 368.440344 -21.680478 
L 368.440344 -21.672344 
L 368.440344 -21.672344 
L 368.02132 -21.672344 
L 367.602296 -21.672344 
L 367.183272 -21.672344 
L 366.764249 -21.672344 
L 366.345225 -21.672344 
L 365.926201 -21.672344 
L 365.507177 -21.672344 
L 365.088154 -21.672344 
L 364.66913 -21.672344 
L 364.250106 -21.672344 
L 363.831082 -21.672344 
L 363.412058 -21.672344 
L 362.993035 -21.672344 
L 362.574011 -21.672344 
L 362.154987 -21.672344 
L 361.735963 -21.672344 
L 361.316939 -21.672344 
L 360.897916 -21.672344 
L 360.478892 -21.672344 
L 360.059868 -21.672344 
L 359.640844 -21.672344 
L 359.221821 -21.672344 
L 358.802797 -21.672344 
L 358.383773 -21.672344 
L 357.964749 -21.672344 
L 357.545725 -21.672344 
L 357.126702 -21.672344 
L 356.707678 -21.672344 
L 356.288654 -21.672344 
L 355.86963 -21.672344 
L 355.450607 -21.672344 
L 355.031583 -21.672344 
L 354.612559 -21.672344 
L 354.193535 -21.672344 
L 353.774511 -21.672344 
L 353.355488 -21.672344 
L 352.936464 -21.672344 
L 352.51744 -21.672344 
L 352.098416 -21.672344 
L 351.679393 -21.672344 
L 351.260369 -21.672344 
L 350.841345 -21.672344 
L 350.422321 -21.672344 
L 350.003297 -21.672344 
L 349.584274 -21.672344 
L 349.16525 -21.672344 
L 348.746226 -21.672344 
L 348.327202 -21.672344 
L 347.908179 -21.672344 
L 347.489155 -21.672344 
L 347.070131 -21.672344 
L 346.651107 -21.672344 
L 346.232083 -21.672344 
L 345.81306 -21.672344 
L 345.394036 -21.672344 
L 344.975012 -21.672344 
L 344.555988 -21.672344 
L 344.136965 -21.672344 
L 343.717941 -21.672344 
L 343.298917 -21.672344 
L 342.879893 -21.672344 
L 342.460869 -21.672344 
L 342.041846 -21.672344 
L 341.622822 -21.672344 
L 341.203798 -21.672344 
L 340.784774 -21.672344 
L 340.365751 -21.672344 
L 339.946727 -21.672344 
L 339.527703 -21.672344 
L 339.108679 -21.672344 
L 338.689655 -21.672344 
L 338.270632 -21.672344 
L 337.851608 -21.672344 
L 337.432584 -21.672344 
L 337.01356 -21.672344 
L 336.594536 -21.672344 
L 336.175513 -21.672344 
L 335.756489 -21.672344 
L 335.337465 -21.672344 
L 334.918441 -21.672344 
L 334.499418 -21.672344 
L 334.080394 -21.672344 
L 333.66137 -21.672344 
L 333.242346 -21.672344 
L 332.823322 -21.672344 
L 332.404299 -21.672344 
L 331.985275 -21.672344 
L 331.566251 -21.672344 
L 331.147227 -21.672344 
L 330.728204 -21.672344 
L 330.30918 -21.672344 
L 329.890156 -21.672344 
L 329.471132 -21.672344 
L 329.052108 -21.672344 
L 328.633085 -21.672344 
L 328.214061 -21.672344 
L 327.795037 -21.672344 
L 327.376013 -21.672344 
L 326.95699 -21.672344 
L 326.537966 -21.672344 
L 326.118942 -21.672344 
L 325.699918 -21.672344 
L 325.280894 -21.672344 
L 324.861871 -21.672344 
L 324.442847 -21.672344 
L 324.023823 -21.672344 
L 323.604799 -21.672344 
L 323.185776 -21.672344 
L 322.766752 -21.672344 
L 322.347728 -21.672344 
L 321.928704 -21.672344 
L 321.50968 -21.672344 
L 321.090657 -21.672344 
L 320.671633 -21.672344 
L 320.252609 -21.672344 
L 319.833585 -21.672344 
L 319.414562 -21.672344 
L 318.995538 -21.672344 
L 318.576514 -21.672344 
L 318.15749 -21.672344 
L 317.738466 -21.672344 
L 317.319443 -21.672344 
L 316.900419 -21.672344 
L 316.481395 -21.672344 
L 316.062371 -21.672344 
L 315.643348 -21.672344 
L 315.224324 -21.672344 
L 314.8053 -21.672344 
L 314.386276 -21.672344 
L 313.967252 -21.672344 
L 313.548229 -21.672344 
L 313.129205 -21.672344 
L 312.710181 -21.672344 
L 312.291157 -21.672344 
L 311.872133 -21.672344 
L 311.45311 -21.672344 
L 311.034086 -21.672344 
L 310.615062 -21.672344 
L 310.196038 -21.672344 
L 309.777015 -21.672344 
L 309.357991 -21.672344 
L 308.938967 -21.672344 
L 308.519943 -21.672344 
L 308.100919 -21.672344 
L 307.681896 -21.672344 
L 307.262872 -21.672344 
L 306.843848 -21.672344 
L 306.424824 -21.672344 
L 306.005801 -21.672344 
L 305.586777 -21.672344 
L 305.167753 -21.672344 
L 304.748729 -21.672344 
L 304.329705 -21.672344 
L 303.910682 -21.672344 
L 303.491658 -21.672344 
L 303.072634 -21.672344 
L 302.65361 -21.672344 
L 302.234587 -21.672344 
L 301.815563 -21.672344 
L 301.396539 -21.672344 
L 300.977515 -21.672344 
L 300.558491 -21.672344 
L 300.139468 -21.672344 
L 299.720444 -21.672344 
L 299.30142 -21.672344 
L 298.882396 -21.672344 
L 298.463373 -21.672344 
L 298.044349 -21.672344 
L 297.625325 -21.672344 
L 297.206301 -21.672344 
L 296.787277 -21.672344 
L 296.368254 -21.672344 
L 295.94923 -21.672344 
L 295.530206 -21.672344 
L 295.111182 -21.672344 
L 294.692159 -21.672344 
L 294.273135 -21.672344 
L 293.854111 -21.672344 
L 293.435087 -21.672344 
L 293.016063 -21.672344 
L 292.59704 -21.672344 
L 292.178016 -21.672344 
L 291.758992 -21.672344 
L 291.339968 -21.672344 
L 290.920945 -21.672344 
L 290.501921 -21.672344 
L 290.082897 -21.672344 
L 289.663873 -21.672344 
L 289.244849 -21.672344 
L 288.825826 -21.672344 
L 288.406802 -21.672344 
L 287.987778 -21.672344 
L 287.568754 -21.672344 
L 287.14973 -21.672344 
L 286.730707 -21.672344 
L 286.311683 -21.672344 
L 285.892659 -21.672344 
L 285.473635 -21.672344 
L 285.054612 -21.672344 
L 284.635588 -21.672344 
L 284.216564 -21.672344 
L 283.79754 -21.672344 
L 283.378516 -21.672344 
L 282.959493 -21.672344 
L 282.540469 -21.672344 
L 282.121445 -21.672344 
L 281.702421 -21.672344 
L 281.283398 -21.672344 
L 280.864374 -21.672344 
L 280.44535 -21.672344 
L 280.026326 -21.672344 
L 279.607302 -21.672344 
L 279.188279 -21.672344 
L 278.769255 -21.672344 
L 278.350231 -21.672344 
L 277.931207 -21.672344 
L 277.512184 -21.672344 
L 277.09316 -21.672344 
L 276.674136 -21.672344 
L 276.255112 -21.672344 
L 275.836088 -21.672344 
L 275.417065 -21.672344 
L 274.998041 -21.672344 
L 274.579017 -21.672344 
L 274.159993 -21.672344 
L 273.74097 -21.672344 
L 273.321946 -21.672344 
L 272.902922 -21.672344 
L 272.483898 -21.672344 
L 272.064874 -21.672344 
L 271.645851 -21.672344 
L 271.226827 -21.672344 
L 270.807803 -21.672344 
L 270.388779 -21.672344 
L 269.969756 -21.672344 
L 269.550732 -21.672344 
L 269.131708 -21.672344 
L 268.712684 -21.672344 
L 268.29366 -21.672344 
L 267.874637 -21.672344 
L 267.455613 -21.672344 
L 267.036589 -21.672344 
L 266.617565 -21.672344 
L 266.198541 -21.672344 
L 265.779518 -21.672344 
L 265.360494 -21.672344 
L 264.94147 -21.672344 
L 264.522446 -21.672344 
L 264.103423 -21.672344 
L 263.684399 -21.672344 
L 263.265375 -21.672344 
L 262.846351 -21.672344 
L 262.427327 -21.672344 
L 262.008304 -21.672344 
L 261.58928 -21.672344 
L 261.170256 -21.672344 
L 260.751232 -21.672344 
L 260.332209 -21.672344 
L 259.913185 -21.672344 
L 259.494161 -21.672344 
L 259.075137 -21.672344 
L 258.656113 -21.672344 
L 258.23709 -21.672344 
L 257.818066 -21.672344 
L 257.399042 -21.672344 
L 256.980018 -21.672344 
L 256.560995 -21.672344 
L 256.141971 -21.672344 
L 255.722947 -21.672344 
L 255.303923 -21.672344 
L 254.884899 -21.672344 
L 254.465876 -21.672344 
L 254.046852 -21.672344 
L 253.627828 -21.672344 
L 253.208804 -21.672344 
L 252.789781 -21.672344 
L 252.370757 -21.672344 
L 251.951733 -21.672344 
L 251.532709 -21.672344 
L 251.113685 -21.672344 
L 250.694662 -21.672344 
L 250.275638 -21.672344 
L 249.856614 -21.672344 
L 249.43759 -21.672344 
L 249.018567 -21.672344 
L 248.599543 -21.672344 
L 248.180519 -21.672344 
L 247.761495 -21.672344 
L 247.342471 -21.672344 
L 246.923448 -21.672344 
L 246.504424 -21.672344 
L 246.0854 -21.672344 
L 245.666376 -21.672344 
L 245.247353 -21.672344 
L 244.828329 -21.672344 
L 244.409305 -21.672344 
L 243.990281 -21.672344 
L 243.571257 -21.672344 
L 243.152234 -21.672344 
L 242.73321 -21.672344 
L 242.314186 -21.672344 
L 241.895162 -21.672344 
L 241.476138 -21.672344 
L 241.057115 -21.672344 
L 240.638091 -21.672344 
L 240.219067 -21.672344 
L 239.800043 -21.672344 
L 239.38102 -21.672344 
L 238.961996 -21.672344 
L 238.542972 -21.672344 
L 238.123948 -21.672344 
L 237.704924 -21.672344 
L 237.285901 -21.672344 
L 236.866877 -21.672344 
L 236.447853 -21.672344 
L 236.028829 -21.672344 
L 235.609806 -21.672344 
L 235.190782 -21.672344 
L 234.771758 -21.672344 
L 234.352734 -21.672344 
L 233.93371 -21.672344 
L 233.514687 -21.672344 
L 233.095663 -21.672344 
L 232.676639 -21.672344 
L 232.257615 -21.672344 
L 231.838592 -21.672344 
L 231.419568 -21.672344 
L 231.000544 -21.672344 
L 230.58152 -21.672344 
L 230.162496 -21.672344 
L 229.743473 -21.672344 
L 229.324449 -21.672344 
L 228.905425 -21.672344 
L 228.486401 -21.672344 
L 228.067378 -21.672344 
L 227.648354 -21.672344 
L 227.22933 -21.672344 
L 226.810306 -21.672344 
L 226.391282 -21.672344 
L 225.972259 -21.672344 
L 225.553235 -21.672344 
L 225.134211 -21.672344 
L 224.715187 -21.672344 
L 224.296164 -21.672344 
L 223.87714 -21.672344 
L 223.458116 -21.672344 
L 223.039092 -21.672344 
L 222.620068 -21.672344 
L 222.201045 -21.672344 
L 221.782021 -21.672344 
L 221.362997 -21.672344 
L 220.943973 -21.672344 
L 220.52495 -21.672344 
L 220.105926 -21.672344 
L 219.686902 -21.672344 
L 219.267878 -21.672344 
L 218.848854 -21.672344 
L 218.429831 -21.672344 
L 218.010807 -21.672344 
L 217.591783 -21.672344 
L 217.172759 -21.672344 
L 216.753735 -21.672344 
L 216.334712 -21.672344 
L 215.915688 -21.672344 
L 215.496664 -21.672344 
L 215.07764 -21.672344 
L 214.658617 -21.672344 
L 214.239593 -21.672344 
L 213.820569 -21.672344 
L 213.401545 -21.672344 
L 212.982521 -21.672344 
L 212.563498 -21.672344 
L 212.144474 -21.672344 
L 211.72545 -21.672344 
L 211.306426 -21.672344 
L 210.887403 -21.672344 
L 210.468379 -21.672344 
L 210.049355 -21.672344 
L 209.630331 -21.672344 
L 209.211307 -21.672344 
L 208.792284 -21.672344 
L 208.37326 -21.672344 
L 207.954236 -21.672344 
L 207.535212 -21.672344 
L 207.116189 -21.672344 
L 206.697165 -21.672344 
L 206.278141 -21.672344 
L 205.859117 -21.672344 
L 205.440093 -21.672344 
L 205.02107 -21.672344 
L 204.602046 -21.672344 
L 204.183022 -21.672344 
L 203.763998 -21.672344 
L 203.344975 -21.672344 
L 202.925951 -21.672344 
L 202.506927 -21.672344 
L 202.087903 -21.672344 
L 201.668879 -21.672344 
L 201.249856 -21.672344 
L 200.830832 -21.672344 
L 200.411808 -21.672344 
L 199.992784 -21.672344 
L 199.573761 -21.672344 
L 199.154737 -21.672344 
L 198.735713 -21.672344 
L 198.316689 -21.672344 
L 197.897665 -21.672344 
L 197.478642 -21.672344 
L 197.059618 -21.672344 
L 196.640594 -21.672344 
L 196.22157 -21.672344 
L 195.802547 -21.672344 
L 195.383523 -21.672344 
L 194.964499 -21.672344 
L 194.545475 -21.672344 
L 194.126451 -21.672344 
L 193.707428 -21.672344 
L 193.288404 -21.672344 
L 192.86938 -21.672344 
L 192.450356 -21.672344 
L 192.031332 -21.672344 
L 191.612309 -21.672344 
L 191.193285 -21.672344 
L 190.774261 -21.672344 
L 190.355237 -21.672344 
L 189.936214 -21.672344 
L 189.51719 -21.672344 
L 189.098166 -21.672344 
L 188.679142 -21.672344 
L 188.260118 -21.672344 
L 187.841095 -21.672344 
L 187.422071 -21.672344 
L 187.003047 -21.672344 
L 186.584023 -21.672344 
L 186.165 -21.672344 
L 185.745976 -21.672344 
L 185.326952 -21.672344 
L 184.907928 -21.672344 
L 184.488904 -21.672344 
L 184.069881 -21.672344 
L 183.650857 -21.672344 
L 183.231833 -21.672344 
L 182.812809 -21.672344 
L 182.393786 -21.672344 
L 181.974762 -21.672344 
L 181.555738 -21.672344 
L 181.136714 -21.672344 
L 180.71769 -21.672344 
L 180.298667 -21.672344 
L 179.879643 -21.672344 
L 179.460619 -21.672344 
L 179.041595 -21.672344 
L 178.622572 -21.672344 
L 178.203548 -21.672344 
L 177.784524 -21.672344 
L 177.3655 -21.672344 
L 176.946476 -21.672344 
L 176.527453 -21.672344 
L 176.108429 -21.672344 
L 175.689405 -21.672344 
L 175.270381 -21.672344 
L 174.851358 -21.672344 
L 174.432334 -21.672344 
L 174.01331 -21.672344 
L 173.594286 -21.672344 
L 173.175262 -21.672344 
L 172.756239 -21.672344 
L 172.337215 -21.672344 
L 171.918191 -21.672344 
L 171.499167 -21.672344 
L 171.080143 -21.672344 
L 170.66112 -21.672344 
L 170.242096 -21.672344 
L 169.823072 -21.672344 
L 169.404048 -21.672344 
L 168.985025 -21.672344 
L 168.566001 -21.672344 
L 168.146977 -21.672344 
L 167.727953 -21.672344 
L 167.308929 -21.672344 
L 166.889906 -21.672344 
L 166.470882 -21.672344 
L 166.051858 -21.672344 
L 165.632834 -21.672344 
L 165.213811 -21.672344 
L 164.794787 -21.672344 
L 164.375763 -21.672344 
L 163.956739 -21.672344 
L 163.537715 -21.672344 
L 163.118692 -21.672344 
L 162.699668 -21.672344 
L 162.280644 -21.672344 
L 161.86162 -21.672344 
L 161.442597 -21.672344 
L 161.023573 -21.672344 
L 160.604549 -21.672344 
L 160.185525 -21.672344 
L 159.766501 -21.672344 
L 159.347478 -21.672344 
L 158.928454 -21.672344 
L 158.50943 -21.672344 
L 158.090406 -21.672344 
L 157.671383 -21.672344 
L 157.252359 -21.672344 
L 156.833335 -21.672344 
L 156.414311 -21.672344 
L 155.995287 -21.672344 
L 155.576264 -21.672344 
L 155.15724 -21.672344 
L 154.738216 -21.672344 
L 154.319192 -21.672344 
L 153.900169 -21.672344 
L 153.481145 -21.672344 
L 153.062121 -21.672344 
L 152.643097 -21.672344 
L 152.224073 -21.672344 
L 151.80505 -21.672344 
L 151.386026 -21.672344 
L 150.967002 -21.672344 
L 150.547978 -21.672344 
L 150.128955 -21.672344 
L 149.709931 -21.672344 
L 149.290907 -21.672344 
L 148.871883 -21.672344 
L 148.452859 -21.672344 
L 148.033836 -21.672344 
L 147.614812 -21.672344 
L 147.195788 -21.672344 
L 146.776764 -21.672344 
L 146.35774 -21.672344 
L 145.938717 -21.672344 
L 145.519693 -21.672344 
L 145.100669 -21.672344 
L 144.681645 -21.672344 
L 144.262622 -21.672344 
L 143.843598 -21.672344 
L 143.424574 -21.672344 
L 143.00555 -21.672344 
L 142.586526 -21.672344 
L 142.167503 -21.672344 
L 141.748479 -21.672344 
L 141.329455 -21.672344 
L 140.910431 -21.672344 
L 140.491408 -21.672344 
L 140.072384 -21.672344 
L 139.65336 -21.672344 
L 139.234336 -21.672344 
L 138.815312 -21.672344 
L 138.396289 -21.672344 
L 137.977265 -21.672344 
L 137.558241 -21.672344 
L 137.139217 -21.672344 
L 136.720194 -21.672344 
L 136.30117 -21.672344 
L 135.882146 -21.672344 
L 135.463122 -21.672344 
L 135.044098 -21.672344 
L 134.625075 -21.672344 
L 134.206051 -21.672344 
L 133.787027 -21.672344 
L 133.368003 -21.672344 
L 132.94898 -21.672344 
L 132.529956 -21.672344 
L 132.110932 -21.672344 
L 131.691908 -21.672344 
L 131.272884 -21.672344 
L 130.853861 -21.672344 
L 130.434837 -21.672344 
L 130.015813 -21.672344 
L 129.596789 -21.672344 
L 129.177766 -21.672344 
L 128.758742 -21.672344 
z
"/>
    </defs>
    <g clip-path="url(#p4837e2be3b)">
     <use xlink:href="#md624a9fc59" x="0" y="219.868344" style="fill: #2a78d6; fill-opacity: 0.25"/>
    </g>
   </g>
   <g id="matplotlib.axis_1">
    <g id="text_1">
     <!-- Kinetic energy of particles -->
     <g style="fill: #1f1f1e" transform="translate(136.964484 210.336) scale(0.11 -0.11)">
      <defs>
       <path id="IBMPlexSans-4b" d="M 1766 2195 
L 1133 1491 
L 1133 0 
L 595 0 
L 595 4467 
L 1133 4467 
L 1133 2093 
L 1152 2093 
L 1792 2867 
L 3142 4467 
L 3802 4467 
L 2138 2554 
L 3917 0 
L 3251 0 
L 1766 2195 
z
" transform="scale(0.015625)"/>
       <path id="IBMPlexSans-69" d="M 800 4077 
Q 634 4077 560 4157 
Q 486 4237 486 4365 
L 486 4448 
Q 486 4576 560 4656 
Q 634 4736 800 4736 
Q 966 4736 1040 4656 
Q 1114 4576 1114 4448 
L 1114 4365 
Q 1114 4237 1040 4157 
Q 966 4077 800 4077 
z
M 544 3302 
L 1056 3302 
L 1056 0 
L 544 0 
L 544 3302 
z
" transform="scale(0.015625)"/>
       <path id="IBMPlexSans-6e" d="M 544 0 
L 544 3302 
L 1056 3302 
L 1056 2765 
L 1082 2765 
Q 1203 3046 1424 3212 
Q 1645 3379 2016 3379 
Q 2528 3379 2825 3049 
Q 3123 2720 3123 2118 
L 3123 0 
L 2611 0 
L 2611 2029 
Q 2611 2918 1862 2918 
Q 1709 2918 1565 2880 
Q 1421 2842 1305 2765 
Q 1190 2688 1123 2569 
Q 1056 2451 1056 2291 
L 1056 0 
L 544 0 
z
" transform="scale(0.015625)"/>
       <path id="IBMPlexSans-65" d="M 1786 -77 
Q 1446 -77 1174 44 
Q 902 166 707 393 
Q 512 621 406 937 
Q 301 1254 301 1651 
Q 301 2042 406 2362 
Q 512 2682 707 2909 
Q 902 3136 1174 3257 
Q 1446 3379 1786 3379 
Q 2118 3379 2380 3257 
Q 2643 3136 2828 2921 
Q 3014 2707 3113 2412 
Q 3213 2118 3213 1766 
L 3213 1523 
L 838 1523 
L 838 1370 
Q 838 1158 905 976 
Q 973 794 1097 659 
Q 1222 525 1404 448 
Q 1587 371 1818 371 
Q 2131 371 2364 518 
Q 2598 666 2726 941 
L 3091 678 
Q 2931 339 2592 131 
Q 2253 -77 1786 -77 
z
M 1786 2950 
Q 1574 2950 1401 2876 
Q 1229 2803 1104 2668 
Q 979 2534 908 2352 
Q 838 2170 838 1952 
L 838 1907 
L 2662 1907 
L 2662 1978 
Q 2662 2419 2422 2684 
Q 2182 2950 1786 2950 
z
" transform="scale(0.015625)"/>
       <path id="IBMPlexSans-74" d="M 1274 0 
Q 1005 0 867 150 
Q 730 301 730 544 
L 730 2854 
L 186 2854 
L 186 3302 
L 493 3302 
Q 659 3302 720 3369 
Q 781 3437 781 3603 
L 781 4218 
L 1242 4218 
L 1242 3302 
L 1965 3302 
L 1965 2854 
L 1242 2854 
L 1242 448 
L 1914 448 
L 1914 0 
L 1274 0 
z
" transform="scale(0.015625)"/>
       <path id="IBMPlexSans-63" d="M 1773 -77 
Q 1427 -77 1152 44 
Q 877 166 688 390 
Q 499 614 400 934 
Q 301 1254 301 1651 
Q 301 2048 400 2368 
Q 499 2688 688 2912 
Q 877 3136 1152 3257 
Q 1427 3379 1773 3379 
Q 2266 3379 2563 3164 
Q 2861 2950 3008 2605 
L 2579 2387 
Q 2490 2643 2285 2784 
Q 2080 2925 1773 2925 
Q 1542 2925 1369 2851 
Q 1197 2778 1081 2646 
Q 966 2515 908 2332 
Q 851 2150 851 1933 
L 851 1370 
Q 851 934 1084 656 
Q 1318 378 1773 378 
Q 2394 378 2669 954 
L 3040 704 
Q 2880 346 2563 134 
Q 2246 -77 1773 -77 
z
" transform="scale(0.015625)"/>
       <path id="IBMPlexSans-20" transform="scale(0.015625)"/>
       <path id="IBMPlexSans-72" d="M 544 0 
L 544 3302 
L 1056 3302 
L 1056 2694 
L 1088 2694 
Q 1178 2931 1408 3116 
Q 1638 3302 2042 3302 
L 2240 3302 
L 2240 2790 
L 1939 2790 
Q 1523 2790 1289 2633 
Q 1056 2477 1056 2240 
L 1056 0 
L 544 0 
z
" transform="scale(0.015625)"/>
       <path id="IBMPlexSans-67" d="M 3328 -365 
Q 3328 -877 2928 -1117 
Q 2528 -1357 1728 -1357 
Q 954 -1357 614 -1145 
Q 275 -934 275 -544 
Q 275 -275 416 -124 
Q 557 26 800 96 
L 800 166 
Q 506 307 506 627 
Q 506 877 666 1008 
Q 826 1139 1075 1203 
L 1075 1229 
Q 781 1370 617 1632 
Q 454 1894 454 2240 
Q 454 2490 544 2701 
Q 634 2912 797 3062 
Q 960 3213 1187 3296 
Q 1414 3379 1696 3379 
Q 2048 3379 2323 3251 
L 2323 3309 
Q 2323 3501 2412 3625 
Q 2502 3750 2707 3750 
L 3200 3750 
L 3200 3302 
L 2573 3302 
L 2573 3091 
Q 2752 2938 2851 2723 
Q 2950 2509 2950 2240 
Q 2950 1990 2860 1779 
Q 2771 1568 2608 1417 
Q 2445 1267 2214 1184 
Q 1984 1101 1702 1101 
Q 1542 1101 1382 1133 
Q 1216 1088 1081 1001 
Q 947 915 947 762 
Q 947 614 1088 563 
Q 1229 512 1453 512 
L 2157 512 
Q 2771 512 3049 278 
Q 3328 45 3328 -365 
z
M 2848 -403 
Q 2848 -205 2697 -86 
Q 2547 32 2163 32 
L 1062 32 
Q 755 -109 755 -416 
Q 755 -634 918 -787 
Q 1082 -941 1472 -941 
L 1946 -941 
Q 2374 -941 2611 -806 
Q 2848 -672 2848 -403 
z
M 1702 1510 
Q 2029 1510 2221 1667 
Q 2413 1824 2413 2150 
L 2413 2330 
Q 2413 2656 2221 2813 
Q 2029 2970 1702 2970 
Q 1376 2970 1184 2813 
Q 992 2656 992 2330 
L 992 2150 
Q 992 1824 1184 1667 
Q 1376 1510 1702 1510 
z
" transform="scale(0.015625)"/>
       <path id="IBMPlexSans-79" d="M 2579 3302 
L 3085 3302 
L 1606 -768 
Q 1549 -915 1491 -1014 
Q 1434 -1114 1350 -1171 
Q 1267 -1229 1142 -1254 
Q 1018 -1280 838 -1280 
L 576 -1280 
L 576 -832 
L 1094 -832 
L 1344 -128 
L 109 3302 
L 621 3302 
L 1414 1056 
L 1568 518 
L 1600 518 
L 1779 1056 
L 2579 3302 
z
" transform="scale(0.015625)"/>
       <path id="IBMPlexSans-6f" d="M 1792 -77 
Q 1459 -77 1184 44 
Q 909 166 713 393 
Q 518 621 409 937 
Q 301 1254 301 1651 
Q 301 2042 409 2362 
Q 518 2682 713 2909 
Q 909 3136 1184 3257 
Q 1459 3379 1792 3379 
Q 2125 3379 2397 3257 
Q 2669 3136 2867 2909 
Q 3066 2682 3174 2362 
Q 3283 2042 3283 1651 
Q 3283 1254 3174 937 
Q 3066 621 2867 393 
Q 2669 166 2397 44 
Q 2125 -77 1792 -77 
z
M 1792 378 
Q 2208 378 2470 634 
Q 2733 890 2733 1414 
L 2733 1888 
Q 2733 2413 2470 2669 
Q 2208 2925 1792 2925 
Q 1376 2925 1113 2669 
Q 851 2413 851 1888 
L 851 1414 
Q 851 890 1113 634 
Q 1376 378 1792 378 
z
" transform="scale(0.015625)"/>
       <path id="IBMPlexSans-66" d="M 723 2854 
L 186 2854 
L 186 3302 
L 723 3302 
L 723 3968 
Q 723 4314 902 4525 
Q 1082 4736 1446 4736 
L 1946 4736 
L 1946 4288 
L 1235 4288 
L 1235 3302 
L 1946 3302 
L 1946 2854 
L 1235 2854 
L 1235 0 
L 723 0 
L 723 2854 
z
" transform="scale(0.015625)"/>
       <path id="IBMPlexSans-70" d="M 544 3302 
L 1056 3302 
L 1056 2765 
L 1082 2765 
Q 1210 3078 1456 3228 
Q 1702 3379 2048 3379 
Q 2355 3379 2604 3257 
Q 2854 3136 3030 2912 
Q 3206 2688 3299 2368 
Q 3392 2048 3392 1651 
Q 3392 1254 3299 934 
Q 3206 614 3030 390 
Q 2854 166 2604 44 
Q 2355 -77 2048 -77 
Q 1376 -77 1082 538 
L 1056 538 
L 1056 -1280 
L 544 -1280 
L 544 3302 
z
M 1907 384 
Q 2342 384 2592 656 
Q 2842 928 2842 1370 
L 2842 1933 
Q 2842 2374 2592 2646 
Q 2342 2918 1907 2918 
Q 1734 2918 1577 2870 
Q 1421 2822 1305 2739 
Q 1190 2656 1123 2537 
Q 1056 2419 1056 2285 
L 1056 1056 
Q 1056 896 1123 771 
Q 1190 646 1305 560 
Q 1421 474 1577 429 
Q 1734 384 1907 384 
z
" transform="scale(0.015625)"/>
       <path id="IBMPlexSans-61" d="M 2944 0 
Q 2656 0 2531 153 
Q 2406 307 2374 538 
L 2342 538 
Q 2234 230 1984 76 
Q 1734 -77 1389 -77 
Q 864 -77 573 192 
Q 282 461 282 922 
Q 282 1389 624 1638 
Q 966 1888 1690 1888 
L 2342 1888 
L 2342 2214 
Q 2342 2566 2150 2752 
Q 1958 2938 1562 2938 
Q 1261 2938 1059 2803 
Q 858 2669 723 2445 
L 416 2733 
Q 550 3002 844 3190 
Q 1139 3379 1587 3379 
Q 2189 3379 2521 3084 
Q 2854 2790 2854 2266 
L 2854 448 
L 3232 448 
L 3232 0 
L 2944 0 
z
M 1472 358 
Q 1664 358 1824 403 
Q 1984 448 2099 531 
Q 2214 614 2278 723 
Q 2342 832 2342 960 
L 2342 1504 
L 1664 1504 
Q 1222 1504 1020 1376 
Q 819 1248 819 1005 
L 819 870 
Q 819 627 995 492 
Q 1171 358 1472 358 
z
" transform="scale(0.015625)"/>
       <path id="IBMPlexSans-6c" d="M 1088 0 
Q 819 0 681 150 
Q 544 301 544 531 
L 544 4736 
L 1056 4736 
L 1056 448 
L 1542 448 
L 1542 0 
L 1088 0 
z
" transform="scale(0.015625)"/>
       <path id="IBMPlexSans-73" d="M 1536 -77 
Q 1075 -77 764 99 
Q 454 275 230 570 
L 595 864 
Q 787 621 1024 489 
Q 1261 358 1574 358 
Q 1901 358 2083 499 
Q 2266 640 2266 896 
Q 2266 1088 2141 1225 
Q 2016 1363 1690 1414 
L 1427 1453 
Q 1197 1485 1005 1552 
Q 813 1619 669 1731 
Q 525 1843 445 2009 
Q 365 2176 365 2406 
Q 365 2650 454 2832 
Q 544 3014 701 3136 
Q 858 3258 1075 3318 
Q 1293 3379 1542 3379 
Q 1946 3379 2218 3238 
Q 2490 3098 2694 2848 
L 2355 2541 
Q 2246 2694 2035 2819 
Q 1824 2944 1504 2944 
Q 1184 2944 1021 2806 
Q 858 2669 858 2432 
Q 858 2189 1021 2080 
Q 1184 1971 1491 1920 
L 1747 1882 
Q 2298 1798 2528 1564 
Q 2758 1331 2758 954 
Q 2758 474 2432 198 
Q 2106 -77 1536 -77 
z
" transform="scale(0.015625)"/>
      </defs>
      <use xlink:href="#IBMPlexSans-4b"/>
      <use xlink:href="#IBMPlexSans-69" transform="translate(63.399994 0)"/>
      <use xlink:href="#IBMPlexSans-6e" transform="translate(88.399979 0)"/>
      <use xlink:href="#IBMPlexSans-65" transform="translate(145.199966 0)"/>
      <use xlink:href="#IBMPlexSans-74" transform="translate(200.09996 0)"/>
      <use xlink:href="#IBMPlexSans-69" transform="translate(235.199951 0)"/>
      <use xlink:href="#IBMPlexSans-63" transform="translate(260.199936 0)"/>
      <use xlink:href="#IBMPlexSans-20" transform="translate(310.499924 0)"/>
      <use xlink:href="#IBMPlexSans-65" transform="translate(334.099915 0)"/>
      <use xlink:href="#IBMPlexSans-6e" transform="translate(388.999908 0)"/>
      <use xlink:href="#IBMPlexSans-65" transform="translate(445.799896 0)"/>
      <use xlink:href="#IBMPlexSans-72" transform="translate(500.69989 0)"/>
      <use xlink:href="#IBMPlexSans-67" transform="translate(537.399887 0)"/>
      <use xlink:href="#IBMPlexSans-79" transform="translate(590.199875 0)"/>
      <use xlink:href="#IBMPlexSans-20" transform="translate(640.099869 0)"/>
      <use xlink:href="#IBMPlexSans-6f" transform="translate(663.69986 0)"/>
      <use xlink:href="#IBMPlexSans-66" transform="translate(719.699844 0)"/>
      <use xlink:href="#IBMPlexSans-20" transform="translate(752.099838 0)"/>
      <use xlink:href="#IBMPlexSans-70" transform="translate(775.699829 0)"/>
      <use xlink:href="#IBMPlexSans-61" transform="translate(833.699814 0)"/>
      <use xlink:href="#IBMPlexSans-72" transform="translate(887.099808 0)"/>
      <use xlink:href="#IBMPlexSans-74" transform="translate(923.799805 0)"/>
      <use xlink:href="#IBMPlexSans-69" transform="translate(958.899796 0)"/>
      <use xlink:href="#IBMPlexSans-63" transform="translate(983.89978 0)"/>
      <use xlink:href="#IBMPlexSans-6c" transform="translate(1034.199768 0)"/>
      <use xlink:href="#IBMPlexSans-65" transform="translate(1061.399765 0)"/>
      <use xlink:href="#IBMPlexSans-73" transform="translate(1116.299759 0)"/>
     </g>
    </g>
   </g>
   <g id="matplotlib.axis_2">
    <g id="text_2">
     <!-- Number of particles -->
     <g style="fill: #1f1f1e" transform="translate(15.34 152.860187) rotate(-90) scale(0.11 -0.11)">
      <defs>
       <path id="IBMPlexSans-4e" d="M 1677 2726 
L 1139 3718 
L 1120 3718 
L 1120 0 
L 595 0 
L 595 4467 
L 1216 4467 
L 2848 1741 
L 3386 749 
L 3405 749 
L 3405 4467 
L 3930 4467 
L 3930 0 
L 3309 0 
L 1677 2726 
z
" transform="scale(0.015625)"/>
       <path id="IBMPlexSans-75" d="M 2579 538 
L 2554 538 
Q 2502 422 2428 310 
Q 2355 198 2246 112 
Q 2138 26 1984 -25 
Q 1830 -77 1626 -77 
Q 1114 -77 813 252 
Q 512 582 512 1184 
L 512 3302 
L 1024 3302 
L 1024 1274 
Q 1024 384 1779 384 
Q 1933 384 2077 422 
Q 2221 461 2333 537 
Q 2445 614 2512 732 
Q 2579 851 2579 1018 
L 2579 3302 
L 3091 3302 
L 3091 0 
L 2579 0 
L 2579 538 
z
" transform="scale(0.015625)"/>
       <path id="IBMPlexSans-6d" d="M 544 0 
L 544 3302 
L 1056 3302 
L 1056 2765 
L 1082 2765 
Q 1139 2893 1212 3005 
Q 1286 3117 1392 3200 
Q 1498 3283 1638 3331 
Q 1779 3379 1971 3379 
Q 2298 3379 2573 3222 
Q 2848 3066 2982 2707 
L 2995 2707 
Q 3085 2976 3331 3177 
Q 3578 3379 4000 3379 
Q 4506 3379 4790 3049 
Q 5075 2720 5075 2118 
L 5075 0 
L 4563 0 
L 4563 2029 
Q 4563 2470 4390 2694 
Q 4218 2918 3840 2918 
Q 3686 2918 3548 2880 
Q 3411 2842 3302 2765 
Q 3194 2688 3130 2569 
Q 3066 2451 3066 2291 
L 3066 0 
L 2554 0 
L 2554 2029 
Q 2554 2470 2381 2694 
Q 2208 2918 1843 2918 
Q 1690 2918 1549 2880 
Q 1408 2842 1299 2765 
Q 1190 2688 1123 2569 
Q 1056 2451 1056 2291 
L 1056 0 
L 544 0 
z
" transform="scale(0.015625)"/>
       <path id="IBMPlexSans-62" d="M 544 4736 
L 1056 4736 
L 1056 2765 
L 1082 2765 
Q 1210 3078 1456 3228 
Q 1702 3379 2048 3379 
Q 2355 3379 2604 3257 
Q 2854 3136 3030 2912 
Q 3206 2688 3299 2368 
Q 3392 2048 3392 1651 
Q 3392 1254 3299 934 
Q 3206 614 3030 390 
Q 2854 166 2604 44 
Q 2355 -77 2048 -77 
Q 1376 -77 1082 538 
L 1056 538 
L 1056 0 
L 544 0 
L 544 4736 
z
M 1907 384 
Q 2342 384 2592 656 
Q 2842 928 2842 1370 
L 2842 1933 
Q 2842 2374 2592 2646 
Q 2342 2918 1907 2918 
Q 1734 2918 1577 2870 
Q 1421 2822 1305 2739 
Q 1190 2656 1123 2537 
Q 1056 2419 1056 2285 
L 1056 1056 
Q 1056 896 1123 771 
Q 1190 646 1305 560 
Q 1421 474 1577 429 
Q 1734 384 1907 384 
z
" transform="scale(0.015625)"/>
      </defs>
      <use xlink:href="#IBMPlexSans-4e"/>
      <use xlink:href="#IBMPlexSans-75" transform="translate(70.699982 0)"/>
      <use xlink:href="#IBMPlexSans-6d" transform="translate(127.499969 0)"/>
      <use xlink:href="#IBMPlexSans-62" transform="translate(214.799957 0)"/>
      <use xlink:href="#IBMPlexSans-65" transform="translate(272.799942 0)"/>
      <use xlink:href="#IBMPlexSans-72" transform="translate(327.699936 0)"/>
      <use xlink:href="#IBMPlexSans-20" transform="translate(364.399933 0)"/>
      <use xlink:href="#IBMPlexSans-6f" transform="translate(387.999924 0)"/>
      <use xlink:href="#IBMPlexSans-66" transform="translate(443.999908 0)"/>
      <use xlink:href="#IBMPlexSans-20" transform="translate(476.399902 0)"/>
      <use xlink:href="#IBMPlexSans-70" transform="translate(499.999893 0)"/>
      <use xlink:href="#IBMPlexSans-61" transform="translate(557.999878 0)"/>
      <use xlink:href="#IBMPlexSans-72" transform="translate(611.399872 0)"/>
      <use xlink:href="#IBMPlexSans-74" transform="translate(648.099869 0)"/>
      <use xlink:href="#IBMPlexSans-69" transform="translate(683.19986 0)"/>
      <use xlink:href="#IBMPlexSans-63" transform="translate(708.199844 0)"/>
      <use xlink:href="#IBMPlexSans-6c" transform="translate(758.499832 0)"/>
      <use xlink:href="#IBMPlexSans-65" transform="translate(785.699829 0)"/>
      <use xlink:href="#IBMPlexSans-73" transform="translate(840.599823 0)"/>
     </g>
     <!-- with a given energy -->
     <g style="fill: #1f1f1e" transform="translate(27.308 151.390656) rotate(-90) scale(0.11 -0.11)">
      <defs>
       <path id="IBMPlexSans-77" d="M 198 3302 
L 698 3302 
L 1050 1875 
L 1402 429 
L 1414 429 
L 1818 1875 
L 2234 3302 
L 2688 3302 
L 3117 1875 
L 3526 429 
L 3539 429 
L 3878 1875 
L 4237 3302 
L 4717 3302 
L 3840 0 
L 3206 0 
L 2746 1587 
L 2458 2592 
L 2445 2592 
L 2163 1587 
L 1702 0 
L 1082 0 
L 198 3302 
z
" transform="scale(0.015625)"/>
       <path id="IBMPlexSans-68" d="M 544 4736 
L 1056 4736 
L 1056 2765 
L 1082 2765 
Q 1203 3046 1424 3212 
Q 1645 3379 2016 3379 
Q 2528 3379 2825 3049 
Q 3123 2720 3123 2118 
L 3123 0 
L 2611 0 
L 2611 2029 
Q 2611 2918 1862 2918 
Q 1709 2918 1565 2880 
Q 1421 2842 1305 2765 
Q 1190 2688 1123 2569 
Q 1056 2451 1056 2291 
L 1056 0 
L 544 0 
L 544 4736 
z
" transform="scale(0.015625)"/>
       <path id="IBMPlexSans-76" d="M 1274 0 
L 115 3302 
L 627 3302 
L 1203 1664 
L 1562 538 
L 1594 538 
L 1952 1664 
L 2541 3302 
L 3034 3302 
L 1869 0 
L 1274 0 
z
" transform="scale(0.015625)"/>
      </defs>
      <use xlink:href="#IBMPlexSans-77"/>
      <use xlink:href="#IBMPlexSans-69" transform="translate(76.799988 0)"/>
      <use xlink:href="#IBMPlexSans-74" transform="translate(101.799973 0)"/>
      <use xlink:href="#IBMPlexSans-68" transform="translate(136.899963 0)"/>
      <use xlink:href="#IBMPlexSans-20" transform="translate(193.699951 0)"/>
      <use xlink:href="#IBMPlexSans-61" transform="translate(217.299942 0)"/>
      <use xlink:href="#IBMPlexSans-20" transform="translate(270.699936 0)"/>
      <use xlink:href="#IBMPlexSans-67" transform="translate(294.299927 0)"/>
      <use xlink:href="#IBMPlexSans-69" transform="translate(347.099915 0)"/>
      <use xlink:href="#IBMPlexSans-76" transform="translate(372.099899 0)"/>
      <use xlink:href="#IBMPlexSans-65" transform="translate(421.299896 0)"/>
      <use xlink:href="#IBMPlexSans-6e" transform="translate(476.19989 0)"/>
      <use xlink:href="#IBMPlexSans-20" transform="translate(532.999878 0)"/>
      <use xlink:href="#IBMPlexSans-65" transform="translate(556.599869 0)"/>
      <use xlink:href="#IBMPlexSans-6e" transform="translate(611.499863 0)"/>
      <use xlink:href="#IBMPlexSans-65" transform="translate(668.29985 0)"/>
      <use xlink:href="#IBMPlexSans-72" transform="translate(723.199844 0)"/>
      <use xlink:href="#IBMPlexSans-67" transform="translate(759.899841 0)"/>
      <use xlink:href="#IBMPlexSans-79" transform="translate(812.699829 0)"/>
     </g>
    </g>
   </g>
   <g id="line2d_1">
    <path d="M 33.640344 198.196 
L 34.059368 152.056851 
L 34.478391 133.918051 
L 35.316439 109.983147 
L 36.154486 93.35471 
L 36.992534 80.71799 
L 37.830582 70.738191 
L 38.668629 62.704537 
L 39.506677 56.179049 
L 40.344724 50.866058 
L 41.182772 46.55308 
L 42.020819 43.080305 
L 42.858867 40.323334 
L 43.696914 38.1827 
L 44.534962 36.577156 
L 45.37301 35.43918 
L 46.211057 34.711845 
L 47.049105 34.346588 
L 47.887152 34.301562 
L 48.7252 34.540401 
L 49.563247 35.031275 
L 50.401295 35.746144 
L 51.658366 37.184887 
L 52.915438 38.999752 
L 54.591533 41.899723 
L 56.267628 45.238693 
L 58.362747 49.880513 
L 61.295913 56.983068 
L 65.486151 67.794197 
L 75.123698 92.836118 
L 79.313936 103.059926 
L 83.08515 111.725127 
L 86.856364 119.83002 
L 90.208554 126.546687 
L 93.560744 132.802799 
L 96.912934 138.606123 
L 100.265125 143.970694 
L 103.617315 148.914817 
L 106.969505 153.459567 
L 110.321695 157.627653 
L 113.673886 161.442569 
L 117.026076 164.927963 
L 120.378266 168.107174 
L 123.730456 171.002899 
L 127.50167 173.948868 
L 131.272884 176.593143 
L 135.044098 178.963409 
L 138.815312 181.085455 
L 143.00555 183.181132 
L 147.195788 185.029807 
L 151.80505 186.810507 
L 156.414311 188.357864 
L 161.442597 189.813799 
L 166.889906 191.155098 
L 172.756239 192.36601 
L 179.041595 193.437994 
L 186.165 194.420911 
L 194.126451 195.284967 
L 202.925951 196.014956 
L 213.401545 196.652033 
L 225.972259 197.178256 
L 241.476138 197.589071 
L 261.58928 197.88689 
L 290.920945 198.081233 
L 344.555988 198.177548 
L 368.440344 198.187865 
L 368.440344 198.187865 
" clip-path="url(#p4837e2be3b)" style="fill: none; stroke: #2a78d6; stroke-width: 2; stroke-linecap: square"/>
   </g>
   <g id="line2d_2">
    <path d="M 128.500344 198.196 
L 128.500344 9.7 
" clip-path="url(#p4837e2be3b)" style="fill: none; stroke-dasharray: 3.7,1.6; stroke-dashoffset: 0; stroke: #1f1f1e"/>
   </g>
   <g id="line2d_3">
    <defs>
     <path id="m3f87e55e22" d="M 2.5 0 
L -2.5 -2.5 
L -2.5 2.5 
z
" style="stroke: #1f1f1e; stroke-linejoin: miter"/>
    </defs>
    <g>
     <use xlink:href="#m3f87e55e22" x="368.440344" y="198.196" style="fill: #1f1f1e; stroke: #1f1f1e; stroke-linejoin: miter"/>
    </g>
   </g>
   <g id="line2d_4">
    <defs>
     <path id="mac44bcb67a" d="M 0 -2.5 
L -2.5 2.5 
L 2.5 2.5 
z
" style="stroke: #1f1f1e; stroke-linejoin: miter"/>
    </defs>
    <g>
     <use xlink:href="#mac44bcb67a" x="33.640344" y="9.7" style="fill: #1f1f1e; stroke: #1f1f1e; stroke-linejoin: miter"/>
    </g>
   </g>
   <g id="patch_3">
    <path d="M 33.640344 198.196 
L 33.640344 9.7 
" style="fill: none; stroke: #1f1f1e; stroke-width: 0.9; stroke-linejoin: miter; stroke-linecap: square"/>
   </g>
   <g id="patch_4">
    <path d="M 33.640344 198.196 
L 368.440344 198.196 
" style="fill: none; stroke: #1f1f1e; stroke-width: 0.9; stroke-linejoin: miter; stroke-linecap: square"/>
   </g>
   <g id="text_3">
    <!-- $E_a$ -->
    <g transform="translate(131.290344 67.068348) scale(0.12 -0.12)">
     <defs>
      <path id="IBMPlexSans-Italic-45" d="M 250 0 
L 1146 4467 
L 3776 4467 
L 3680 4006 
L 1574 4006 
L 1274 2496 
L 3168 2496 
L 3078 2035 
L 1178 2035 
L 864 461 
L 3078 461 
L 2989 0 
L 250 0 
z
" transform="scale(0.015625)"/>
      <path id="IBMPlexSans-Italic-61" d="M 2797 0 
Q 2579 0 2473 109 
Q 2368 218 2368 397 
Q 2368 474 2387 570 
L 2419 717 
L 2400 717 
Q 2195 301 1945 112 
Q 1696 -77 1331 -77 
Q 877 -77 601 259 
Q 326 595 326 1184 
Q 326 1549 425 1936 
Q 525 2323 723 2646 
Q 922 2970 1226 3174 
Q 1530 3379 1939 3379 
Q 2086 3379 2227 3340 
Q 2368 3302 2483 3225 
Q 2598 3149 2681 3033 
Q 2765 2918 2803 2765 
L 2829 2765 
L 2938 3302 
L 3430 3302 
L 2854 435 
L 3322 435 
L 3238 0 
L 2797 0 
z
M 1466 371 
Q 1683 371 1846 460 
Q 2010 550 2157 698 
Q 2317 858 2419 1050 
Q 2522 1242 2573 1491 
L 2707 2163 
Q 2739 2317 2713 2454 
Q 2688 2592 2598 2697 
Q 2509 2803 2355 2867 
Q 2202 2931 1984 2931 
Q 1581 2931 1318 2668 
Q 1056 2406 960 1926 
L 864 1446 
Q 832 1267 832 1120 
Q 832 794 982 582 
Q 1133 371 1466 371 
z
" transform="scale(0.015625)"/>
     </defs>
     <use xlink:href="#IBMPlexSans-Italic-45" transform="translate(0 0.203125)"/>
     <use xlink:href="#IBMPlexSans-Italic-61" transform="translate(56.499985 -15.275) scale(0.7)"/>
    </g>
   </g>
   <g id="patch_5">
    <path d="M 249.266585 115.583009 
Q 202.236865 151.206504 156.009245 186.222434 
" style="fill: none; stroke: #1f1f1e; stroke-width: 0.9; stroke-linecap: round"/>
    <path d="M 160.405385 185.401489 
L 156.009245 186.222434 
L 157.990173 182.212955 
z
" style="fill: #1f1f1e; stroke: #1f1f1e; stroke-width: 0.9; stroke-linecap: round"/>
   </g>
   <g id="text_4">
    <!-- shaded area: particles with -->
    <g transform="translate(206.620344 99.053205) scale(0.1 -0.1)">
     <defs>
      <path id="IBMPlexSans-64" d="M 2656 538 
L 2630 538 
Q 2330 -77 1664 -77 
Q 1357 -77 1107 44 
Q 858 166 682 390 
Q 506 614 413 934 
Q 320 1254 320 1651 
Q 320 2048 413 2368 
Q 506 2688 682 2912 
Q 858 3136 1107 3257 
Q 1357 3379 1664 3379 
Q 2010 3379 2256 3228 
Q 2502 3078 2630 2765 
L 2656 2765 
L 2656 4736 
L 3168 4736 
L 3168 0 
L 2656 0 
L 2656 538 
z
M 1805 384 
Q 1978 384 2134 429 
Q 2291 474 2406 560 
Q 2522 646 2589 771 
Q 2656 896 2656 1056 
L 2656 2285 
Q 2656 2419 2589 2537 
Q 2522 2656 2406 2739 
Q 2291 2822 2134 2870 
Q 1978 2918 1805 2918 
Q 1370 2918 1120 2646 
Q 870 2374 870 1933 
L 870 1370 
Q 870 928 1120 656 
Q 1370 384 1805 384 
z
" transform="scale(0.015625)"/>
      <path id="IBMPlexSans-3a" d="M 934 -77 
Q 730 -77 637 25 
Q 544 128 544 294 
L 544 378 
Q 544 544 637 646 
Q 730 749 934 749 
Q 1139 749 1232 646 
Q 1325 544 1325 378 
L 1325 294 
Q 1325 128 1232 25 
Q 1139 -77 934 -77 
z
M 934 2547 
Q 730 2547 637 2649 
Q 544 2752 544 2918 
L 544 3002 
Q 544 3168 637 3270 
Q 730 3373 934 3373 
Q 1139 3373 1232 3270 
Q 1325 3168 1325 3002 
L 1325 2918 
Q 1325 2752 1232 2649 
Q 1139 2547 934 2547 
z
" transform="scale(0.015625)"/>
     </defs>
     <use xlink:href="#IBMPlexSans-73"/>
     <use xlink:href="#IBMPlexSans-68" transform="translate(48.699997 0)"/>
     <use xlink:href="#IBMPlexSans-61" transform="translate(105.499985 0)"/>
     <use xlink:href="#IBMPlexSans-64" transform="translate(158.899979 0)"/>
     <use xlink:href="#IBMPlexSans-65" transform="translate(216.899963 0)"/>
     <use xlink:href="#IBMPlexSans-64" transform="translate(271.799957 0)"/>
     <use xlink:href="#IBMPlexSans-20" transform="translate(329.799942 0)"/>
     <use xlink:href="#IBMPlexSans-61" transform="translate(353.399933 0)"/>
     <use xlink:href="#IBMPlexSans-72" transform="translate(406.799927 0)"/>
     <use xlink:href="#IBMPlexSans-65" transform="translate(443.499924 0)"/>
     <use xlink:href="#IBMPlexSans-61" transform="translate(498.399918 0)"/>
     <use xlink:href="#IBMPlexSans-3a" transform="translate(551.799911 0)"/>
     <use xlink:href="#IBMPlexSans-20" transform="translate(580.999908 0)"/>
     <use xlink:href="#IBMPlexSans-70" transform="translate(604.599899 0)"/>
     <use xlink:href="#IBMPlexSans-61" transform="translate(662.599884 0)"/>
     <use xlink:href="#IBMPlexSans-72" transform="translate(715.999878 0)"/>
     <use xlink:href="#IBMPlexSans-74" transform="translate(752.699875 0)"/>
     <use xlink:href="#IBMPlexSans-69" transform="translate(787.799866 0)"/>
     <use xlink:href="#IBMPlexSans-63" transform="translate(812.79985 0)"/>
     <use xlink:href="#IBMPlexSans-6c" transform="translate(863.099838 0)"/>
     <use xlink:href="#IBMPlexSans-65" transform="translate(890.299835 0)"/>
     <use xlink:href="#IBMPlexSans-73" transform="translate(945.199829 0)"/>
     <use xlink:href="#IBMPlexSans-20" transform="translate(993.899826 0)"/>
     <use xlink:href="#IBMPlexSans-77" transform="translate(1017.499817 0)"/>
     <use xlink:href="#IBMPlexSans-69" transform="translate(1094.299805 0)"/>
     <use xlink:href="#IBMPlexSans-74" transform="translate(1119.299789 0)"/>
     <use xlink:href="#IBMPlexSans-68" transform="translate(1154.39978 0)"/>
    </g>
    <!-- energy ≥ $E_a$ (can react) -->
    <g transform="translate(206.620344 110.173205) scale(0.1 -0.1)">
     <defs>
      <path id="IBMPlexSans-2265" d="M 576 1293 
L 2778 2259 
L 2778 2304 
L 576 3270 
L 576 3782 
L 3264 2566 
L 3264 1997 
L 576 774 
L 576 1293 
z
M 576 435 
L 3264 435 
L 3264 0 
L 576 0 
L 576 435 
z
" transform="scale(0.015625)"/>
      <path id="IBMPlexSans-28" d="M 531 1997 
Q 531 2458 620 2886 
Q 710 3315 867 3683 
Q 1024 4051 1235 4352 
Q 1446 4653 1690 4864 
L 2176 4864 
Q 1907 4621 1692 4313 
Q 1478 4006 1328 3660 
Q 1178 3315 1094 2956 
Q 1011 2598 1011 2266 
L 1011 1715 
Q 1011 1376 1094 1017 
Q 1178 659 1331 313 
Q 1485 -32 1699 -339 
Q 1914 -646 2176 -877 
L 1690 -877 
Q 1453 -678 1241 -377 
Q 1030 -77 873 294 
Q 717 666 624 1098 
Q 531 1530 531 1997 
z
" transform="scale(0.015625)"/>
      <path id="IBMPlexSans-29" d="M 1613 1997 
Q 1613 1530 1520 1098 
Q 1427 666 1270 294 
Q 1114 -77 902 -377 
Q 691 -678 454 -877 
L -32 -877 
Q 230 -646 444 -339 
Q 659 -32 812 313 
Q 966 659 1049 1017 
Q 1133 1376 1133 1715 
L 1133 2266 
Q 1133 2598 1049 2956 
Q 966 3315 816 3660 
Q 666 4006 451 4313 
Q 237 4621 -32 4864 
L 454 4864 
Q 698 4653 909 4352 
Q 1120 4051 1277 3683 
Q 1434 3315 1523 2886 
Q 1613 2458 1613 1997 
z
" transform="scale(0.015625)"/>
     </defs>
     <use xlink:href="#IBMPlexSans-65"/>
     <use xlink:href="#IBMPlexSans-6e" transform="translate(54.899994 0)"/>
     <use xlink:href="#IBMPlexSans-65" transform="translate(111.699982 0)"/>
     <use xlink:href="#IBMPlexSans-72" transform="translate(166.599976 0)"/>
     <use xlink:href="#IBMPlexSans-67" transform="translate(203.299973 0)"/>
     <use xlink:href="#IBMPlexSans-79" transform="translate(256.09996 0)"/>
     <use xlink:href="#IBMPlexSans-20" transform="translate(305.999954 0)"/>
     <use xlink:href="#IBMPlexSans-2265" transform="translate(329.599945 0)"/>
     <use xlink:href="#IBMPlexSans-20" transform="translate(389.59993 0)"/>
     <use xlink:href="#IBMPlexSans-Italic-45" transform="translate(413.199921 0)"/>
     <use xlink:href="#IBMPlexSans-Italic-61" transform="translate(469.699905 -15.478125) scale(0.7)"/>
     <use xlink:href="#IBMPlexSans-20" transform="translate(513.089584 0)"/>
     <use xlink:href="#IBMPlexSans-28" transform="translate(536.689575 0)"/>
     <use xlink:href="#IBMPlexSans-63" transform="translate(570.18956 0)"/>
     <use xlink:href="#IBMPlexSans-61" transform="translate(620.489548 0)"/>
     <use xlink:href="#IBMPlexSans-6e" transform="translate(673.889542 0)"/>
     <use xlink:href="#IBMPlexSans-20" transform="translate(730.689529 0)"/>
     <use xlink:href="#IBMPlexSans-72" transform="translate(754.28952 0)"/>
     <use xlink:href="#IBMPlexSans-65" transform="translate(790.989517 0)"/>
     <use xlink:href="#IBMPlexSans-61" transform="translate(845.889511 0)"/>
     <use xlink:href="#IBMPlexSans-63" transform="translate(899.289505 0)"/>
     <use xlink:href="#IBMPlexSans-74" transform="translate(949.589493 0)"/>
     <use xlink:href="#IBMPlexSans-29" transform="translate(984.689484 0)"/>
    </g>
   </g>
   <g id="patch_6">
    <path d="M 60.374719 33.618968 
Q 55.660196 34.573748 51.931883 35.328801 
" style="fill: none; stroke: #1f1f1e; stroke-width: 0.9; stroke-linecap: round"/>
    <path d="M 56.249274 36.49505 
L 51.931883 35.328801 
L 55.455317 32.574638 
z
" style="fill: #1f1f1e; stroke: #1f1f1e; stroke-width: 0.9; stroke-linecap: round"/>
   </g>
   <g id="text_5">
    <!-- most probable -->
    <g transform="translate(64.330344 23.406435) scale(0.1 -0.1)">
     <use xlink:href="#IBMPlexSans-6d"/>
     <use xlink:href="#IBMPlexSans-6f" transform="translate(87.299988 0)"/>
     <use xlink:href="#IBMPlexSans-73" transform="translate(143.299973 0)"/>
     <use xlink:href="#IBMPlexSans-74" transform="translate(191.999969 0)"/>
     <use xlink:href="#IBMPlexSans-20" transform="translate(227.09996 0)"/>
     <use xlink:href="#IBMPlexSans-70" transform="translate(250.699951 0)"/>
     <use xlink:href="#IBMPlexSans-72" transform="translate(308.699936 0)"/>
     <use xlink:href="#IBMPlexSans-6f" transform="translate(345.399933 0)"/>
     <use xlink:href="#IBMPlexSans-62" transform="translate(401.399918 0)"/>
     <use xlink:href="#IBMPlexSans-61" transform="translate(459.399902 0)"/>
     <use xlink:href="#IBMPlexSans-62" transform="translate(512.799896 0)"/>
     <use xlink:href="#IBMPlexSans-6c" transform="translate(570.799881 0)"/>
     <use xlink:href="#IBMPlexSans-65" transform="translate(597.999878 0)"/>
    </g>
    <!-- energy -->
    <g transform="translate(64.330344 34.286435) scale(0.1 -0.1)">
     <use xlink:href="#IBMPlexSans-65"/>
     <use xlink:href="#IBMPlexSans-6e" transform="translate(54.899994 0)"/>
     <use xlink:href="#IBMPlexSans-65" transform="translate(111.699982 0)"/>
     <use xlink:href="#IBMPlexSans-72" transform="translate(166.599976 0)"/>
     <use xlink:href="#IBMPlexSans-67" transform="translate(203.299973 0)"/>
     <use xlink:href="#IBMPlexSans-79" transform="translate(256.09996 0)"/>
    </g>
   </g>
   <g id="text_6">
    <!-- curve starts at the origin and -->
    <g style="fill: #6b6a64" transform="translate(262.420344 143.554782) scale(0.095 -0.095)">
     <use xlink:href="#IBMPlexSans-63"/>
     <use xlink:href="#IBMPlexSans-75" transform="translate(50.299988 0)"/>
     <use xlink:href="#IBMPlexSans-72" transform="translate(107.099976 0)"/>
     <use xlink:href="#IBMPlexSans-76" transform="translate(143.799973 0)"/>
     <use xlink:href="#IBMPlexSans-65" transform="translate(192.999969 0)"/>
     <use xlink:href="#IBMPlexSans-20" transform="translate(247.899963 0)"/>
     <use xlink:href="#IBMPlexSans-73" transform="translate(271.499954 0)"/>
     <use xlink:href="#IBMPlexSans-74" transform="translate(320.199951 0)"/>
     <use xlink:href="#IBMPlexSans-61" transform="translate(355.299942 0)"/>
     <use xlink:href="#IBMPlexSans-72" transform="translate(408.699936 0)"/>
     <use xlink:href="#IBMPlexSans-74" transform="translate(445.399933 0)"/>
     <use xlink:href="#IBMPlexSans-73" transform="translate(480.499924 0)"/>
     <use xlink:href="#IBMPlexSans-20" transform="translate(529.199921 0)"/>
     <use xlink:href="#IBMPlexSans-61" transform="translate(552.799911 0)"/>
     <use xlink:href="#IBMPlexSans-74" transform="translate(606.199905 0)"/>
     <use xlink:href="#IBMPlexSans-20" transform="translate(641.299896 0)"/>
     <use xlink:href="#IBMPlexSans-74" transform="translate(664.899887 0)"/>
     <use xlink:href="#IBMPlexSans-68" transform="translate(699.999878 0)"/>
     <use xlink:href="#IBMPlexSans-65" transform="translate(756.799866 0)"/>
     <use xlink:href="#IBMPlexSans-20" transform="translate(811.69986 0)"/>
     <use xlink:href="#IBMPlexSans-6f" transform="translate(835.29985 0)"/>
     <use xlink:href="#IBMPlexSans-72" transform="translate(891.299835 0)"/>
     <use xlink:href="#IBMPlexSans-69" transform="translate(927.999832 0)"/>
     <use xlink:href="#IBMPlexSans-67" transform="translate(952.999817 0)"/>
     <use xlink:href="#IBMPlexSans-69" transform="translate(1005.799805 0)"/>
     <use xlink:href="#IBMPlexSans-6e" transform="translate(1030.799789 0)"/>
     <use xlink:href="#IBMPlexSans-20" transform="translate(1087.599777 0)"/>
     <use xlink:href="#IBMPlexSans-61" transform="translate(1111.199768 0)"/>
     <use xlink:href="#IBMPlexSans-6e" transform="translate(1164.599762 0)"/>
     <use xlink:href="#IBMPlexSans-64" transform="translate(1221.39975 0)"/>
    </g>
    <!-- approaches the axis but never -->
    <g style="fill: #6b6a64" transform="translate(262.420344 154.005079) scale(0.095 -0.095)">
     <defs>
      <path id="IBMPlexSans-78" d="M 134 0 
L 1357 1664 
L 186 3302 
L 787 3302 
L 1626 2074 
L 1645 2074 
L 2515 3302 
L 3085 3302 
L 1920 1702 
L 3110 0 
L 2509 0 
L 1651 1293 
L 1632 1293 
L 704 0 
L 134 0 
z
" transform="scale(0.015625)"/>
     </defs>
     <use xlink:href="#IBMPlexSans-61"/>
     <use xlink:href="#IBMPlexSans-70" transform="translate(53.399994 0)"/>
     <use xlink:href="#IBMPlexSans-70" transform="translate(111.399979 0)"/>
     <use xlink:href="#IBMPlexSans-72" transform="translate(169.399963 0)"/>
     <use xlink:href="#IBMPlexSans-6f" transform="translate(206.09996 0)"/>
     <use xlink:href="#IBMPlexSans-61" transform="translate(262.099945 0)"/>
     <use xlink:href="#IBMPlexSans-63" transform="translate(315.499939 0)"/>
     <use xlink:href="#IBMPlexSans-68" transform="translate(365.799927 0)"/>
     <use xlink:href="#IBMPlexSans-65" transform="translate(422.599915 0)"/>
     <use xlink:href="#IBMPlexSans-73" transform="translate(477.499908 0)"/>
     <use xlink:href="#IBMPlexSans-20" transform="translate(526.199905 0)"/>
     <use xlink:href="#IBMPlexSans-74" transform="translate(549.799896 0)"/>
     <use xlink:href="#IBMPlexSans-68" transform="translate(584.899887 0)"/>
     <use xlink:href="#IBMPlexSans-65" transform="translate(641.699875 0)"/>
     <use xlink:href="#IBMPlexSans-20" transform="translate(696.599869 0)"/>
     <use xlink:href="#IBMPlexSans-61" transform="translate(720.19986 0)"/>
     <use xlink:href="#IBMPlexSans-78" transform="translate(773.599854 0)"/>
     <use xlink:href="#IBMPlexSans-69" transform="translate(824.29985 0)"/>
     <use xlink:href="#IBMPlexSans-73" transform="translate(849.299835 0)"/>
     <use xlink:href="#IBMPlexSans-20" transform="translate(897.999832 0)"/>
     <use xlink:href="#IBMPlexSans-62" transform="translate(921.599823 0)"/>
     <use xlink:href="#IBMPlexSans-75" transform="translate(979.599808 0)"/>
     <use xlink:href="#IBMPlexSans-74" transform="translate(1036.399796 0)"/>
     <use xlink:href="#IBMPlexSans-20" transform="translate(1071.499786 0)"/>
     <use xlink:href="#IBMPlexSans-6e" transform="translate(1095.099777 0)"/>
     <use xlink:href="#IBMPlexSans-65" transform="translate(1151.899765 0)"/>
     <use xlink:href="#IBMPlexSans-76" transform="translate(1206.799759 0)"/>
     <use xlink:href="#IBMPlexSans-65" transform="translate(1255.999756 0)"/>
     <use xlink:href="#IBMPlexSans-72" transform="translate(1310.89975 0)"/>
    </g>
    <!-- touches it -->
    <g style="fill: #6b6a64" transform="translate(262.420344 164.341079) scale(0.095 -0.095)">
     <use xlink:href="#IBMPlexSans-74"/>
     <use xlink:href="#IBMPlexSans-6f" transform="translate(35.099991 0)"/>
     <use xlink:href="#IBMPlexSans-75" transform="translate(91.099976 0)"/>
     <use xlink:href="#IBMPlexSans-63" transform="translate(147.899963 0)"/>
     <use xlink:href="#IBMPlexSans-68" transform="translate(198.199951 0)"/>
     <use xlink:href="#IBMPlexSans-65" transform="translate(254.999939 0)"/>
     <use xlink:href="#IBMPlexSans-73" transform="translate(309.899933 0)"/>
     <use xlink:href="#IBMPlexSans-20" transform="translate(358.59993 0)"/>
     <use xlink:href="#IBMPlexSans-69" transform="translate(382.199921 0)"/>
     <use xlink:href="#IBMPlexSans-74" transform="translate(407.199905 0)"/>
    </g>
   </g>
  </g>
 </g>
 <defs>
  <clipPath id="p4837e2be3b">
   <rect x="33.640344" y="9.7" width="334.8" height="188.496"/>
  </clipPath>
 </defs>
</svg>
