<?xml version="1.0" encoding="utf-8" standalone="no"?>
<!DOCTYPE svg PUBLIC "-//W3C//DTD SVG 1.1//EN"
  "http://www.w3.org/Graphics/SVG/1.1/DTD/svg11.dtd">
<svg xmlns:xlink="http://www.w3.org/1999/xlink" width="566.64pt" height="128.062109pt" viewBox="0 0 566.64 128.062109" xmlns="http://www.w3.org/2000/svg" version="1.1">
 <metadata>
  <rdf:RDF xmlns:dc="http://purl.org/dc/elements/1.1/" xmlns:cc="http://creativecommons.org/ns#" xmlns:rdf="http://www.w3.org/1999/02/22-rdf-syntax-ns#">
   <cc:Work>
    <dc:type rdf:resource="http://purl.org/dc/dcmitype/StillImage"/>
    <dc:format>image/svg+xml</dc:format>
    <dc:creator>
     <cc:Agent>
      <dc:title>Matplotlib v3.10.9, https://matplotlib.org/</dc:title>
     </cc:Agent>
    </dc:creator>
   </cc:Work>
  </rdf:RDF>
 </metadata>
 <defs>
  <style type="text/css">*{stroke-linejoin: round; stroke-linecap: butt}</style>
 </defs>
 <g id="figure_1">
  <g id="patch_1">
   <path d="M 0 128.062109 
L 566.64 128.062109 
L 566.64 0 
L 0 0 
z
" style="fill: #ffffff"/>
  </g>
  <g id="axes_1">
   <g id="patch_2">
    <path d="M 18.43 108.134776 
C 20.514762 108.134776 22.514417 107.306491 23.988566 105.832342 
C 25.462715 104.358193 26.291 102.358538 26.291 100.273776 
C 26.291 98.189014 25.462715 96.189359 23.988566 94.71521 
C 22.514417 93.241061 20.514762 92.412776 18.43 92.412776 
C 16.345238 92.412776 14.345583 93.241061 12.871434 94.71521 
C 11.397285 96.189359 10.569 98.189014 10.569 100.273776 
C 10.569 102.358538 11.397285 104.358193 12.871434 105.832342 
C 14.345583 107.306491 16.345238 108.134776 18.43 108.134776 
z
" clip-path="url(#p01a9001372)" style="fill: #c9c8c1; stroke: #1f1f1e; stroke-width: 0.6; stroke-linejoin: miter"/>
   </g>
   <g id="patch_3">
    <path d="M 37.146667 108.134776 
C 39.231428 108.134776 41.231084 107.306491 42.705233 105.832342 
C 44.179382 104.358193 45.007667 102.358538 45.007667 100.273776 
C 45.007667 98.189014 44.179382 96.189359 42.705233 94.71521 
C 41.231084 93.241061 39.231428 92.412776 37.146667 92.412776 
C 35.061905 92.412776 33.062249 93.241061 31.5881 94.71521 
C 30.113951 96.189359 29.285667 98.189014 29.285667 100.273776 
C 29.285667 102.358538 30.113951 104.358193 31.5881 105.832342 
C 33.062249 107.306491 35.061905 108.134776 37.146667 108.134776 
z
" clip-path="url(#p01a9001372)" style="fill: #c9c8c1; stroke: #1f1f1e; stroke-width: 0.6; stroke-linejoin: miter"/>
   </g>
   <g id="patch_4">
    <path d="M 55.863333 108.134776 
C 57.948095 108.134776 59.947751 107.306491 61.4219 105.832342 
C 62.896049 104.358193 63.724333 102.358538 63.724333 100.273776 
C 63.724333 98.189014 62.896049 96.189359 61.4219 94.71521 
C 59.947751 93.241061 57.948095 92.412776 55.863333 92.412776 
C 53.778572 92.412776 51.778916 93.241061 50.304767 94.71521 
C 48.830618 96.189359 48.002333 98.189014 48.002333 100.273776 
C 48.002333 102.358538 48.830618 104.358193 50.304767 105.832342 
C 51.778916 107.306491 53.778572 108.134776 55.863333 108.134776 
z
" clip-path="url(#p01a9001372)" style="fill: #c9c8c1; stroke: #1f1f1e; stroke-width: 0.6; stroke-linejoin: miter"/>
   </g>
   <g id="patch_5">
    <path d="M 74.58 108.134776 
C 76.664762 108.134776 78.664417 107.306491 80.138566 105.832342 
C 81.612715 104.358193 82.441 102.358538 82.441 100.273776 
C 82.441 98.189014 81.612715 96.189359 80.138566 94.71521 
C 78.664417 93.241061 76.664762 92.412776 74.58 92.412776 
C 72.495238 92.412776 70.495583 93.241061 69.021434 94.71521 
C 67.547285 96.189359 66.719 98.189014 66.719 100.273776 
C 66.719 102.358538 67.547285 104.358193 69.021434 105.832342 
C 70.495583 107.306491 72.495238 108.134776 74.58 108.134776 
z
" clip-path="url(#p01a9001372)" style="fill: #c9c8c1; stroke: #1f1f1e; stroke-width: 0.6; stroke-linejoin: miter"/>
   </g>
   <g id="patch_6">
    <path d="M 93.296667 108.134776 
C 95.381428 108.134776 97.381084 107.306491 98.855233 105.832342 
C 100.329382 104.358193 101.157667 102.358538 101.157667 100.273776 
C 101.157667 98.189014 100.329382 96.189359 98.855233 94.71521 
C 97.381084 93.241061 95.381428 92.412776 93.296667 92.412776 
C 91.211905 92.412776 89.212249 93.241061 87.7381 94.71521 
C 86.263951 96.189359 85.435667 98.189014 85.435667 100.273776 
C 85.435667 102.358538 86.263951 104.358193 87.7381 105.832342 
C 89.212249 107.306491 91.211905 108.134776 93.296667 108.134776 
z
" clip-path="url(#p01a9001372)" style="fill: #c9c8c1; stroke: #1f1f1e; stroke-width: 0.6; stroke-linejoin: miter"/>
   </g>
   <g id="patch_7">
    <path d="M 112.013333 108.134776 
C 114.098095 108.134776 116.097751 107.306491 117.5719 105.832342 
C 119.046049 104.358193 119.874333 102.358538 119.874333 100.273776 
C 119.874333 98.189014 119.046049 96.189359 117.5719 94.71521 
C 116.097751 93.241061 114.098095 92.412776 112.013333 92.412776 
C 109.928572 92.412776 107.928916 93.241061 106.454767 94.71521 
C 104.980618 96.189359 104.152333 98.189014 104.152333 100.273776 
C 104.152333 102.358538 104.980618 104.358193 106.454767 105.832342 
C 107.928916 107.306491 109.928572 108.134776 112.013333 108.134776 
z
" clip-path="url(#p01a9001372)" style="fill: #c9c8c1; stroke: #1f1f1e; stroke-width: 0.6; stroke-linejoin: miter"/>
   </g>
   <g id="patch_8">
    <path d="M 130.73 108.134776 
C 132.814762 108.134776 134.814417 107.306491 136.288566 105.832342 
C 137.762715 104.358193 138.591 102.358538 138.591 100.273776 
C 138.591 98.189014 137.762715 96.189359 136.288566 94.71521 
C 134.814417 93.241061 132.814762 92.412776 130.73 92.412776 
C 128.645238 92.412776 126.645583 93.241061 125.171434 94.71521 
C 123.697285 96.189359 122.869 98.189014 122.869 100.273776 
C 122.869 102.358538 123.697285 104.358193 125.171434 105.832342 
C 126.645583 107.306491 128.645238 108.134776 130.73 108.134776 
z
" clip-path="url(#p01a9001372)" style="fill: #c9c8c1; stroke: #1f1f1e; stroke-width: 0.6; stroke-linejoin: miter"/>
   </g>
   <g id="line2d_1">
    <path d="M 27.788333 40.380443 
L 39.018333 40.380443 
" clip-path="url(#p01a9001372)" style="fill: none; stroke: #1f1f1e; stroke-width: 1.2; stroke-linecap: square"/>
   </g>
   <g id="line2d_2">
    <path d="M 82.066667 41.690609 
L 104.526667 41.690609 
" clip-path="url(#p01a9001372)" style="fill: none; stroke: #1f1f1e; stroke-width: 1.2; stroke-linecap: square"/>
   </g>
   <g id="line2d_3">
    <path d="M 82.066667 39.070276 
L 104.526667 39.070276 
" clip-path="url(#p01a9001372)" style="fill: none; stroke: #1f1f1e; stroke-width: 1.2; stroke-linecap: square"/>
   </g>
   <g id="line2d_4">
    <path d="M 82.066667 40.380443 
L 72.708333 31.022109 
" clip-path="url(#p01a9001372)" style="fill: none; stroke: #1f1f1e; stroke-width: 1.2; stroke-linecap: square"/>
   </g>
   <g id="line2d_5">
    <path d="M 82.066667 40.380443 
L 72.708333 49.738776 
" clip-path="url(#p01a9001372)" style="fill: none; stroke: #1f1f1e; stroke-width: 1.2; stroke-linecap: square"/>
   </g>
   <g id="line2d_6">
    <path d="M 104.526667 40.380443 
L 113.885 31.022109 
" clip-path="url(#p01a9001372)" style="fill: none; stroke: #1f1f1e; stroke-width: 1.2; stroke-linecap: square"/>
   </g>
   <g id="line2d_7">
    <path d="M 104.526667 40.380443 
L 113.885 49.738776 
" clip-path="url(#p01a9001372)" style="fill: none; stroke: #1f1f1e; stroke-width: 1.2; stroke-linecap: square"/>
   </g>
   <g id="text_1">
    <!-- Ni catalyst surface -->
    <g style="fill: #6b6a64" transform="translate(42.954687 116.182943) scale(0.085 -0.085)">
     <defs>
      <path id="LiberationSerif-4e" d="M 3609 3944 
L 3047 4025 
L 3047 4191 
L 4475 4191 
L 4475 4025 
L 3938 3944 
L 3938 0 
L 3634 0 
L 1050 3769 
L 1050 250 
L 1613 166 
L 1613 0 
L 184 0 
L 184 166 
L 722 250 
L 722 3944 
L 184 4025 
L 184 4191 
L 1453 4191 
L 3609 1088 
L 3609 3944 
z
" transform="scale(0.015625)"/>
      <path id="LiberationSerif-69" d="M 1184 3897 
Q 1184 3759 1084 3659 
Q 984 3559 844 3559 
Q 706 3559 606 3659 
Q 506 3759 506 3897 
Q 506 4038 606 4138 
Q 706 4238 844 4238 
Q 984 4238 1084 4138 
Q 1184 4038 1184 3897 
z
M 1153 219 
L 1656 141 
L 1656 0 
L 134 0 
L 134 141 
L 634 219 
L 634 2719 
L 219 2797 
L 219 2938 
L 1153 2938 
L 1153 219 
z
" transform="scale(0.015625)"/>
      <path id="LiberationSerif-20" transform="scale(0.015625)"/>
      <path id="LiberationSerif-63" d="M 2644 178 
Q 2491 66 2222 1 
Q 1953 -63 1672 -63 
Q 244 -63 244 1491 
Q 244 2225 608 2620 
Q 972 3016 1650 3016 
Q 2072 3016 2572 2919 
L 2572 2100 
L 2400 2100 
L 2266 2619 
Q 2006 2766 1644 2766 
Q 806 2766 806 1491 
Q 806 828 1061 545 
Q 1316 263 1850 263 
Q 2306 263 2644 366 
L 2644 178 
z
" transform="scale(0.015625)"/>
      <path id="LiberationSerif-61" d="M 1453 3003 
Q 1934 3003 2161 2806 
Q 2388 2609 2388 2203 
L 2388 219 
L 2753 141 
L 2753 0 
L 1947 0 
L 1888 294 
Q 1531 -63 978 -63 
Q 225 -63 225 813 
Q 225 1106 339 1298 
Q 453 1491 703 1592 
Q 953 1694 1428 1703 
L 1869 1716 
L 1869 2175 
Q 1869 2478 1758 2622 
Q 1647 2766 1416 2766 
Q 1103 2766 844 2619 
L 738 2253 
L 563 2253 
L 563 2894 
Q 1069 3003 1453 3003 
z
M 1869 1497 
L 1459 1484 
Q 1041 1469 892 1322 
Q 744 1175 744 831 
Q 744 281 1191 281 
Q 1403 281 1558 329 
Q 1713 378 1869 453 
L 1869 1497 
z
" transform="scale(0.015625)"/>
      <path id="LiberationSerif-74" d="M 1044 -63 
Q 744 -63 595 115 
Q 447 294 447 616 
L 447 2675 
L 63 2675 
L 63 2816 
L 453 2938 
L 769 3603 
L 966 3603 
L 966 2938 
L 1638 2938 
L 1638 2675 
L 966 2675 
L 966 672 
Q 966 469 1058 366 
Q 1150 263 1300 263 
Q 1481 263 1741 313 
L 1741 109 
Q 1631 34 1425 -14 
Q 1219 -63 1044 -63 
z
" transform="scale(0.015625)"/>
      <path id="LiberationSerif-6c" d="M 1147 219 
L 1650 141 
L 1650 0 
L 128 0 
L 128 141 
L 628 219 
L 628 4225 
L 128 4300 
L 128 4441 
L 1147 4441 
L 1147 219 
z
" transform="scale(0.015625)"/>
      <path id="LiberationSerif-79" d="M 622 -1381 
Q 378 -1381 141 -1325 
L 141 -691 
L 288 -691 
L 391 -991 
Q 488 -1063 659 -1063 
Q 822 -1063 959 -969 
Q 1097 -875 1211 -690 
Q 1325 -506 1497 -31 
L 378 2719 
L 78 2797 
L 78 2938 
L 1441 2938 
L 1441 2797 
L 978 2713 
L 1772 659 
L 2541 2719 
L 2081 2797 
L 2081 2938 
L 3175 2938 
L 3175 2797 
L 2869 2731 
L 1722 -184 
Q 1519 -700 1369 -925 
Q 1219 -1150 1037 -1265 
Q 856 -1381 622 -1381 
z
" transform="scale(0.015625)"/>
      <path id="LiberationSerif-73" d="M 2259 825 
Q 2259 388 1982 162 
Q 1706 -63 1166 -63 
Q 947 -63 683 -17 
Q 419 28 269 84 
L 269 806 
L 409 806 
L 563 397 
Q 797 184 1172 184 
Q 1778 184 1778 703 
Q 1778 1084 1300 1247 
L 1022 1338 
Q 706 1441 562 1547 
Q 419 1653 341 1808 
Q 263 1963 263 2181 
Q 263 2569 527 2792 
Q 791 3016 1241 3016 
Q 1563 3016 2047 2919 
L 2047 2278 
L 1900 2278 
L 1769 2619 
Q 1603 2766 1247 2766 
Q 994 2766 861 2641 
Q 728 2516 728 2303 
Q 728 2125 848 2003 
Q 969 1881 1213 1800 
Q 1672 1644 1812 1572 
Q 1953 1500 2051 1395 
Q 2150 1291 2204 1156 
Q 2259 1022 2259 825 
z
" transform="scale(0.015625)"/>
      <path id="LiberationSerif-75" d="M 978 838 
Q 978 300 1478 300 
Q 1866 300 2203 397 
L 2203 2719 
L 1759 2797 
L 1759 2938 
L 2719 2938 
L 2719 219 
L 3091 141 
L 3091 0 
L 2234 0 
L 2209 238 
Q 1988 116 1697 26 
Q 1406 -63 1209 -63 
Q 459 -63 459 800 
L 459 2719 
L 84 2797 
L 84 2938 
L 978 2938 
L 978 838 
z
" transform="scale(0.015625)"/>
      <path id="LiberationSerif-72" d="M 2075 3016 
L 2075 2222 
L 1941 2222 
L 1759 2566 
Q 1603 2566 1389 2523 
Q 1175 2481 1019 2413 
L 1019 219 
L 1522 141 
L 1522 0 
L 128 0 
L 128 141 
L 500 219 
L 500 2719 
L 128 2797 
L 128 2938 
L 984 2938 
L 1013 2572 
Q 1200 2728 1520 2872 
Q 1841 3016 2028 3016 
L 2075 3016 
z
" transform="scale(0.015625)"/>
      <path id="LiberationSerif-66" d="M 703 2675 
L 197 2675 
L 197 2828 
L 703 2950 
L 703 3156 
Q 703 3806 961 4156 
Q 1219 4506 1684 4506 
Q 1925 4506 2131 4447 
L 2131 3806 
L 1978 3806 
L 1838 4191 
Q 1731 4256 1581 4256 
Q 1384 4256 1303 4081 
Q 1222 3906 1222 3425 
L 1222 2938 
L 2003 2938 
L 2003 2675 
L 1222 2675 
L 1222 244 
L 1856 141 
L 1856 0 
L 269 0 
L 269 141 
L 703 244 
L 703 2675 
z
" transform="scale(0.015625)"/>
      <path id="LiberationSerif-65" d="M 813 1478 
L 813 1422 
Q 813 991 908 752 
Q 1003 513 1201 388 
Q 1400 263 1722 263 
Q 1891 263 2122 291 
Q 2353 319 2503 353 
L 2503 178 
Q 2353 81 2095 9 
Q 1838 -63 1569 -63 
Q 884 -63 567 306 
Q 250 675 250 1491 
Q 250 2259 572 2637 
Q 894 3016 1491 3016 
Q 2619 3016 2619 1734 
L 2619 1478 
L 813 1478 
z
M 1491 2766 
Q 1166 2766 992 2503 
Q 819 2241 819 1728 
L 2075 1728 
Q 2075 2288 1931 2527 
Q 1788 2766 1491 2766 
z
" transform="scale(0.015625)"/>
     </defs>
     <use xlink:href="#LiberationSerif-4e"/>
     <use xlink:href="#LiberationSerif-69" transform="translate(72.216797 0)"/>
     <use xlink:href="#LiberationSerif-20" transform="translate(100 0)"/>
     <use xlink:href="#LiberationSerif-63" transform="translate(125 0)"/>
     <use xlink:href="#LiberationSerif-61" transform="translate(169.384766 0)"/>
     <use xlink:href="#LiberationSerif-74" transform="translate(213.769531 0)"/>
     <use xlink:href="#LiberationSerif-61" transform="translate(241.552734 0)"/>
     <use xlink:href="#LiberationSerif-6c" transform="translate(285.9375 0)"/>
     <use xlink:href="#LiberationSerif-79" transform="translate(313.720703 0)"/>
     <use xlink:href="#LiberationSerif-73" transform="translate(363.720703 0)"/>
     <use xlink:href="#LiberationSerif-74" transform="translate(402.636719 0)"/>
     <use xlink:href="#LiberationSerif-20" transform="translate(430.419922 0)"/>
     <use xlink:href="#LiberationSerif-73" transform="translate(455.419922 0)"/>
     <use xlink:href="#LiberationSerif-75" transform="translate(494.335938 0)"/>
     <use xlink:href="#LiberationSerif-72" transform="translate(544.335938 0)"/>
     <use xlink:href="#LiberationSerif-66" transform="translate(577.636719 0)"/>
     <use xlink:href="#LiberationSerif-61" transform="translate(610.9375 0)"/>
     <use xlink:href="#LiberationSerif-63" transform="translate(655.322266 0)"/>
     <use xlink:href="#LiberationSerif-65" transform="translate(699.707031 0)"/>
    </g>
   </g>
   <g id="patch_9">
    <path d="M 27.788333 43.562276 
C 28.632165 43.562276 29.44155 43.227018 30.038229 42.630339 
C 30.634909 42.033659 30.970167 41.224275 30.970167 40.380443 
C 30.970167 39.536611 30.634909 38.727226 30.038229 38.130547 
C 29.44155 37.533867 28.632165 37.198609 27.788333 37.198609 
C 26.944501 37.198609 26.135117 37.533867 25.538437 38.130547 
C 24.941758 38.727226 24.6065 39.536611 24.6065 40.380443 
C 24.6065 41.224275 24.941758 42.033659 25.538437 42.630339 
C 26.135117 43.227018 26.944501 43.562276 27.788333 43.562276 
z
" clip-path="url(#p01a9001372)" style="fill: #ffffff; stroke: #1f1f1e; stroke-width: 0.8; stroke-linejoin: miter"/>
   </g>
   <g id="patch_10">
    <path d="M 39.018333 43.562276 
C 39.862165 43.562276 40.67155 43.227018 41.268229 42.630339 
C 41.864909 42.033659 42.200167 41.224275 42.200167 40.380443 
C 42.200167 39.536611 41.864909 38.727226 41.268229 38.130547 
C 40.67155 37.533867 39.862165 37.198609 39.018333 37.198609 
C 38.174501 37.198609 37.365117 37.533867 36.768437 38.130547 
C 36.171758 38.727226 35.8365 39.536611 35.8365 40.380443 
C 35.8365 41.224275 36.171758 42.033659 36.768437 42.630339 
C 37.365117 43.227018 38.174501 43.562276 39.018333 43.562276 
z
" clip-path="url(#p01a9001372)" style="fill: #ffffff; stroke: #1f1f1e; stroke-width: 0.8; stroke-linejoin: miter"/>
   </g>
   <g id="patch_11">
    <path d="M 72.708333 34.203943 
C 73.552165 34.203943 74.36155 33.868685 74.958229 33.272005 
C 75.554909 32.675326 75.890167 31.865941 75.890167 31.022109 
C 75.890167 30.178277 75.554909 29.368893 74.958229 28.772213 
C 74.36155 28.175534 73.552165 27.840276 72.708333 27.840276 
C 71.864501 27.840276 71.055117 28.175534 70.458437 28.772213 
C 69.861758 29.368893 69.5265 30.178277 69.5265 31.022109 
C 69.5265 31.865941 69.861758 32.675326 70.458437 33.272005 
C 71.055117 33.868685 71.864501 34.203943 72.708333 34.203943 
z
" clip-path="url(#p01a9001372)" style="fill: #ffffff; stroke: #1f1f1e; stroke-width: 0.8; stroke-linejoin: miter"/>
   </g>
   <g id="patch_12">
    <path d="M 72.708333 52.920609 
C 73.552165 52.920609 74.36155 52.585351 74.958229 51.988672 
C 75.554909 51.391993 75.890167 50.582608 75.890167 49.738776 
C 75.890167 48.894944 75.554909 48.085559 74.958229 47.48888 
C 74.36155 46.892201 73.552165 46.556943 72.708333 46.556943 
C 71.864501 46.556943 71.055117 46.892201 70.458437 47.48888 
C 69.861758 48.085559 69.5265 48.894944 69.5265 49.738776 
C 69.5265 50.582608 69.861758 51.391993 70.458437 51.988672 
C 71.055117 52.585351 71.864501 52.920609 72.708333 52.920609 
z
" clip-path="url(#p01a9001372)" style="fill: #ffffff; stroke: #1f1f1e; stroke-width: 0.8; stroke-linejoin: miter"/>
   </g>
   <g id="patch_13">
    <path d="M 113.885 34.203943 
C 114.728832 34.203943 115.538217 33.868685 116.134896 33.272005 
C 116.731575 32.675326 117.066833 31.865941 117.066833 31.022109 
C 117.066833 30.178277 116.731575 29.368893 116.134896 28.772213 
C 115.538217 28.175534 114.728832 27.840276 113.885 27.840276 
C 113.041168 27.840276 112.231783 28.175534 111.635104 28.772213 
C 111.038425 29.368893 110.703167 30.178277 110.703167 31.022109 
C 110.703167 31.865941 111.038425 32.675326 111.635104 33.272005 
C 112.231783 33.868685 113.041168 34.203943 113.885 34.203943 
z
" clip-path="url(#p01a9001372)" style="fill: #ffffff; stroke: #1f1f1e; stroke-width: 0.8; stroke-linejoin: miter"/>
   </g>
   <g id="patch_14">
    <path d="M 113.885 52.920609 
C 114.728832 52.920609 115.538217 52.585351 116.134896 51.988672 
C 116.731575 51.391993 117.066833 50.582608 117.066833 49.738776 
C 117.066833 48.894944 116.731575 48.085559 116.134896 47.48888 
C 115.538217 46.892201 114.728832 46.556943 113.885 46.556943 
C 113.041168 46.556943 112.231783 46.892201 111.635104 47.48888 
C 111.038425 48.085559 110.703167 48.894944 110.703167 49.738776 
C 110.703167 50.582608 111.038425 51.391993 111.635104 51.988672 
C 112.231783 52.585351 113.041168 52.920609 113.885 52.920609 
z
" clip-path="url(#p01a9001372)" style="fill: #ffffff; stroke: #1f1f1e; stroke-width: 0.8; stroke-linejoin: miter"/>
   </g>
   <g id="patch_15">
    <path d="M 82.066667 45.621109 
C 83.456508 45.621109 84.789612 45.06892 85.772378 44.086154 
C 86.755144 43.103388 87.307333 41.770284 87.307333 40.380443 
C 87.307333 38.990602 86.755144 37.657498 85.772378 36.674732 
C 84.789612 35.691966 83.456508 35.139776 82.066667 35.139776 
C 80.676826 35.139776 79.343722 35.691966 78.360956 36.674732 
C 77.37819 37.657498 76.826 38.990602 76.826 40.380443 
C 76.826 41.770284 77.37819 43.103388 78.360956 44.086154 
C 79.343722 45.06892 80.676826 45.621109 82.066667 45.621109 
z
" clip-path="url(#p01a9001372)" style="fill: #3a3a38; stroke: #1f1f1e; stroke-width: 0.6; stroke-linejoin: miter"/>
   </g>
   <g id="patch_16">
    <path d="M 104.526667 45.621109 
C 105.916508 45.621109 107.249612 45.06892 108.232378 44.086154 
C 109.215144 43.103388 109.767333 41.770284 109.767333 40.380443 
C 109.767333 38.990602 109.215144 37.657498 108.232378 36.674732 
C 107.249612 35.691966 105.916508 35.139776 104.526667 35.139776 
C 103.136826 35.139776 101.803722 35.691966 100.820956 36.674732 
C 99.83819 37.657498 99.286 38.990602 99.286 40.380443 
C 99.286 41.770284 99.83819 43.103388 100.820956 44.086154 
C 101.803722 45.06892 103.136826 45.621109 104.526667 45.621109 
z
" clip-path="url(#p01a9001372)" style="fill: #3a3a38; stroke: #1f1f1e; stroke-width: 0.6; stroke-linejoin: miter"/>
   </g>
   <g id="patch_17">
    <path d="M 33.403333 57.354074 
Q 33.403333 71.26394 33.403333 83.720362 
" style="fill: none; stroke: #eb6834; stroke-width: 1.3; stroke-linecap: round"/>
    <path d="M 35.603333 79.320362 
L 33.403333 83.720362 
L 31.203333 79.320362 
z
" style="fill: #eb6834; stroke: #eb6834; stroke-width: 1.3; stroke-linecap: round"/>
   </g>
   <g id="patch_18">
    <path d="M 93.296667 57.354074 
Q 93.296667 71.26394 93.296667 83.720362 
" style="fill: none; stroke: #eb6834; stroke-width: 1.3; stroke-linecap: round"/>
    <path d="M 95.496667 79.320362 
L 93.296667 83.720362 
L 91.096667 79.320362 
z
" style="fill: #eb6834; stroke: #eb6834; stroke-width: 1.3; stroke-linecap: round"/>
   </g>
   <g id="text_2">
    <!-- 1. Adsorption -->
    <g transform="translate(48.71625 13.792109) scale(0.095 -0.095)">
     <defs>
      <path id="LiberationSerif-31" d="M 1959 250 
L 2816 166 
L 2816 0 
L 563 0 
L 563 166 
L 1422 250 
L 1422 3669 
L 575 3366 
L 575 3531 
L 1797 4225 
L 1959 4225 
L 1959 250 
z
" transform="scale(0.015625)"/>
      <path id="LiberationSerif-2e" d="M 1178 288 
Q 1178 134 1070 21 
Q 963 -91 800 -91 
Q 638 -91 530 21 
Q 422 134 422 288 
Q 422 447 531 556 
Q 641 666 800 666 
Q 959 666 1068 556 
Q 1178 447 1178 288 
z
" transform="scale(0.015625)"/>
      <path id="LiberationSerif-41" d="M 1441 166 
L 1441 0 
L 63 0 
L 63 166 
L 538 250 
L 1966 4225 
L 2559 4225 
L 4044 250 
L 4575 166 
L 4575 0 
L 2803 0 
L 2803 166 
L 3366 250 
L 2950 1459 
L 1300 1459 
L 878 250 
L 1441 166 
z
M 2113 3775 
L 1394 1741 
L 2853 1741 
L 2113 3775 
z
" transform="scale(0.015625)"/>
      <path id="LiberationSerif-64" d="M 2259 219 
Q 1906 -63 1434 -63 
Q 231 -63 231 1441 
Q 231 2213 572 2614 
Q 913 3016 1575 3016 
Q 1913 3016 2259 2944 
Q 2241 3047 2241 3463 
L 2241 4225 
L 1747 4300 
L 1747 4441 
L 2759 4441 
L 2759 219 
L 3122 141 
L 3122 0 
L 2297 0 
L 2259 219 
z
M 794 1441 
Q 794 847 994 555 
Q 1194 263 1606 263 
Q 1959 263 2241 384 
L 2241 2706 
Q 1963 2759 1606 2759 
Q 794 2759 794 1441 
z
" transform="scale(0.015625)"/>
      <path id="LiberationSerif-6f" d="M 2956 1484 
Q 2956 -63 1581 -63 
Q 919 -63 581 334 
Q 244 731 244 1484 
Q 244 2228 581 2622 
Q 919 3016 1606 3016 
Q 2275 3016 2615 2630 
Q 2956 2244 2956 1484 
z
M 2394 1484 
Q 2394 2159 2197 2462 
Q 2000 2766 1581 2766 
Q 1172 2766 989 2475 
Q 806 2184 806 1484 
Q 806 775 992 479 
Q 1178 184 1581 184 
Q 1994 184 2194 490 
Q 2394 797 2394 1484 
z
" transform="scale(0.015625)"/>
      <path id="LiberationSerif-70" d="M 475 2719 
L 141 2797 
L 141 2938 
L 966 2938 
L 972 2766 
Q 1103 2878 1323 2947 
Q 1544 3016 1772 3016 
Q 2334 3016 2642 2625 
Q 2950 2234 2950 1503 
Q 2950 756 2614 346 
Q 2278 -63 1644 -63 
Q 1291 -63 972 6 
Q 991 -219 991 -347 
L 991 -1141 
L 1503 -1216 
L 1503 -1363 
L 103 -1363 
L 103 -1216 
L 475 -1141 
L 475 2719 
z
M 2388 1503 
Q 2388 2103 2192 2395 
Q 1997 2688 1600 2688 
Q 1234 2688 991 2584 
L 991 238 
Q 1269 184 1600 184 
Q 2388 184 2388 1503 
z
" transform="scale(0.015625)"/>
      <path id="LiberationSerif-6e" d="M 1013 2700 
Q 1253 2838 1525 2927 
Q 1797 3016 1978 3016 
Q 2359 3016 2553 2794 
Q 2747 2572 2747 2150 
L 2747 219 
L 3103 141 
L 3103 0 
L 1838 0 
L 1838 141 
L 2228 219 
L 2228 2094 
Q 2228 2353 2101 2501 
Q 1975 2650 1709 2650 
Q 1428 2650 1019 2559 
L 1019 219 
L 1416 141 
L 1416 0 
L 147 0 
L 147 141 
L 500 219 
L 500 2719 
L 147 2797 
L 147 2938 
L 984 2938 
L 1013 2700 
z
" transform="scale(0.015625)"/>
     </defs>
     <use xlink:href="#LiberationSerif-31"/>
     <use xlink:href="#LiberationSerif-2e" transform="translate(50 0)"/>
     <use xlink:href="#LiberationSerif-20" transform="translate(75 0)"/>
     <use xlink:href="#LiberationSerif-41" transform="translate(94.5 0)"/>
     <use xlink:href="#LiberationSerif-64" transform="translate(166.716797 0)"/>
     <use xlink:href="#LiberationSerif-73" transform="translate(216.716797 0)"/>
     <use xlink:href="#LiberationSerif-6f" transform="translate(255.632812 0)"/>
     <use xlink:href="#LiberationSerif-72" transform="translate(305.632812 0)"/>
     <use xlink:href="#LiberationSerif-70" transform="translate(338.933594 0)"/>
     <use xlink:href="#LiberationSerif-74" transform="translate(388.933594 0)"/>
     <use xlink:href="#LiberationSerif-69" transform="translate(416.716797 0)"/>
     <use xlink:href="#LiberationSerif-6f" transform="translate(444.5 0)"/>
     <use xlink:href="#LiberationSerif-6e" transform="translate(494.5 0)"/>
    </g>
   </g>
  </g>
  <g id="axes_2">
   <g id="patch_19">
    <path d="M 157.59 108.134776 
C 159.674762 108.134776 161.674417 107.306491 163.148566 105.832342 
C 164.622715 104.358193 165.451 102.358538 165.451 100.273776 
C 165.451 98.189014 164.622715 96.189359 163.148566 94.71521 
C 161.674417 93.241061 159.674762 92.412776 157.59 92.412776 
C 155.505238 92.412776 153.505583 93.241061 152.031434 94.71521 
C 150.557285 96.189359 149.729 98.189014 149.729 100.273776 
C 149.729 102.358538 150.557285 104.358193 152.031434 105.832342 
C 153.505583 107.306491 155.505238 108.134776 157.59 108.134776 
z
" clip-path="url(#p1d9562ef48)" style="fill: #c9c8c1; stroke: #1f1f1e; stroke-width: 0.6; stroke-linejoin: miter"/>
   </g>
   <g id="patch_20">
    <path d="M 176.306667 108.134776 
C 178.391428 108.134776 180.391084 107.306491 181.865233 105.832342 
C 183.339382 104.358193 184.167667 102.358538 184.167667 100.273776 
C 184.167667 98.189014 183.339382 96.189359 181.865233 94.71521 
C 180.391084 93.241061 178.391428 92.412776 176.306667 92.412776 
C 174.221905 92.412776 172.222249 93.241061 170.7481 94.71521 
C 169.273951 96.189359 168.445667 98.189014 168.445667 100.273776 
C 168.445667 102.358538 169.273951 104.358193 170.7481 105.832342 
C 172.222249 107.306491 174.221905 108.134776 176.306667 108.134776 
z
" clip-path="url(#p1d9562ef48)" style="fill: #c9c8c1; stroke: #1f1f1e; stroke-width: 0.6; stroke-linejoin: miter"/>
   </g>
   <g id="patch_21">
    <path d="M 195.023333 108.134776 
C 197.108095 108.134776 199.107751 107.306491 200.5819 105.832342 
C 202.056049 104.358193 202.884333 102.358538 202.884333 100.273776 
C 202.884333 98.189014 202.056049 96.189359 200.5819 94.71521 
C 199.107751 93.241061 197.108095 92.412776 195.023333 92.412776 
C 192.938572 92.412776 190.938916 93.241061 189.464767 94.71521 
C 187.990618 96.189359 187.162333 98.189014 187.162333 100.273776 
C 187.162333 102.358538 187.990618 104.358193 189.464767 105.832342 
C 190.938916 107.306491 192.938572 108.134776 195.023333 108.134776 
z
" clip-path="url(#p1d9562ef48)" style="fill: #c9c8c1; stroke: #1f1f1e; stroke-width: 0.6; stroke-linejoin: miter"/>
   </g>
   <g id="patch_22">
    <path d="M 213.74 108.134776 
C 215.824762 108.134776 217.824417 107.306491 219.298566 105.832342 
C 220.772715 104.358193 221.601 102.358538 221.601 100.273776 
C 221.601 98.189014 220.772715 96.189359 219.298566 94.71521 
C 217.824417 93.241061 215.824762 92.412776 213.74 92.412776 
C 211.655238 92.412776 209.655583 93.241061 208.181434 94.71521 
C 206.707285 96.189359 205.879 98.189014 205.879 100.273776 
C 205.879 102.358538 206.707285 104.358193 208.181434 105.832342 
C 209.655583 107.306491 211.655238 108.134776 213.74 108.134776 
z
" clip-path="url(#p1d9562ef48)" style="fill: #c9c8c1; stroke: #1f1f1e; stroke-width: 0.6; stroke-linejoin: miter"/>
   </g>
   <g id="patch_23">
    <path d="M 232.456667 108.134776 
C 234.541428 108.134776 236.541084 107.306491 238.015233 105.832342 
C 239.489382 104.358193 240.317667 102.358538 240.317667 100.273776 
C 240.317667 98.189014 239.489382 96.189359 238.015233 94.71521 
C 236.541084 93.241061 234.541428 92.412776 232.456667 92.412776 
C 230.371905 92.412776 228.372249 93.241061 226.8981 94.71521 
C 225.423951 96.189359 224.595667 98.189014 224.595667 100.273776 
C 224.595667 102.358538 225.423951 104.358193 226.8981 105.832342 
C 228.372249 107.306491 230.371905 108.134776 232.456667 108.134776 
z
" clip-path="url(#p1d9562ef48)" style="fill: #c9c8c1; stroke: #1f1f1e; stroke-width: 0.6; stroke-linejoin: miter"/>
   </g>
   <g id="patch_24">
    <path d="M 251.173333 108.134776 
C 253.258095 108.134776 255.257751 107.306491 256.7319 105.832342 
C 258.206049 104.358193 259.034333 102.358538 259.034333 100.273776 
C 259.034333 98.189014 258.206049 96.189359 256.7319 94.71521 
C 255.257751 93.241061 253.258095 92.412776 251.173333 92.412776 
C 249.088572 92.412776 247.088916 93.241061 245.614767 94.71521 
C 244.140618 96.189359 243.312333 98.189014 243.312333 100.273776 
C 243.312333 102.358538 244.140618 104.358193 245.614767 105.832342 
C 247.088916 107.306491 249.088572 108.134776 251.173333 108.134776 
z
" clip-path="url(#p1d9562ef48)" style="fill: #c9c8c1; stroke: #1f1f1e; stroke-width: 0.6; stroke-linejoin: miter"/>
   </g>
   <g id="patch_25">
    <path d="M 269.89 108.134776 
C 271.974762 108.134776 273.974417 107.306491 275.448566 105.832342 
C 276.922715 104.358193 277.751 102.358538 277.751 100.273776 
C 277.751 98.189014 276.922715 96.189359 275.448566 94.71521 
C 273.974417 93.241061 271.974762 92.412776 269.89 92.412776 
C 267.805238 92.412776 265.805583 93.241061 264.331434 94.71521 
C 262.857285 96.189359 262.029 98.189014 262.029 100.273776 
C 262.029 102.358538 262.857285 104.358193 264.331434 105.832342 
C 265.805583 107.306491 267.805238 108.134776 269.89 108.134776 
z
" clip-path="url(#p1d9562ef48)" style="fill: #c9c8c1; stroke: #1f1f1e; stroke-width: 0.6; stroke-linejoin: miter"/>
   </g>
   <g id="line2d_8">
    <path d="M 157.59 92.225609 
L 157.59 89.418109 
" clip-path="url(#p1d9562ef48)" style="fill: none; stroke-dasharray: 1.2,1.98; stroke-dashoffset: 0; stroke: #1f1f1e; stroke-width: 1.2"/>
   </g>
   <g id="line2d_9">
    <path d="M 176.306667 92.225609 
L 176.306667 89.418109 
" clip-path="url(#p1d9562ef48)" style="fill: none; stroke-dasharray: 1.2,1.98; stroke-dashoffset: 0; stroke: #1f1f1e; stroke-width: 1.2"/>
   </g>
   <g id="line2d_10">
    <path d="M 213.74 79.685443 
L 232.456667 79.685443 
" clip-path="url(#p1d9562ef48)" style="fill: none; stroke: #1f1f1e; stroke-width: 1.2; stroke-linecap: square"/>
   </g>
   <g id="line2d_11">
    <path d="M 213.74 92.412776 
L 213.74 84.926109 
" clip-path="url(#p1d9562ef48)" style="fill: none; stroke-dasharray: 1.2,1.98; stroke-dashoffset: 0; stroke: #1f1f1e; stroke-width: 1.2"/>
   </g>
   <g id="line2d_12">
    <path d="M 232.456667 92.412776 
L 232.456667 84.926109 
" clip-path="url(#p1d9562ef48)" style="fill: none; stroke-dasharray: 1.2,1.98; stroke-dashoffset: 0; stroke: #1f1f1e; stroke-width: 1.2"/>
   </g>
   <g id="line2d_13">
    <path d="M 213.74 79.685443 
L 204.381667 68.455443 
" clip-path="url(#p1d9562ef48)" style="fill: none; stroke: #1f1f1e; stroke-width: 1.2; stroke-linecap: square"/>
   </g>
   <g id="line2d_14">
    <path d="M 213.74 79.685443 
L 215.611667 66.583776 
" clip-path="url(#p1d9562ef48)" style="fill: none; stroke: #1f1f1e; stroke-width: 1.2; stroke-linecap: square"/>
   </g>
   <g id="line2d_15">
    <path d="M 232.456667 79.685443 
L 230.585 66.583776 
" clip-path="url(#p1d9562ef48)" style="fill: none; stroke: #1f1f1e; stroke-width: 1.2; stroke-linecap: square"/>
   </g>
   <g id="line2d_16">
    <path d="M 232.456667 79.685443 
L 241.815 68.455443 
" clip-path="url(#p1d9562ef48)" style="fill: none; stroke: #1f1f1e; stroke-width: 1.2; stroke-linecap: square"/>
   </g>
   <g id="text_3">
    <!-- Ni catalyst surface -->
    <g style="fill: #6b6a64" transform="translate(182.114687 116.182943) scale(0.085 -0.085)">
     <use xlink:href="#LiberationSerif-4e"/>
     <use xlink:href="#LiberationSerif-69" transform="translate(72.216797 0)"/>
     <use xlink:href="#LiberationSerif-20" transform="translate(100 0)"/>
     <use xlink:href="#LiberationSerif-63" transform="translate(125 0)"/>
     <use xlink:href="#LiberationSerif-61" transform="translate(169.384766 0)"/>
     <use xlink:href="#LiberationSerif-74" transform="translate(213.769531 0)"/>
     <use xlink:href="#LiberationSerif-61" transform="translate(241.552734 0)"/>
     <use xlink:href="#LiberationSerif-6c" transform="translate(285.9375 0)"/>
     <use xlink:href="#LiberationSerif-79" transform="translate(313.720703 0)"/>
     <use xlink:href="#LiberationSerif-73" transform="translate(363.720703 0)"/>
     <use xlink:href="#LiberationSerif-74" transform="translate(402.636719 0)"/>
     <use xlink:href="#LiberationSerif-20" transform="translate(430.419922 0)"/>
     <use xlink:href="#LiberationSerif-73" transform="translate(455.419922 0)"/>
     <use xlink:href="#LiberationSerif-75" transform="translate(494.335938 0)"/>
     <use xlink:href="#LiberationSerif-72" transform="translate(544.335938 0)"/>
     <use xlink:href="#LiberationSerif-66" transform="translate(577.636719 0)"/>
     <use xlink:href="#LiberationSerif-61" transform="translate(610.9375 0)"/>
     <use xlink:href="#LiberationSerif-63" transform="translate(655.322266 0)"/>
     <use xlink:href="#LiberationSerif-65" transform="translate(699.707031 0)"/>
    </g>
   </g>
   <g id="patch_26">
    <path d="M 157.59 89.418109 
C 158.433832 89.418109 159.243217 89.082851 159.839896 88.486172 
C 160.436575 87.889493 160.771833 87.080108 160.771833 86.236276 
C 160.771833 85.392444 160.436575 84.583059 159.839896 83.98638 
C 159.243217 83.389701 158.433832 83.054443 157.59 83.054443 
C 156.746168 83.054443 155.936783 83.389701 155.340104 83.98638 
C 154.743425 84.583059 154.408167 85.392444 154.408167 86.236276 
C 154.408167 87.080108 154.743425 87.889493 155.340104 88.486172 
C 155.936783 89.082851 156.746168 89.418109 157.59 89.418109 
z
" clip-path="url(#p1d9562ef48)" style="fill: #ffffff; stroke: #1f1f1e; stroke-width: 0.8; stroke-linejoin: miter"/>
   </g>
   <g id="patch_27">
    <path d="M 176.306667 89.418109 
C 177.150499 89.418109 177.959883 89.082851 178.556563 88.486172 
C 179.153242 87.889493 179.4885 87.080108 179.4885 86.236276 
C 179.4885 85.392444 179.153242 84.583059 178.556563 83.98638 
C 177.959883 83.389701 177.150499 83.054443 176.306667 83.054443 
C 175.462835 83.054443 174.65345 83.389701 174.056771 83.98638 
C 173.460091 84.583059 173.124833 85.392444 173.124833 86.236276 
C 173.124833 87.080108 173.460091 87.889493 174.056771 88.486172 
C 174.65345 89.082851 175.462835 89.418109 176.306667 89.418109 
z
" clip-path="url(#p1d9562ef48)" style="fill: #ffffff; stroke: #1f1f1e; stroke-width: 0.8; stroke-linejoin: miter"/>
   </g>
   <g id="patch_28">
    <path d="M 204.381667 71.637276 
C 205.225499 71.637276 206.034883 71.302018 206.631563 70.705339 
C 207.228242 70.108659 207.5635 69.299275 207.5635 68.455443 
C 207.5635 67.611611 207.228242 66.802226 206.631563 66.205547 
C 206.034883 65.608867 205.225499 65.273609 204.381667 65.273609 
C 203.537835 65.273609 202.72845 65.608867 202.131771 66.205547 
C 201.535091 66.802226 201.199833 67.611611 201.199833 68.455443 
C 201.199833 69.299275 201.535091 70.108659 202.131771 70.705339 
C 202.72845 71.302018 203.537835 71.637276 204.381667 71.637276 
z
" clip-path="url(#p1d9562ef48)" style="fill: #ffffff; stroke: #1f1f1e; stroke-width: 0.8; stroke-linejoin: miter"/>
   </g>
   <g id="patch_29">
    <path d="M 215.611667 69.765609 
C 216.455499 69.765609 217.264883 69.430351 217.861563 68.833672 
C 218.458242 68.236993 218.7935 67.427608 218.7935 66.583776 
C 218.7935 65.739944 218.458242 64.930559 217.861563 64.33388 
C 217.264883 63.737201 216.455499 63.401943 215.611667 63.401943 
C 214.767835 63.401943 213.95845 63.737201 213.361771 64.33388 
C 212.765091 64.930559 212.429833 65.739944 212.429833 66.583776 
C 212.429833 67.427608 212.765091 68.236993 213.361771 68.833672 
C 213.95845 69.430351 214.767835 69.765609 215.611667 69.765609 
z
" clip-path="url(#p1d9562ef48)" style="fill: #ffffff; stroke: #1f1f1e; stroke-width: 0.8; stroke-linejoin: miter"/>
   </g>
   <g id="patch_30">
    <path d="M 230.585 69.765609 
C 231.428832 69.765609 232.238217 69.430351 232.834896 68.833672 
C 233.431575 68.236993 233.766833 67.427608 233.766833 66.583776 
C 233.766833 65.739944 233.431575 64.930559 232.834896 64.33388 
C 232.238217 63.737201 231.428832 63.401943 230.585 63.401943 
C 229.741168 63.401943 228.931783 63.737201 228.335104 64.33388 
C 227.738425 64.930559 227.403167 65.739944 227.403167 66.583776 
C 227.403167 67.427608 227.738425 68.236993 228.335104 68.833672 
C 228.931783 69.430351 229.741168 69.765609 230.585 69.765609 
z
" clip-path="url(#p1d9562ef48)" style="fill: #ffffff; stroke: #1f1f1e; stroke-width: 0.8; stroke-linejoin: miter"/>
   </g>
   <g id="patch_31">
    <path d="M 241.815 71.637276 
C 242.658832 71.637276 243.468217 71.302018 244.064896 70.705339 
C 244.661575 70.108659 244.996833 69.299275 244.996833 68.455443 
C 244.996833 67.611611 244.661575 66.802226 244.064896 66.205547 
C 243.468217 65.608867 242.658832 65.273609 241.815 65.273609 
C 240.971168 65.273609 240.161783 65.608867 239.565104 66.205547 
C 238.968425 66.802226 238.633167 67.611611 238.633167 68.455443 
C 238.633167 69.299275 238.968425 70.108659 239.565104 70.705339 
C 240.161783 71.302018 240.971168 71.637276 241.815 71.637276 
z
" clip-path="url(#p1d9562ef48)" style="fill: #ffffff; stroke: #1f1f1e; stroke-width: 0.8; stroke-linejoin: miter"/>
   </g>
   <g id="patch_32">
    <path d="M 213.74 84.926109 
C 215.129841 84.926109 216.462945 84.37392 217.445711 83.391154 
C 218.428477 82.408388 218.980667 81.075284 218.980667 79.685443 
C 218.980667 78.295602 218.428477 76.962498 217.445711 75.979732 
C 216.462945 74.996966 215.129841 74.444776 213.74 74.444776 
C 212.350159 74.444776 211.017055 74.996966 210.034289 75.979732 
C 209.051523 76.962498 208.499333 78.295602 208.499333 79.685443 
C 208.499333 81.075284 209.051523 82.408388 210.034289 83.391154 
C 211.017055 84.37392 212.350159 84.926109 213.74 84.926109 
z
" clip-path="url(#p1d9562ef48)" style="fill: #3a3a38; stroke: #1f1f1e; stroke-width: 0.6; stroke-linejoin: miter"/>
   </g>
   <g id="patch_33">
    <path d="M 232.456667 84.926109 
C 233.846508 84.926109 235.179612 84.37392 236.162378 83.391154 
C 237.145144 82.408388 237.697333 81.075284 237.697333 79.685443 
C 237.697333 78.295602 237.145144 76.962498 236.162378 75.979732 
C 235.179612 74.996966 233.846508 74.444776 232.456667 74.444776 
C 231.066826 74.444776 229.733722 74.996966 228.750956 75.979732 
C 227.76819 76.962498 227.216 78.295602 227.216 79.685443 
C 227.216 81.075284 227.76819 82.408388 228.750956 83.391154 
C 229.733722 84.37392 231.066826 84.926109 232.456667 84.926109 
z
" clip-path="url(#p1d9562ef48)" style="fill: #3a3a38; stroke: #1f1f1e; stroke-width: 0.6; stroke-linejoin: miter"/>
   </g>
   <g id="text_4">
    <!-- H–H and C=C π bond -->
    <g style="fill: #6b6a64" transform="translate(179.454734 35.298205) scale(0.078 -0.078)">
     <defs>
      <path id="LiberationSerif-48" d="M 184 0 
L 184 166 
L 722 250 
L 722 3944 
L 184 4025 
L 184 4191 
L 1863 4191 
L 1863 4025 
L 1325 3944 
L 1325 2297 
L 3297 2297 
L 3297 3944 
L 2759 4025 
L 2759 4191 
L 4434 4191 
L 4434 4025 
L 3897 3944 
L 3897 250 
L 4434 166 
L 4434 0 
L 2759 0 
L 2759 166 
L 3297 250 
L 3297 2016 
L 1325 2016 
L 1325 250 
L 1863 166 
L 1863 0 
L 184 0 
z
" transform="scale(0.015625)"/>
      <path id="LiberationSerif-2013" d="M 3244 1650 
L 3244 1331 
L -44 1331 
L -44 1650 
L 3244 1650 
z
" transform="scale(0.015625)"/>
      <path id="LiberationSerif-43" d="M 2419 -63 
Q 1400 -63 831 492 
Q 263 1047 263 2047 
Q 263 3128 809 3683 
Q 1356 4238 2431 4238 
Q 3084 4238 3834 4078 
L 3853 3163 
L 3647 3163 
L 3553 3706 
Q 3334 3841 3045 3914 
Q 2756 3988 2456 3988 
Q 1653 3988 1284 3516 
Q 916 3044 916 2053 
Q 916 1141 1302 659 
Q 1688 178 2425 178 
Q 2781 178 3097 264 
Q 3413 350 3597 494 
L 3713 1119 
L 3916 1119 
L 3897 134 
Q 3209 -63 2419 -63 
z
" transform="scale(0.015625)"/>
      <path id="LiberationSerif-3d" d="M 3297 1644 
L 3297 1325 
L 319 1325 
L 319 1644 
L 3297 1644 
z
M 3297 2925 
L 3297 2606 
L 319 2606 
L 319 2925 
L 3297 2925 
z
" transform="scale(0.015625)"/>
      <path id="LiberationSerif-3c0" d="M 1134 2675 
Q 975 697 942 414 
Q 909 131 875 0 
L 303 0 
L 303 141 
Q 466 309 533 436 
Q 600 563 639 741 
Q 678 919 703 1200 
L 834 2675 
L 416 2675 
L 266 2275 
L 88 2275 
L 153 2938 
L 3134 2938 
L 3134 2675 
L 2547 2675 
L 2547 669 
Q 2547 466 2622 364 
Q 2697 263 2816 263 
Q 2906 263 3072 313 
L 3072 109 
Q 2997 47 2865 -8 
Q 2734 -63 2584 -63 
Q 2028 -63 2028 616 
L 2028 2675 
L 1134 2675 
z
" transform="scale(0.015625)"/>
      <path id="LiberationSerif-62" d="M 2394 1550 
Q 2394 2125 2194 2406 
Q 1994 2688 1575 2688 
Q 1391 2688 1209 2655 
Q 1028 2622 947 2584 
L 947 256 
Q 1209 206 1575 206 
Q 2006 206 2200 543 
Q 2394 881 2394 1550 
z
M 428 4225 
L 0 4300 
L 0 4441 
L 947 4441 
L 947 3391 
Q 947 3222 928 2772 
Q 1241 3016 1716 3016 
Q 2316 3016 2636 2652 
Q 2956 2288 2956 1550 
Q 2956 759 2604 348 
Q 2253 -63 1588 -63 
Q 1319 -63 995 -3 
Q 672 56 428 153 
L 428 4225 
z
" transform="scale(0.015625)"/>
     </defs>
     <use xlink:href="#LiberationSerif-48"/>
     <use xlink:href="#LiberationSerif-2013" transform="translate(72.216797 0)"/>
     <use xlink:href="#LiberationSerif-48" transform="translate(122.216797 0)"/>
     <use xlink:href="#LiberationSerif-20" transform="translate(194.433594 0)"/>
     <use xlink:href="#LiberationSerif-61" transform="translate(219.433594 0)"/>
     <use xlink:href="#LiberationSerif-6e" transform="translate(263.818359 0)"/>
     <use xlink:href="#LiberationSerif-64" transform="translate(313.818359 0)"/>
     <use xlink:href="#LiberationSerif-20" transform="translate(363.818359 0)"/>
     <use xlink:href="#LiberationSerif-43" transform="translate(388.818359 0)"/>
     <use xlink:href="#LiberationSerif-3d" transform="translate(455.517578 0)"/>
     <use xlink:href="#LiberationSerif-43" transform="translate(511.914062 0)"/>
     <use xlink:href="#LiberationSerif-20" transform="translate(578.613281 0)"/>
     <use xlink:href="#LiberationSerif-3c0" transform="translate(603.613281 0)"/>
     <use xlink:href="#LiberationSerif-20" transform="translate(654.101562 0)"/>
     <use xlink:href="#LiberationSerif-62" transform="translate(679.101562 0)"/>
     <use xlink:href="#LiberationSerif-6f" transform="translate(729.101562 0)"/>
     <use xlink:href="#LiberationSerif-6e" transform="translate(779.101562 0)"/>
     <use xlink:href="#LiberationSerif-64" transform="translate(829.101562 0)"/>
    </g>
    <!-- broken; new bonds -->
    <g style="fill: #6b6a64" transform="translate(184.061 43.454324) scale(0.078 -0.078)">
     <defs>
      <path id="LiberationSerif-6b" d="M 1075 1416 
L 2278 2713 
L 1972 2797 
L 1972 2938 
L 3009 2938 
L 3009 2797 
L 2644 2725 
L 1806 1869 
L 2881 213 
L 3200 141 
L 3200 0 
L 1997 0 
L 1997 141 
L 2266 219 
L 1459 1484 
L 1075 1063 
L 1075 219 
L 1388 141 
L 1388 0 
L 184 0 
L 184 141 
L 556 219 
L 556 4225 
L 122 4300 
L 122 4441 
L 1075 4441 
L 1075 1416 
z
" transform="scale(0.015625)"/>
      <path id="LiberationSerif-3b" d="M 1259 2625 
Q 1259 2466 1150 2356 
Q 1041 2247 884 2247 
Q 725 2247 615 2356 
Q 506 2466 506 2625 
Q 506 2778 614 2890 
Q 722 3003 884 3003 
Q 1044 3003 1151 2890 
Q 1259 2778 1259 2625 
z
M 1288 153 
Q 1288 -275 1039 -564 
Q 791 -853 331 -984 
L 331 -744 
Q 884 -569 884 -219 
Q 884 -153 834 -103 
Q 784 -53 672 3 
Q 459 109 459 313 
Q 459 481 567 570 
Q 675 659 838 659 
Q 1038 659 1163 517 
Q 1288 375 1288 153 
z
" transform="scale(0.015625)"/>
      <path id="LiberationSerif-77" d="M 3284 -63 
L 3041 -63 
L 2316 1875 
L 1600 -63 
L 1369 -63 
L 353 2719 
L 6 2797 
L 6 2938 
L 1403 2938 
L 1403 2797 
L 916 2713 
L 1613 728 
L 2322 2644 
L 2584 2644 
L 3291 716 
L 3956 2719 
L 3475 2797 
L 3475 2938 
L 4594 2938 
L 4594 2797 
L 4269 2731 
L 3284 -63 
z
" transform="scale(0.015625)"/>
     </defs>
     <use xlink:href="#LiberationSerif-62"/>
     <use xlink:href="#LiberationSerif-72" transform="translate(50 0)"/>
     <use xlink:href="#LiberationSerif-6f" transform="translate(83.300781 0)"/>
     <use xlink:href="#LiberationSerif-6b" transform="translate(133.300781 0)"/>
     <use xlink:href="#LiberationSerif-65" transform="translate(183.300781 0)"/>
     <use xlink:href="#LiberationSerif-6e" transform="translate(227.685547 0)"/>
     <use xlink:href="#LiberationSerif-3b" transform="translate(277.685547 0)"/>
     <use xlink:href="#LiberationSerif-20" transform="translate(305.46875 0)"/>
     <use xlink:href="#LiberationSerif-6e" transform="translate(330.46875 0)"/>
     <use xlink:href="#LiberationSerif-65" transform="translate(380.46875 0)"/>
     <use xlink:href="#LiberationSerif-77" transform="translate(424.853516 0)"/>
     <use xlink:href="#LiberationSerif-20" transform="translate(497.070312 0)"/>
     <use xlink:href="#LiberationSerif-62" transform="translate(522.070312 0)"/>
     <use xlink:href="#LiberationSerif-6f" transform="translate(572.070312 0)"/>
     <use xlink:href="#LiberationSerif-6e" transform="translate(622.070312 0)"/>
     <use xlink:href="#LiberationSerif-64" transform="translate(672.070312 0)"/>
     <use xlink:href="#LiberationSerif-73" transform="translate(722.070312 0)"/>
    </g>
    <!-- to Ni -->
    <g style="fill: #6b6a64" transform="translate(205.831531 51.610443) scale(0.078 -0.078)">
     <use xlink:href="#LiberationSerif-74"/>
     <use xlink:href="#LiberationSerif-6f" transform="translate(27.783203 0)"/>
     <use xlink:href="#LiberationSerif-20" transform="translate(77.783203 0)"/>
     <use xlink:href="#LiberationSerif-4e" transform="translate(102.783203 0)"/>
     <use xlink:href="#LiberationSerif-69" transform="translate(175 0)"/>
    </g>
   </g>
   <g id="text_5">
    <!-- 2. Bonds weakened -->
    <g transform="translate(176.670703 13.792109) scale(0.095 -0.095)">
     <defs>
      <path id="LiberationSerif-32" d="M 2847 0 
L 281 0 
L 281 459 
L 863 988 
Q 1422 1478 1684 1781 
Q 1947 2084 2061 2406 
Q 2175 2728 2175 3144 
Q 2175 3550 1990 3762 
Q 1806 3975 1388 3975 
Q 1222 3975 1047 3929 
Q 872 3884 738 3809 
L 628 3297 
L 422 3297 
L 422 4103 
Q 991 4238 1388 4238 
Q 2075 4238 2420 3952 
Q 2766 3666 2766 3144 
Q 2766 2794 2630 2483 
Q 2494 2172 2212 1864 
Q 1931 1556 1281 1003 
Q 1003 766 691 481 
L 2847 481 
L 2847 0 
z
" transform="scale(0.015625)"/>
      <path id="LiberationSerif-42" d="M 2994 3175 
Q 2994 3559 2753 3734 
Q 2513 3909 1972 3909 
L 1325 3909 
L 1325 2325 
L 2009 2325 
Q 2516 2325 2755 2525 
Q 2994 2725 2994 3175 
z
M 3309 1194 
Q 3309 1634 3015 1839 
Q 2722 2044 2075 2044 
L 1325 2044 
L 1325 281 
Q 1756 263 2244 263 
Q 2778 263 3043 489 
Q 3309 716 3309 1194 
z
M 184 0 
L 184 166 
L 722 250 
L 722 3944 
L 184 4025 
L 184 4191 
L 2100 4191 
Q 2897 4191 3265 3955 
Q 3634 3719 3634 3206 
Q 3634 2838 3407 2578 
Q 3181 2319 2772 2231 
Q 3338 2172 3647 1901 
Q 3956 1631 3956 1206 
Q 3956 603 3539 292 
Q 3122 -19 2322 -19 
L 984 0 
L 184 0 
z
" transform="scale(0.015625)"/>
     </defs>
     <use xlink:href="#LiberationSerif-32"/>
     <use xlink:href="#LiberationSerif-2e" transform="translate(50 0)"/>
     <use xlink:href="#LiberationSerif-20" transform="translate(75 0)"/>
     <use xlink:href="#LiberationSerif-42" transform="translate(100 0)"/>
     <use xlink:href="#LiberationSerif-6f" transform="translate(166.699219 0)"/>
     <use xlink:href="#LiberationSerif-6e" transform="translate(216.699219 0)"/>
     <use xlink:href="#LiberationSerif-64" transform="translate(266.699219 0)"/>
     <use xlink:href="#LiberationSerif-73" transform="translate(316.699219 0)"/>
     <use xlink:href="#LiberationSerif-20" transform="translate(355.615234 0)"/>
     <use xlink:href="#LiberationSerif-77" transform="translate(380.615234 0)"/>
     <use xlink:href="#LiberationSerif-65" transform="translate(452.832031 0)"/>
     <use xlink:href="#LiberationSerif-61" transform="translate(497.216797 0)"/>
     <use xlink:href="#LiberationSerif-6b" transform="translate(541.601562 0)"/>
     <use xlink:href="#LiberationSerif-65" transform="translate(591.601562 0)"/>
     <use xlink:href="#LiberationSerif-6e" transform="translate(635.986328 0)"/>
     <use xlink:href="#LiberationSerif-65" transform="translate(685.986328 0)"/>
     <use xlink:href="#LiberationSerif-64" transform="translate(730.371094 0)"/>
    </g>
   </g>
  </g>
  <g id="axes_3">
   <g id="patch_34">
    <path d="M 296.75 108.134776 
C 298.834762 108.134776 300.834417 107.306491 302.308566 105.832342 
C 303.782715 104.358193 304.611 102.358538 304.611 100.273776 
C 304.611 98.189014 303.782715 96.189359 302.308566 94.71521 
C 300.834417 93.241061 298.834762 92.412776 296.75 92.412776 
C 294.665238 92.412776 292.665583 93.241061 291.191434 94.71521 
C 289.717285 96.189359 288.889 98.189014 288.889 100.273776 
C 288.889 102.358538 289.717285 104.358193 291.191434 105.832342 
C 292.665583 107.306491 294.665238 108.134776 296.75 108.134776 
z
" clip-path="url(#p44797198f0)" style="fill: #c9c8c1; stroke: #1f1f1e; stroke-width: 0.6; stroke-linejoin: miter"/>
   </g>
   <g id="patch_35">
    <path d="M 315.466667 108.134776 
C 317.551428 108.134776 319.551084 107.306491 321.025233 105.832342 
C 322.499382 104.358193 323.327667 102.358538 323.327667 100.273776 
C 323.327667 98.189014 322.499382 96.189359 321.025233 94.71521 
C 319.551084 93.241061 317.551428 92.412776 315.466667 92.412776 
C 313.381905 92.412776 311.382249 93.241061 309.9081 94.71521 
C 308.433951 96.189359 307.605667 98.189014 307.605667 100.273776 
C 307.605667 102.358538 308.433951 104.358193 309.9081 105.832342 
C 311.382249 107.306491 313.381905 108.134776 315.466667 108.134776 
z
" clip-path="url(#p44797198f0)" style="fill: #c9c8c1; stroke: #1f1f1e; stroke-width: 0.6; stroke-linejoin: miter"/>
   </g>
   <g id="patch_36">
    <path d="M 334.183333 108.134776 
C 336.268095 108.134776 338.267751 107.306491 339.7419 105.832342 
C 341.216049 104.358193 342.044333 102.358538 342.044333 100.273776 
C 342.044333 98.189014 341.216049 96.189359 339.7419 94.71521 
C 338.267751 93.241061 336.268095 92.412776 334.183333 92.412776 
C 332.098572 92.412776 330.098916 93.241061 328.624767 94.71521 
C 327.150618 96.189359 326.322333 98.189014 326.322333 100.273776 
C 326.322333 102.358538 327.150618 104.358193 328.624767 105.832342 
C 330.098916 107.306491 332.098572 108.134776 334.183333 108.134776 
z
" clip-path="url(#p44797198f0)" style="fill: #c9c8c1; stroke: #1f1f1e; stroke-width: 0.6; stroke-linejoin: miter"/>
   </g>
   <g id="patch_37">
    <path d="M 352.9 108.134776 
C 354.984762 108.134776 356.984417 107.306491 358.458566 105.832342 
C 359.932715 104.358193 360.761 102.358538 360.761 100.273776 
C 360.761 98.189014 359.932715 96.189359 358.458566 94.71521 
C 356.984417 93.241061 354.984762 92.412776 352.9 92.412776 
C 350.815238 92.412776 348.815583 93.241061 347.341434 94.71521 
C 345.867285 96.189359 345.039 98.189014 345.039 100.273776 
C 345.039 102.358538 345.867285 104.358193 347.341434 105.832342 
C 348.815583 107.306491 350.815238 108.134776 352.9 108.134776 
z
" clip-path="url(#p44797198f0)" style="fill: #c9c8c1; stroke: #1f1f1e; stroke-width: 0.6; stroke-linejoin: miter"/>
   </g>
   <g id="patch_38">
    <path d="M 371.616667 108.134776 
C 373.701428 108.134776 375.701084 107.306491 377.175233 105.832342 
C 378.649382 104.358193 379.477667 102.358538 379.477667 100.273776 
C 379.477667 98.189014 378.649382 96.189359 377.175233 94.71521 
C 375.701084 93.241061 373.701428 92.412776 371.616667 92.412776 
C 369.531905 92.412776 367.532249 93.241061 366.0581 94.71521 
C 364.583951 96.189359 363.755667 98.189014 363.755667 100.273776 
C 363.755667 102.358538 364.583951 104.358193 366.0581 105.832342 
C 367.532249 107.306491 369.531905 108.134776 371.616667 108.134776 
z
" clip-path="url(#p44797198f0)" style="fill: #c9c8c1; stroke: #1f1f1e; stroke-width: 0.6; stroke-linejoin: miter"/>
   </g>
   <g id="patch_39">
    <path d="M 390.333333 108.134776 
C 392.418095 108.134776 394.417751 107.306491 395.8919 105.832342 
C 397.366049 104.358193 398.194333 102.358538 398.194333 100.273776 
C 398.194333 98.189014 397.366049 96.189359 395.8919 94.71521 
C 394.417751 93.241061 392.418095 92.412776 390.333333 92.412776 
C 388.248572 92.412776 386.248916 93.241061 384.774767 94.71521 
C 383.300618 96.189359 382.472333 98.189014 382.472333 100.273776 
C 382.472333 102.358538 383.300618 104.358193 384.774767 105.832342 
C 386.248916 107.306491 388.248572 108.134776 390.333333 108.134776 
z
" clip-path="url(#p44797198f0)" style="fill: #c9c8c1; stroke: #1f1f1e; stroke-width: 0.6; stroke-linejoin: miter"/>
   </g>
   <g id="patch_40">
    <path d="M 409.05 108.134776 
C 411.134762 108.134776 413.134417 107.306491 414.608566 105.832342 
C 416.082715 104.358193 416.911 102.358538 416.911 100.273776 
C 416.911 98.189014 416.082715 96.189359 414.608566 94.71521 
C 413.134417 93.241061 411.134762 92.412776 409.05 92.412776 
C 406.965238 92.412776 404.965583 93.241061 403.491434 94.71521 
C 402.017285 96.189359 401.189 98.189014 401.189 100.273776 
C 401.189 102.358538 402.017285 104.358193 403.491434 105.832342 
C 404.965583 107.306491 406.965238 108.134776 409.05 108.134776 
z
" clip-path="url(#p44797198f0)" style="fill: #c9c8c1; stroke: #1f1f1e; stroke-width: 0.6; stroke-linejoin: miter"/>
   </g>
   <g id="line2d_17">
    <path d="M 315.466667 92.225609 
L 315.466667 89.418109 
" clip-path="url(#p44797198f0)" style="fill: none; stroke-dasharray: 1.2,1.98; stroke-dashoffset: 0; stroke: #1f1f1e; stroke-width: 1.2"/>
   </g>
   <g id="line2d_18">
    <path d="M 352.9 79.685443 
L 371.616667 77.813776 
" clip-path="url(#p44797198f0)" style="fill: none; stroke: #1f1f1e; stroke-width: 1.2; stroke-linecap: square"/>
   </g>
   <g id="line2d_19">
    <path d="M 352.9 92.412776 
L 352.9 84.926109 
" clip-path="url(#p44797198f0)" style="fill: none; stroke-dasharray: 1.2,1.98; stroke-dashoffset: 0; stroke: #1f1f1e; stroke-width: 1.2"/>
   </g>
   <g id="line2d_20">
    <path d="M 352.9 79.685443 
L 343.541667 68.455443 
" clip-path="url(#p44797198f0)" style="fill: none; stroke: #1f1f1e; stroke-width: 1.2; stroke-linecap: square"/>
   </g>
   <g id="line2d_21">
    <path d="M 352.9 79.685443 
L 354.771667 66.583776 
" clip-path="url(#p44797198f0)" style="fill: none; stroke: #1f1f1e; stroke-width: 1.2; stroke-linecap: square"/>
   </g>
   <g id="line2d_22">
    <path d="M 371.616667 77.813776 
L 367.873333 64.712109 
" clip-path="url(#p44797198f0)" style="fill: none; stroke: #1f1f1e; stroke-width: 1.2; stroke-linecap: square"/>
   </g>
   <g id="line2d_23">
    <path d="M 371.616667 77.813776 
L 382.846667 67.519609 
" clip-path="url(#p44797198f0)" style="fill: none; stroke: #1f1f1e; stroke-width: 1.2; stroke-linecap: square"/>
   </g>
   <g id="line2d_24">
    <path d="M 371.616667 77.813776 
L 380.975 87.172109 
" clip-path="url(#p44797198f0)" style="fill: none; stroke: #1f1f1e; stroke-width: 1.2; stroke-linecap: square"/>
   </g>
   <g id="text_6">
    <!-- Ni catalyst surface -->
    <g style="fill: #6b6a64" transform="translate(321.274687 116.182943) scale(0.085 -0.085)">
     <use xlink:href="#LiberationSerif-4e"/>
     <use xlink:href="#LiberationSerif-69" transform="translate(72.216797 0)"/>
     <use xlink:href="#LiberationSerif-20" transform="translate(100 0)"/>
     <use xlink:href="#LiberationSerif-63" transform="translate(125 0)"/>
     <use xlink:href="#LiberationSerif-61" transform="translate(169.384766 0)"/>
     <use xlink:href="#LiberationSerif-74" transform="translate(213.769531 0)"/>
     <use xlink:href="#LiberationSerif-61" transform="translate(241.552734 0)"/>
     <use xlink:href="#LiberationSerif-6c" transform="translate(285.9375 0)"/>
     <use xlink:href="#LiberationSerif-79" transform="translate(313.720703 0)"/>
     <use xlink:href="#LiberationSerif-73" transform="translate(363.720703 0)"/>
     <use xlink:href="#LiberationSerif-74" transform="translate(402.636719 0)"/>
     <use xlink:href="#LiberationSerif-20" transform="translate(430.419922 0)"/>
     <use xlink:href="#LiberationSerif-73" transform="translate(455.419922 0)"/>
     <use xlink:href="#LiberationSerif-75" transform="translate(494.335938 0)"/>
     <use xlink:href="#LiberationSerif-72" transform="translate(544.335938 0)"/>
     <use xlink:href="#LiberationSerif-66" transform="translate(577.636719 0)"/>
     <use xlink:href="#LiberationSerif-61" transform="translate(610.9375 0)"/>
     <use xlink:href="#LiberationSerif-63" transform="translate(655.322266 0)"/>
     <use xlink:href="#LiberationSerif-65" transform="translate(699.707031 0)"/>
    </g>
   </g>
   <g id="patch_41">
    <path d="M 315.466667 89.418109 
C 316.310499 89.418109 317.119883 89.082851 317.716563 88.486172 
C 318.313242 87.889493 318.6485 87.080108 318.6485 86.236276 
C 318.6485 85.392444 318.313242 84.583059 317.716563 83.98638 
C 317.119883 83.389701 316.310499 83.054443 315.466667 83.054443 
C 314.622835 83.054443 313.81345 83.389701 313.216771 83.98638 
C 312.620091 84.583059 312.284833 85.392444 312.284833 86.236276 
C 312.284833 87.080108 312.620091 87.889493 313.216771 88.486172 
C 313.81345 89.082851 314.622835 89.418109 315.466667 89.418109 
z
" clip-path="url(#p44797198f0)" style="fill: #ffffff; stroke: #1f1f1e; stroke-width: 0.8; stroke-linejoin: miter"/>
   </g>
   <g id="patch_42">
    <path d="M 343.541667 71.637276 
C 344.385499 71.637276 345.194883 71.302018 345.791563 70.705339 
C 346.388242 70.108659 346.7235 69.299275 346.7235 68.455443 
C 346.7235 67.611611 346.388242 66.802226 345.791563 66.205547 
C 345.194883 65.608867 344.385499 65.273609 343.541667 65.273609 
C 342.697835 65.273609 341.88845 65.608867 341.291771 66.205547 
C 340.695091 66.802226 340.359833 67.611611 340.359833 68.455443 
C 340.359833 69.299275 340.695091 70.108659 341.291771 70.705339 
C 341.88845 71.302018 342.697835 71.637276 343.541667 71.637276 
z
" clip-path="url(#p44797198f0)" style="fill: #ffffff; stroke: #1f1f1e; stroke-width: 0.8; stroke-linejoin: miter"/>
   </g>
   <g id="patch_43">
    <path d="M 354.771667 69.765609 
C 355.615499 69.765609 356.424883 69.430351 357.021563 68.833672 
C 357.618242 68.236993 357.9535 67.427608 357.9535 66.583776 
C 357.9535 65.739944 357.618242 64.930559 357.021563 64.33388 
C 356.424883 63.737201 355.615499 63.401943 354.771667 63.401943 
C 353.927835 63.401943 353.11845 63.737201 352.521771 64.33388 
C 351.925091 64.930559 351.589833 65.739944 351.589833 66.583776 
C 351.589833 67.427608 351.925091 68.236993 352.521771 68.833672 
C 353.11845 69.430351 353.927835 69.765609 354.771667 69.765609 
z
" clip-path="url(#p44797198f0)" style="fill: #ffffff; stroke: #1f1f1e; stroke-width: 0.8; stroke-linejoin: miter"/>
   </g>
   <g id="patch_44">
    <path d="M 367.873333 67.893943 
C 368.717165 67.893943 369.52655 67.558685 370.123229 66.962005 
C 370.719909 66.365326 371.055167 65.555941 371.055167 64.712109 
C 371.055167 63.868277 370.719909 63.058893 370.123229 62.462213 
C 369.52655 61.865534 368.717165 61.530276 367.873333 61.530276 
C 367.029501 61.530276 366.220117 61.865534 365.623437 62.462213 
C 365.026758 63.058893 364.6915 63.868277 364.6915 64.712109 
C 364.6915 65.555941 365.026758 66.365326 365.623437 66.962005 
C 366.220117 67.558685 367.029501 67.893943 367.873333 67.893943 
z
" clip-path="url(#p44797198f0)" style="fill: #ffffff; stroke: #1f1f1e; stroke-width: 0.8; stroke-linejoin: miter"/>
   </g>
   <g id="patch_45">
    <path d="M 382.846667 70.701443 
C 383.690499 70.701443 384.499883 70.366185 385.096563 69.769505 
C 385.693242 69.172826 386.0285 68.363441 386.0285 67.519609 
C 386.0285 66.675777 385.693242 65.866393 385.096563 65.269713 
C 384.499883 64.673034 383.690499 64.337776 382.846667 64.337776 
C 382.002835 64.337776 381.19345 64.673034 380.596771 65.269713 
C 380.000091 65.866393 379.664833 66.675777 379.664833 67.519609 
C 379.664833 68.363441 380.000091 69.172826 380.596771 69.769505 
C 381.19345 70.366185 382.002835 70.701443 382.846667 70.701443 
z
" clip-path="url(#p44797198f0)" style="fill: #ffffff; stroke: #1f1f1e; stroke-width: 0.8; stroke-linejoin: miter"/>
   </g>
   <g id="patch_46">
    <path d="M 380.975 90.353943 
C 381.818832 90.353943 382.628217 90.018685 383.224896 89.422005 
C 383.821575 88.825326 384.156833 88.015941 384.156833 87.172109 
C 384.156833 86.328277 383.821575 85.518893 383.224896 84.922213 
C 382.628217 84.325534 381.818832 83.990276 380.975 83.990276 
C 380.131168 83.990276 379.321783 84.325534 378.725104 84.922213 
C 378.128425 85.518893 377.793167 86.328277 377.793167 87.172109 
C 377.793167 88.015941 378.128425 88.825326 378.725104 89.422005 
C 379.321783 90.018685 380.131168 90.353943 380.975 90.353943 
z
" clip-path="url(#p44797198f0)" style="fill: #ffffff; stroke: #1f1f1e; stroke-width: 0.8; stroke-linejoin: miter"/>
   </g>
   <g id="patch_47">
    <path d="M 352.9 84.926109 
C 354.289841 84.926109 355.622945 84.37392 356.605711 83.391154 
C 357.588477 82.408388 358.140667 81.075284 358.140667 79.685443 
C 358.140667 78.295602 357.588477 76.962498 356.605711 75.979732 
C 355.622945 74.996966 354.289841 74.444776 352.9 74.444776 
C 351.510159 74.444776 350.177055 74.996966 349.194289 75.979732 
C 348.211523 76.962498 347.659333 78.295602 347.659333 79.685443 
C 347.659333 81.075284 348.211523 82.408388 349.194289 83.391154 
C 350.177055 84.37392 351.510159 84.926109 352.9 84.926109 
z
" clip-path="url(#p44797198f0)" style="fill: #3a3a38; stroke: #1f1f1e; stroke-width: 0.6; stroke-linejoin: miter"/>
   </g>
   <g id="patch_48">
    <path d="M 371.616667 83.054443 
C 373.006508 83.054443 374.339612 82.502253 375.322378 81.519487 
C 376.305144 80.536721 376.857333 79.203617 376.857333 77.813776 
C 376.857333 76.423935 376.305144 75.090831 375.322378 74.108065 
C 374.339612 73.125299 373.006508 72.573109 371.616667 72.573109 
C 370.226826 72.573109 368.893722 73.125299 367.910956 74.108065 
C 366.92819 75.090831 366.376 76.423935 366.376 77.813776 
C 366.376 79.203617 366.92819 80.536721 367.910956 81.519487 
C 368.893722 82.502253 370.226826 83.054443 371.616667 83.054443 
z
" clip-path="url(#p44797198f0)" style="fill: #3a3a38; stroke: #1f1f1e; stroke-width: 0.6; stroke-linejoin: miter"/>
   </g>
   <g id="patch_49">
    <path d="M 321.816415 83.262021 
Q 332.289994 76.822149 342.466969 81.165591 
" style="fill: none; stroke: #eb6834; stroke-width: 1.1; stroke-linecap: round"/>
    <path d="M 339.283705 77.415014 
L 342.466969 81.165591 
L 337.556549 81.461857 
z
" style="fill: #eb6834; stroke: #eb6834; stroke-width: 1.1; stroke-linecap: round"/>
   </g>
   <g id="text_7">
    <!-- H atoms added -->
    <g style="fill: #6b6a64" transform="translate(329.504875 43.454324) scale(0.078 -0.078)">
     <defs>
      <path id="LiberationSerif-6d" d="M 1019 2700 
Q 1253 2834 1515 2925 
Q 1778 3016 1978 3016 
Q 2194 3016 2376 2934 
Q 2559 2853 2650 2675 
Q 2891 2809 3214 2912 
Q 3538 3016 3750 3016 
Q 4500 3016 4500 2150 
L 4500 219 
L 4878 141 
L 4878 0 
L 3544 0 
L 3544 141 
L 3981 219 
L 3981 2094 
Q 3981 2631 3481 2631 
Q 3400 2631 3292 2618 
Q 3184 2606 3076 2590 
Q 2969 2575 2870 2554 
Q 2772 2534 2706 2522 
Q 2759 2353 2759 2150 
L 2759 219 
L 3200 141 
L 3200 0 
L 1806 0 
L 1806 141 
L 2241 219 
L 2241 2094 
Q 2241 2353 2108 2492 
Q 1975 2631 1709 2631 
Q 1434 2631 1025 2541 
L 1025 219 
L 1466 141 
L 1466 0 
L 134 0 
L 134 141 
L 506 219 
L 506 2719 
L 134 2797 
L 134 2938 
L 994 2938 
L 1019 2700 
z
" transform="scale(0.015625)"/>
     </defs>
     <use xlink:href="#LiberationSerif-48"/>
     <use xlink:href="#LiberationSerif-20" transform="translate(72.216797 0)"/>
     <use xlink:href="#LiberationSerif-61" transform="translate(97.216797 0)"/>
     <use xlink:href="#LiberationSerif-74" transform="translate(141.601562 0)"/>
     <use xlink:href="#LiberationSerif-6f" transform="translate(169.384766 0)"/>
     <use xlink:href="#LiberationSerif-6d" transform="translate(219.384766 0)"/>
     <use xlink:href="#LiberationSerif-73" transform="translate(297.167969 0)"/>
     <use xlink:href="#LiberationSerif-20" transform="translate(336.083984 0)"/>
     <use xlink:href="#LiberationSerif-61" transform="translate(361.083984 0)"/>
     <use xlink:href="#LiberationSerif-64" transform="translate(405.46875 0)"/>
     <use xlink:href="#LiberationSerif-64" transform="translate(455.46875 0)"/>
     <use xlink:href="#LiberationSerif-65" transform="translate(505.46875 0)"/>
     <use xlink:href="#LiberationSerif-64" transform="translate(549.853516 0)"/>
    </g>
    <!-- one at a time -->
    <g style="fill: #6b6a64" transform="translate(332.866187 51.610443) scale(0.078 -0.078)">
     <use xlink:href="#LiberationSerif-6f"/>
     <use xlink:href="#LiberationSerif-6e" transform="translate(50 0)"/>
     <use xlink:href="#LiberationSerif-65" transform="translate(100 0)"/>
     <use xlink:href="#LiberationSerif-20" transform="translate(144.384766 0)"/>
     <use xlink:href="#LiberationSerif-61" transform="translate(169.384766 0)"/>
     <use xlink:href="#LiberationSerif-74" transform="translate(213.769531 0)"/>
     <use xlink:href="#LiberationSerif-20" transform="translate(241.552734 0)"/>
     <use xlink:href="#LiberationSerif-61" transform="translate(266.552734 0)"/>
     <use xlink:href="#LiberationSerif-20" transform="translate(310.9375 0)"/>
     <use xlink:href="#LiberationSerif-74" transform="translate(335.9375 0)"/>
     <use xlink:href="#LiberationSerif-69" transform="translate(363.720703 0)"/>
     <use xlink:href="#LiberationSerif-6d" transform="translate(391.503906 0)"/>
     <use xlink:href="#LiberationSerif-65" transform="translate(469.287109 0)"/>
    </g>
   </g>
   <g id="text_8">
    <!-- 3. Reaction on surface -->
    <g transform="translate(310.429062 13.792109) scale(0.095 -0.095)">
     <defs>
      <path id="LiberationSerif-33" d="M 2950 1141 
Q 2950 575 2562 256 
Q 2175 -63 1466 -63 
Q 872 -63 341 72 
L 306 953 
L 513 953 
L 653 366 
Q 775 297 998 247 
Q 1222 197 1416 197 
Q 1906 197 2140 422 
Q 2375 647 2375 1172 
Q 2375 1584 2159 1798 
Q 1944 2013 1491 2034 
L 1044 2059 
L 1044 2316 
L 1491 2344 
Q 1844 2363 2012 2563 
Q 2181 2763 2181 3169 
Q 2181 3591 1998 3783 
Q 1816 3975 1416 3975 
Q 1250 3975 1069 3929 
Q 888 3884 750 3809 
L 641 3297 
L 434 3297 
L 434 4103 
Q 744 4184 969 4211 
Q 1194 4238 1416 4238 
Q 2759 4238 2759 3206 
Q 2759 2772 2520 2514 
Q 2281 2256 1844 2194 
Q 2413 2128 2681 1867 
Q 2950 1606 2950 1141 
z
" transform="scale(0.015625)"/>
      <path id="LiberationSerif-52" d="M 1325 1838 
L 1325 250 
L 1959 166 
L 1959 0 
L 225 0 
L 225 166 
L 722 250 
L 722 3944 
L 184 4025 
L 184 4191 
L 1994 4191 
Q 2781 4191 3156 3925 
Q 3531 3659 3531 3072 
Q 3531 2653 3303 2348 
Q 3075 2044 2672 1925 
L 3806 250 
L 4259 166 
L 4259 0 
L 3256 0 
L 2078 1838 
L 1325 1838 
z
M 2909 3028 
Q 2909 3506 2676 3707 
Q 2444 3909 1859 3909 
L 1325 3909 
L 1325 2119 
L 1878 2119 
Q 2438 2119 2673 2326 
Q 2909 2534 2909 3028 
z
" transform="scale(0.015625)"/>
     </defs>
     <use xlink:href="#LiberationSerif-33"/>
     <use xlink:href="#LiberationSerif-2e" transform="translate(50 0)"/>
     <use xlink:href="#LiberationSerif-20" transform="translate(75 0)"/>
     <use xlink:href="#LiberationSerif-52" transform="translate(100 0)"/>
     <use xlink:href="#LiberationSerif-65" transform="translate(166.699219 0)"/>
     <use xlink:href="#LiberationSerif-61" transform="translate(211.083984 0)"/>
     <use xlink:href="#LiberationSerif-63" transform="translate(255.46875 0)"/>
     <use xlink:href="#LiberationSerif-74" transform="translate(299.853516 0)"/>
     <use xlink:href="#LiberationSerif-69" transform="translate(327.636719 0)"/>
     <use xlink:href="#LiberationSerif-6f" transform="translate(355.419922 0)"/>
     <use xlink:href="#LiberationSerif-6e" transform="translate(405.419922 0)"/>
     <use xlink:href="#LiberationSerif-20" transform="translate(455.419922 0)"/>
     <use xlink:href="#LiberationSerif-6f" transform="translate(480.419922 0)"/>
     <use xlink:href="#LiberationSerif-6e" transform="translate(530.419922 0)"/>
     <use xlink:href="#LiberationSerif-20" transform="translate(580.419922 0)"/>
     <use xlink:href="#LiberationSerif-73" transform="translate(605.419922 0)"/>
     <use xlink:href="#LiberationSerif-75" transform="translate(644.335938 0)"/>
     <use xlink:href="#LiberationSerif-72" transform="translate(694.335938 0)"/>
     <use xlink:href="#LiberationSerif-66" transform="translate(727.636719 0)"/>
     <use xlink:href="#LiberationSerif-61" transform="translate(760.9375 0)"/>
     <use xlink:href="#LiberationSerif-63" transform="translate(805.322266 0)"/>
     <use xlink:href="#LiberationSerif-65" transform="translate(849.707031 0)"/>
    </g>
   </g>
  </g>
  <g id="axes_4">
   <g id="patch_50">
    <path d="M 435.91 108.134776 
C 437.994762 108.134776 439.994417 107.306491 441.468566 105.832342 
C 442.942715 104.358193 443.771 102.358538 443.771 100.273776 
C 443.771 98.189014 442.942715 96.189359 441.468566 94.71521 
C 439.994417 93.241061 437.994762 92.412776 435.91 92.412776 
C 433.825238 92.412776 431.825583 93.241061 430.351434 94.71521 
C 428.877285 96.189359 428.049 98.189014 428.049 100.273776 
C 428.049 102.358538 428.877285 104.358193 430.351434 105.832342 
C 431.825583 107.306491 433.825238 108.134776 435.91 108.134776 
z
" clip-path="url(#pc6a5409a20)" style="fill: #c9c8c1; stroke: #1f1f1e; stroke-width: 0.6; stroke-linejoin: miter"/>
   </g>
   <g id="patch_51">
    <path d="M 454.626667 108.134776 
C 456.711428 108.134776 458.711084 107.306491 460.185233 105.832342 
C 461.659382 104.358193 462.487667 102.358538 462.487667 100.273776 
C 462.487667 98.189014 461.659382 96.189359 460.185233 94.71521 
C 458.711084 93.241061 456.711428 92.412776 454.626667 92.412776 
C 452.541905 92.412776 450.542249 93.241061 449.0681 94.71521 
C 447.593951 96.189359 446.765667 98.189014 446.765667 100.273776 
C 446.765667 102.358538 447.593951 104.358193 449.0681 105.832342 
C 450.542249 107.306491 452.541905 108.134776 454.626667 108.134776 
z
" clip-path="url(#pc6a5409a20)" style="fill: #c9c8c1; stroke: #1f1f1e; stroke-width: 0.6; stroke-linejoin: miter"/>
   </g>
   <g id="patch_52">
    <path d="M 473.343333 108.134776 
C 475.428095 108.134776 477.427751 107.306491 478.9019 105.832342 
C 480.376049 104.358193 481.204333 102.358538 481.204333 100.273776 
C 481.204333 98.189014 480.376049 96.189359 478.9019 94.71521 
C 477.427751 93.241061 475.428095 92.412776 473.343333 92.412776 
C 471.258572 92.412776 469.258916 93.241061 467.784767 94.71521 
C 466.310618 96.189359 465.482333 98.189014 465.482333 100.273776 
C 465.482333 102.358538 466.310618 104.358193 467.784767 105.832342 
C 469.258916 107.306491 471.258572 108.134776 473.343333 108.134776 
z
" clip-path="url(#pc6a5409a20)" style="fill: #c9c8c1; stroke: #1f1f1e; stroke-width: 0.6; stroke-linejoin: miter"/>
   </g>
   <g id="patch_53">
    <path d="M 492.06 108.134776 
C 494.144762 108.134776 496.144417 107.306491 497.618566 105.832342 
C 499.092715 104.358193 499.921 102.358538 499.921 100.273776 
C 499.921 98.189014 499.092715 96.189359 497.618566 94.71521 
C 496.144417 93.241061 494.144762 92.412776 492.06 92.412776 
C 489.975238 92.412776 487.975583 93.241061 486.501434 94.71521 
C 485.027285 96.189359 484.199 98.189014 484.199 100.273776 
C 484.199 102.358538 485.027285 104.358193 486.501434 105.832342 
C 487.975583 107.306491 489.975238 108.134776 492.06 108.134776 
z
" clip-path="url(#pc6a5409a20)" style="fill: #c9c8c1; stroke: #1f1f1e; stroke-width: 0.6; stroke-linejoin: miter"/>
   </g>
   <g id="patch_54">
    <path d="M 510.776667 108.134776 
C 512.861428 108.134776 514.861084 107.306491 516.335233 105.832342 
C 517.809382 104.358193 518.637667 102.358538 518.637667 100.273776 
C 518.637667 98.189014 517.809382 96.189359 516.335233 94.71521 
C 514.861084 93.241061 512.861428 92.412776 510.776667 92.412776 
C 508.691905 92.412776 506.692249 93.241061 505.2181 94.71521 
C 503.743951 96.189359 502.915667 98.189014 502.915667 100.273776 
C 502.915667 102.358538 503.743951 104.358193 505.2181 105.832342 
C 506.692249 107.306491 508.691905 108.134776 510.776667 108.134776 
z
" clip-path="url(#pc6a5409a20)" style="fill: #c9c8c1; stroke: #1f1f1e; stroke-width: 0.6; stroke-linejoin: miter"/>
   </g>
   <g id="patch_55">
    <path d="M 529.493333 108.134776 
C 531.578095 108.134776 533.577751 107.306491 535.0519 105.832342 
C 536.526049 104.358193 537.354333 102.358538 537.354333 100.273776 
C 537.354333 98.189014 536.526049 96.189359 535.0519 94.71521 
C 533.577751 93.241061 531.578095 92.412776 529.493333 92.412776 
C 527.408572 92.412776 525.408916 93.241061 523.934767 94.71521 
C 522.460618 96.189359 521.632333 98.189014 521.632333 100.273776 
C 521.632333 102.358538 522.460618 104.358193 523.934767 105.832342 
C 525.408916 107.306491 527.408572 108.134776 529.493333 108.134776 
z
" clip-path="url(#pc6a5409a20)" style="fill: #c9c8c1; stroke: #1f1f1e; stroke-width: 0.6; stroke-linejoin: miter"/>
   </g>
   <g id="patch_56">
    <path d="M 548.21 108.134776 
C 550.294762 108.134776 552.294417 107.306491 553.768566 105.832342 
C 555.242715 104.358193 556.071 102.358538 556.071 100.273776 
C 556.071 98.189014 555.242715 96.189359 553.768566 94.71521 
C 552.294417 93.241061 550.294762 92.412776 548.21 92.412776 
C 546.125238 92.412776 544.125583 93.241061 542.651434 94.71521 
C 541.177285 96.189359 540.349 98.189014 540.349 100.273776 
C 540.349 102.358538 541.177285 104.358193 542.651434 105.832342 
C 544.125583 107.306491 546.125238 108.134776 548.21 108.134776 
z
" clip-path="url(#pc6a5409a20)" style="fill: #c9c8c1; stroke: #1f1f1e; stroke-width: 0.6; stroke-linejoin: miter"/>
   </g>
   <g id="line2d_25">
    <path d="M 482.701667 47.867109 
L 505.161667 47.867109 
" clip-path="url(#pc6a5409a20)" style="fill: none; stroke: #1f1f1e; stroke-width: 1.2; stroke-linecap: square"/>
   </g>
   <g id="line2d_26">
    <path d="M 482.701667 47.867109 
L 473.343333 38.508776 
" clip-path="url(#pc6a5409a20)" style="fill: none; stroke: #1f1f1e; stroke-width: 1.2; stroke-linecap: square"/>
   </g>
   <g id="line2d_27">
    <path d="M 482.701667 47.867109 
L 473.343333 57.225443 
" clip-path="url(#pc6a5409a20)" style="fill: none; stroke: #1f1f1e; stroke-width: 1.2; stroke-linecap: square"/>
   </g>
   <g id="line2d_28">
    <path d="M 482.701667 47.867109 
L 482.701667 35.701276 
" clip-path="url(#pc6a5409a20)" style="fill: none; stroke: #1f1f1e; stroke-width: 1.2; stroke-linecap: square"/>
   </g>
   <g id="line2d_29">
    <path d="M 505.161667 47.867109 
L 514.52 38.508776 
" clip-path="url(#pc6a5409a20)" style="fill: none; stroke: #1f1f1e; stroke-width: 1.2; stroke-linecap: square"/>
   </g>
   <g id="line2d_30">
    <path d="M 505.161667 47.867109 
L 514.52 57.225443 
" clip-path="url(#pc6a5409a20)" style="fill: none; stroke: #1f1f1e; stroke-width: 1.2; stroke-linecap: square"/>
   </g>
   <g id="line2d_31">
    <path d="M 505.161667 47.867109 
L 505.161667 60.032943 
" clip-path="url(#pc6a5409a20)" style="fill: none; stroke: #1f1f1e; stroke-width: 1.2; stroke-linecap: square"/>
   </g>
   <g id="text_9">
    <!-- Ni catalyst surface -->
    <g style="fill: #6b6a64" transform="translate(460.434688 116.182943) scale(0.085 -0.085)">
     <use xlink:href="#LiberationSerif-4e"/>
     <use xlink:href="#LiberationSerif-69" transform="translate(72.216797 0)"/>
     <use xlink:href="#LiberationSerif-20" transform="translate(100 0)"/>
     <use xlink:href="#LiberationSerif-63" transform="translate(125 0)"/>
     <use xlink:href="#LiberationSerif-61" transform="translate(169.384766 0)"/>
     <use xlink:href="#LiberationSerif-74" transform="translate(213.769531 0)"/>
     <use xlink:href="#LiberationSerif-61" transform="translate(241.552734 0)"/>
     <use xlink:href="#LiberationSerif-6c" transform="translate(285.9375 0)"/>
     <use xlink:href="#LiberationSerif-79" transform="translate(313.720703 0)"/>
     <use xlink:href="#LiberationSerif-73" transform="translate(363.720703 0)"/>
     <use xlink:href="#LiberationSerif-74" transform="translate(402.636719 0)"/>
     <use xlink:href="#LiberationSerif-20" transform="translate(430.419922 0)"/>
     <use xlink:href="#LiberationSerif-73" transform="translate(455.419922 0)"/>
     <use xlink:href="#LiberationSerif-75" transform="translate(494.335938 0)"/>
     <use xlink:href="#LiberationSerif-72" transform="translate(544.335938 0)"/>
     <use xlink:href="#LiberationSerif-66" transform="translate(577.636719 0)"/>
     <use xlink:href="#LiberationSerif-61" transform="translate(610.9375 0)"/>
     <use xlink:href="#LiberationSerif-63" transform="translate(655.322266 0)"/>
     <use xlink:href="#LiberationSerif-65" transform="translate(699.707031 0)"/>
    </g>
   </g>
   <g id="patch_57">
    <path d="M 473.343333 41.690609 
C 474.187165 41.690609 474.99655 41.355351 475.593229 40.758672 
C 476.189909 40.161993 476.525167 39.352608 476.525167 38.508776 
C 476.525167 37.664944 476.189909 36.855559 475.593229 36.25888 
C 474.99655 35.662201 474.187165 35.326943 473.343333 35.326943 
C 472.499501 35.326943 471.690117 35.662201 471.093437 36.25888 
C 470.496758 36.855559 470.1615 37.664944 470.1615 38.508776 
C 470.1615 39.352608 470.496758 40.161993 471.093437 40.758672 
C 471.690117 41.355351 472.499501 41.690609 473.343333 41.690609 
z
" clip-path="url(#pc6a5409a20)" style="fill: #ffffff; stroke: #1f1f1e; stroke-width: 0.8; stroke-linejoin: miter"/>
   </g>
   <g id="patch_58">
    <path d="M 473.343333 60.407276 
C 474.187165 60.407276 474.99655 60.072018 475.593229 59.475339 
C 476.189909 58.878659 476.525167 58.069275 476.525167 57.225443 
C 476.525167 56.381611 476.189909 55.572226 475.593229 54.975547 
C 474.99655 54.378867 474.187165 54.043609 473.343333 54.043609 
C 472.499501 54.043609 471.690117 54.378867 471.093437 54.975547 
C 470.496758 55.572226 470.1615 56.381611 470.1615 57.225443 
C 470.1615 58.069275 470.496758 58.878659 471.093437 59.475339 
C 471.690117 60.072018 472.499501 60.407276 473.343333 60.407276 
z
" clip-path="url(#pc6a5409a20)" style="fill: #ffffff; stroke: #1f1f1e; stroke-width: 0.8; stroke-linejoin: miter"/>
   </g>
   <g id="patch_59">
    <path d="M 482.701667 38.883109 
C 483.545499 38.883109 484.354883 38.547851 484.951563 37.951172 
C 485.548242 37.354493 485.8835 36.545108 485.8835 35.701276 
C 485.8835 34.857444 485.548242 34.048059 484.951563 33.45138 
C 484.354883 32.854701 483.545499 32.519443 482.701667 32.519443 
C 481.857835 32.519443 481.04845 32.854701 480.451771 33.45138 
C 479.855091 34.048059 479.519833 34.857444 479.519833 35.701276 
C 479.519833 36.545108 479.855091 37.354493 480.451771 37.951172 
C 481.04845 38.547851 481.857835 38.883109 482.701667 38.883109 
z
" clip-path="url(#pc6a5409a20)" style="fill: #ffffff; stroke: #1f1f1e; stroke-width: 0.8; stroke-linejoin: miter"/>
   </g>
   <g id="patch_60">
    <path d="M 514.52 41.690609 
C 515.363832 41.690609 516.173217 41.355351 516.769896 40.758672 
C 517.366575 40.161993 517.701833 39.352608 517.701833 38.508776 
C 517.701833 37.664944 517.366575 36.855559 516.769896 36.25888 
C 516.173217 35.662201 515.363832 35.326943 514.52 35.326943 
C 513.676168 35.326943 512.866783 35.662201 512.270104 36.25888 
C 511.673425 36.855559 511.338167 37.664944 511.338167 38.508776 
C 511.338167 39.352608 511.673425 40.161993 512.270104 40.758672 
C 512.866783 41.355351 513.676168 41.690609 514.52 41.690609 
z
" clip-path="url(#pc6a5409a20)" style="fill: #ffffff; stroke: #1f1f1e; stroke-width: 0.8; stroke-linejoin: miter"/>
   </g>
   <g id="patch_61">
    <path d="M 514.52 60.407276 
C 515.363832 60.407276 516.173217 60.072018 516.769896 59.475339 
C 517.366575 58.878659 517.701833 58.069275 517.701833 57.225443 
C 517.701833 56.381611 517.366575 55.572226 516.769896 54.975547 
C 516.173217 54.378867 515.363832 54.043609 514.52 54.043609 
C 513.676168 54.043609 512.866783 54.378867 512.270104 54.975547 
C 511.673425 55.572226 511.338167 56.381611 511.338167 57.225443 
C 511.338167 58.069275 511.673425 58.878659 512.270104 59.475339 
C 512.866783 60.072018 513.676168 60.407276 514.52 60.407276 
z
" clip-path="url(#pc6a5409a20)" style="fill: #ffffff; stroke: #1f1f1e; stroke-width: 0.8; stroke-linejoin: miter"/>
   </g>
   <g id="patch_62">
    <path d="M 505.161667 63.214776 
C 506.005499 63.214776 506.814883 62.879518 507.411563 62.282839 
C 508.008242 61.686159 508.3435 60.876775 508.3435 60.032943 
C 508.3435 59.189111 508.008242 58.379726 507.411563 57.783047 
C 506.814883 57.186367 506.005499 56.851109 505.161667 56.851109 
C 504.317835 56.851109 503.50845 57.186367 502.911771 57.783047 
C 502.315091 58.379726 501.979833 59.189111 501.979833 60.032943 
C 501.979833 60.876775 502.315091 61.686159 502.911771 62.282839 
C 503.50845 62.879518 504.317835 63.214776 505.161667 63.214776 
z
" clip-path="url(#pc6a5409a20)" style="fill: #ffffff; stroke: #1f1f1e; stroke-width: 0.8; stroke-linejoin: miter"/>
   </g>
   <g id="patch_63">
    <path d="M 482.701667 53.107776 
C 484.091508 53.107776 485.424612 52.555586 486.407378 51.57282 
C 487.390144 50.590054 487.942333 49.25695 487.942333 47.867109 
C 487.942333 46.477268 487.390144 45.144164 486.407378 44.161398 
C 485.424612 43.178632 484.091508 42.626443 482.701667 42.626443 
C 481.311826 42.626443 479.978722 43.178632 478.995956 44.161398 
C 478.01319 45.144164 477.461 46.477268 477.461 47.867109 
C 477.461 49.25695 478.01319 50.590054 478.995956 51.57282 
C 479.978722 52.555586 481.311826 53.107776 482.701667 53.107776 
z
" clip-path="url(#pc6a5409a20)" style="fill: #3a3a38; stroke: #1f1f1e; stroke-width: 0.6; stroke-linejoin: miter"/>
   </g>
   <g id="patch_64">
    <path d="M 505.161667 53.107776 
C 506.551508 53.107776 507.884612 52.555586 508.867378 51.57282 
C 509.850144 50.590054 510.402333 49.25695 510.402333 47.867109 
C 510.402333 46.477268 509.850144 45.144164 508.867378 44.161398 
C 507.884612 43.178632 506.551508 42.626443 505.161667 42.626443 
C 503.771826 42.626443 502.438722 43.178632 501.455956 44.161398 
C 500.47319 45.144164 499.921 46.477268 499.921 47.867109 
C 499.921 49.25695 500.47319 50.590054 501.455956 51.57282 
C 502.438722 52.555586 503.771826 53.107776 505.161667 53.107776 
z
" clip-path="url(#pc6a5409a20)" style="fill: #3a3a38; stroke: #1f1f1e; stroke-width: 0.6; stroke-linejoin: miter"/>
   </g>
   <g id="patch_65">
    <path d="M 493.931667 87.045763 
Q 493.931667 75.008394 493.931667 64.424469 
" style="fill: none; stroke: #eb6834; stroke-width: 1.3; stroke-linecap: round"/>
    <path d="M 491.731667 68.824469 
L 493.931667 64.424469 
L 496.131667 68.824469 
z
" style="fill: #eb6834; stroke: #eb6834; stroke-width: 1.3; stroke-linecap: round"/>
   </g>
   <g id="text_10">
    <!-- ethane -->
    <g transform="translate(482.841159 29.150443) scale(0.085 -0.085)">
     <defs>
      <path id="LiberationSerif-68" d="M 1019 3169 
Q 1019 2844 997 2700 
Q 1222 2828 1508 2922 
Q 1794 3016 1991 3016 
Q 2372 3016 2565 2794 
Q 2759 2572 2759 2150 
L 2759 219 
L 3116 141 
L 3116 0 
L 1850 0 
L 1850 141 
L 2241 219 
L 2241 2113 
Q 2241 2650 1722 2650 
Q 1428 2650 1019 2559 
L 1019 219 
L 1416 141 
L 1416 0 
L 128 0 
L 128 141 
L 500 219 
L 500 4225 
L 63 4300 
L 63 4441 
L 1019 4441 
L 1019 3169 
z
" transform="scale(0.015625)"/>
     </defs>
     <use xlink:href="#LiberationSerif-65"/>
     <use xlink:href="#LiberationSerif-74" transform="translate(44.384766 0)"/>
     <use xlink:href="#LiberationSerif-68" transform="translate(72.167969 0)"/>
     <use xlink:href="#LiberationSerif-61" transform="translate(122.167969 0)"/>
     <use xlink:href="#LiberationSerif-6e" transform="translate(166.552734 0)"/>
     <use xlink:href="#LiberationSerif-65" transform="translate(216.552734 0)"/>
    </g>
   </g>
   <g id="text_11">
    <!-- sites free -->
    <g style="fill: #6b6a64" transform="translate(517.396297 69.657657) scale(0.078 -0.078)">
     <use xlink:href="#LiberationSerif-73"/>
     <use xlink:href="#LiberationSerif-69" transform="translate(38.916016 0)"/>
     <use xlink:href="#LiberationSerif-74" transform="translate(66.699219 0)"/>
     <use xlink:href="#LiberationSerif-65" transform="translate(94.482422 0)"/>
     <use xlink:href="#LiberationSerif-73" transform="translate(138.867188 0)"/>
     <use xlink:href="#LiberationSerif-20" transform="translate(177.783203 0)"/>
     <use xlink:href="#LiberationSerif-66" transform="translate(202.783203 0)"/>
     <use xlink:href="#LiberationSerif-72" transform="translate(236.083984 0)"/>
     <use xlink:href="#LiberationSerif-65" transform="translate(269.384766 0)"/>
     <use xlink:href="#LiberationSerif-65" transform="translate(313.769531 0)"/>
    </g>
    <!-- again -->
    <g style="fill: #6b6a64" transform="translate(522.919062 77.813776) scale(0.078 -0.078)">
     <defs>
      <path id="LiberationSerif-67" d="M 2719 2009 
Q 2719 1503 2416 1243 
Q 2113 984 1544 984 
Q 1288 984 1069 1031 
L 872 622 
Q 881 569 993 522 
Q 1106 475 1275 475 
L 2144 475 
Q 2619 475 2848 269 
Q 3078 63 3078 -300 
Q 3078 -628 2895 -872 
Q 2713 -1116 2359 -1248 
Q 2006 -1381 1503 -1381 
Q 903 -1381 589 -1197 
Q 275 -1013 275 -672 
Q 275 -506 387 -345 
Q 500 -184 800 31 
Q 622 91 500 234 
Q 378 378 378 544 
L 872 1100 
Q 378 1331 378 2009 
Q 378 2491 683 2753 
Q 988 3016 1569 3016 
Q 1684 3016 1865 2992 
Q 2047 2969 2144 2938 
L 2834 3284 
L 2944 3150 
L 2509 2700 
Q 2719 2466 2719 2009 
z
M 2591 -397 
Q 2591 -219 2481 -119 
Q 2372 -19 2150 -19 
L 1013 -19 
Q 881 -131 798 -304 
Q 716 -478 716 -628 
Q 716 -897 909 -1014 
Q 1103 -1131 1503 -1131 
Q 2025 -1131 2308 -937 
Q 2591 -744 2591 -397 
z
M 1550 1222 
Q 1891 1222 2033 1417 
Q 2175 1613 2175 2009 
Q 2175 2425 2028 2601 
Q 1881 2778 1556 2778 
Q 1228 2778 1075 2600 
Q 922 2422 922 2009 
Q 922 1597 1072 1409 
Q 1222 1222 1550 1222 
z
" transform="scale(0.015625)"/>
     </defs>
     <use xlink:href="#LiberationSerif-61"/>
     <use xlink:href="#LiberationSerif-67" transform="translate(44.384766 0)"/>
     <use xlink:href="#LiberationSerif-61" transform="translate(94.384766 0)"/>
     <use xlink:href="#LiberationSerif-69" transform="translate(138.769531 0)"/>
     <use xlink:href="#LiberationSerif-6e" transform="translate(166.552734 0)"/>
    </g>
   </g>
   <g id="text_12">
    <!-- 4. Desorption -->
    <g transform="translate(466.201445 13.792109) scale(0.095 -0.095)">
     <defs>
      <path id="LiberationSerif-34" d="M 2531 922 
L 2531 0 
L 1994 0 
L 1994 922 
L 125 922 
L 125 1338 
L 2172 4213 
L 2531 4213 
L 2531 1369 
L 3100 1369 
L 3100 922 
L 2531 922 
z
M 1994 3478 
L 1978 3478 
L 478 1369 
L 1994 1369 
L 1994 3478 
z
" transform="scale(0.015625)"/>
      <path id="LiberationSerif-44" d="M 3713 2125 
Q 3713 3003 3239 3456 
Q 2766 3909 1888 3909 
L 1325 3909 
L 1325 294 
Q 1700 269 2216 269 
Q 2984 269 3348 722 
Q 3713 1175 3713 2125 
z
M 2088 4191 
Q 3247 4191 3806 3673 
Q 4366 3156 4366 2119 
Q 4366 1069 3827 528 
Q 3288 -13 2216 -13 
L 722 0 
L 184 0 
L 184 166 
L 722 250 
L 722 3944 
L 184 4025 
L 184 4191 
L 2088 4191 
z
" transform="scale(0.015625)"/>
     </defs>
     <use xlink:href="#LiberationSerif-34"/>
     <use xlink:href="#LiberationSerif-2e" transform="translate(50 0)"/>
     <use xlink:href="#LiberationSerif-20" transform="translate(75 0)"/>
     <use xlink:href="#LiberationSerif-44" transform="translate(100 0)"/>
     <use xlink:href="#LiberationSerif-65" transform="translate(172.216797 0)"/>
     <use xlink:href="#LiberationSerif-73" transform="translate(216.601562 0)"/>
     <use xlink:href="#LiberationSerif-6f" transform="translate(255.517578 0)"/>
     <use xlink:href="#LiberationSerif-72" transform="translate(305.517578 0)"/>
     <use xlink:href="#LiberationSerif-70" transform="translate(338.818359 0)"/>
     <use xlink:href="#LiberationSerif-74" transform="translate(388.818359 0)"/>
     <use xlink:href="#LiberationSerif-69" transform="translate(416.601562 0)"/>
     <use xlink:href="#LiberationSerif-6f" transform="translate(444.384766 0)"/>
     <use xlink:href="#LiberationSerif-6e" transform="translate(494.384766 0)"/>
    </g>
   </g>
  </g>
 </g>
 <defs>
  <clipPath id="p01a9001372">
   <rect x="7.2" y="19.792109" width="134.76" height="101.07"/>
  </clipPath>
  <clipPath id="p1d9562ef48">
   <rect x="146.36" y="19.792109" width="134.76" height="101.07"/>
  </clipPath>
  <clipPath id="p44797198f0">
   <rect x="285.52" y="19.792109" width="134.76" height="101.07"/>
  </clipPath>
  <clipPath id="pc6a5409a20">
   <rect x="424.68" y="19.792109" width="134.76" height="101.07"/>
  </clipPath>
 </defs>
</svg>
