<?xml version="1.0" encoding="utf-8" standalone="no"?>
<!DOCTYPE svg PUBLIC "-//W3C//DTD SVG 1.1//EN"
  "http://www.w3.org/Graphics/SVG/1.1/DTD/svg11.dtd">
<svg xmlns:xlink="http://www.w3.org/1999/xlink" width="414.32768pt" height="173.988pt" viewBox="0 0 414.32768 173.988" xmlns="http://www.w3.org/2000/svg" version="1.1">
 <metadata>
  <rdf:RDF xmlns:dc="http://purl.org/dc/elements/1.1/" xmlns:cc="http://creativecommons.org/ns#" xmlns:rdf="http://www.w3.org/1999/02/22-rdf-syntax-ns#">
   <cc:Work>
    <dc:type rdf:resource="http://purl.org/dc/dcmitype/StillImage"/>
    <dc:format>image/svg+xml</dc:format>
    <dc:creator>
     <cc:Agent>
      <dc:title>Matplotlib v3.10.9, https://matplotlib.org/</dc:title>
     </cc:Agent>
    </dc:creator>
   </cc:Work>
  </rdf:RDF>
 </metadata>
 <defs>
  <style type="text/css">*{stroke-linejoin: round; stroke-linecap: butt}</style>
 </defs>
 <g id="figure_1">
  <g id="patch_1">
   <path d="M 0 173.988 
L 414.32768 173.988 
L 414.32768 0 
L 0 0 
z
" style="fill: #ffffff"/>
  </g>
  <g id="axes_1">
   <g id="patch_2">
    <path d="M 69.53768 134.5635 
L 321.19568 134.5635 
Q 322.73018 134.5635 322.73018 133.029 
L 322.73018 53.235 
Q 322.73018 51.7005 321.19568 51.7005 
L 69.53768 51.7005 
Q 68.00318 51.7005 68.00318 53.235 
L 68.00318 133.029 
Q 68.00318 134.5635 69.53768 134.5635 
z
" clip-path="url(#pb3a44a4c6c)" style="fill: #e6ddeb; stroke: #1e2a33; stroke-linejoin: miter"/>
   </g>
   <g id="patch_3">
    <path d="M 106.36568 111.546 
L 278.22968 111.546 
L 278.22968 74.718 
L 106.36568 74.718 
z
" clip-path="url(#pb3a44a4c6c)" style="fill: #ffffff; stroke: #1e2a33; stroke-width: 1.2; stroke-linejoin: miter"/>
   </g>
   <g id="patch_4">
    <path d="M 201.50468 108.477 
L 207.02888 108.477 
L 207.02888 77.787 
L 201.50468 77.787 
z
" clip-path="url(#pb3a44a4c6c)" style="fill: #5b6b75; stroke: #1e2a33; stroke-width: 0.8; stroke-linejoin: miter"/>
   </g>
   <g id="patch_5">
    <path d="M 364.16168 108.477 
L 370.29968 108.477 
L 370.29968 77.787 
L 364.16168 77.787 
z
" clip-path="url(#pb3a44a4c6c)" style="fill: #5b6b75; stroke: #1e2a33; stroke-width: 0.8; stroke-linejoin: miter"/>
   </g>
   <g id="patch_6">
    <path d="M 124.77968 104.4873 
C 125.349416 104.4873 125.895893 104.260942 126.298757 103.858077 
C 126.701621 103.455213 126.92798 102.908736 126.92798 102.339 
C 126.92798 101.769264 126.701621 101.222787 126.298757 100.819923 
C 125.895893 100.417058 125.349416 100.1907 124.77968 100.1907 
C 124.209944 100.1907 123.663466 100.417058 123.260602 100.819923 
C 122.857738 101.222787 122.63138 101.769264 122.63138 102.339 
C 122.63138 102.908736 122.857738 103.455213 123.260602 103.858077 
C 123.663466 104.260942 124.209944 104.4873 124.77968 104.4873 
z
" clip-path="url(#pb3a44a4c6c)" style="fill: #1f6f8b"/>
   </g>
   <g id="patch_7">
    <path d="M 143.19368 89.1423 
C 143.763416 89.1423 144.309893 88.915942 144.712757 88.513077 
C 145.115621 88.110213 145.34198 87.563736 145.34198 86.994 
C 145.34198 86.424264 145.115621 85.877787 144.712757 85.474923 
C 144.309893 85.072058 143.763416 84.8457 143.19368 84.8457 
C 142.623944 84.8457 142.077466 85.072058 141.674602 85.474923 
C 141.271738 85.877787 141.04538 86.424264 141.04538 86.994 
C 141.04538 87.563736 141.271738 88.110213 141.674602 88.513077 
C 142.077466 88.915942 142.623944 89.1423 143.19368 89.1423 
z
" clip-path="url(#pb3a44a4c6c)" style="fill: #1f6f8b"/>
   </g>
   <g id="patch_8">
    <path d="M 164.67668 101.4183 
C 165.246416 101.4183 165.792893 101.191942 166.195757 100.789077 
C 166.598621 100.386213 166.82498 99.839736 166.82498 99.27 
C 166.82498 98.700264 166.598621 98.153787 166.195757 97.750923 
C 165.792893 97.348058 165.246416 97.1217 164.67668 97.1217 
C 164.106944 97.1217 163.560466 97.348058 163.157602 97.750923 
C 162.754738 98.153787 162.52838 98.700264 162.52838 99.27 
C 162.52838 99.839736 162.754738 100.386213 163.157602 100.789077 
C 163.560466 101.191942 164.106944 101.4183 164.67668 101.4183 
z
" clip-path="url(#pb3a44a4c6c)" style="fill: #1f6f8b"/>
   </g>
   <g id="patch_9">
    <path d="M 183.09068 86.0733 
C 183.660416 86.0733 184.206893 85.846942 184.609757 85.444077 
C 185.012621 85.041213 185.23898 84.494736 185.23898 83.925 
C 185.23898 83.355264 185.012621 82.808787 184.609757 82.405923 
C 184.206893 82.003058 183.660416 81.7767 183.09068 81.7767 
C 182.520944 81.7767 181.974466 82.003058 181.571602 82.405923 
C 181.168738 82.808787 180.94238 83.355264 180.94238 83.925 
C 180.94238 84.494736 181.168738 85.041213 181.571602 85.444077 
C 181.974466 85.846942 182.520944 86.0733 183.09068 86.0733 
z
" clip-path="url(#pb3a44a4c6c)" style="fill: #1f6f8b"/>
   </g>
   <g id="patch_10">
    <path d="M 133.98668 92.2113 
C 134.556416 92.2113 135.102893 91.984942 135.505757 91.582077 
C 135.908621 91.179213 136.13498 90.632736 136.13498 90.063 
C 136.13498 89.493264 135.908621 88.946787 135.505757 88.543923 
C 135.102893 88.141058 134.556416 87.9147 133.98668 87.9147 
C 133.416944 87.9147 132.870466 88.141058 132.467602 88.543923 
C 132.064738 88.946787 131.83838 89.493264 131.83838 90.063 
C 131.83838 90.632736 132.064738 91.179213 132.467602 91.582077 
C 132.870466 91.984942 133.416944 92.2113 133.98668 92.2113 
z
" clip-path="url(#pb3a44a4c6c)" style="fill: #1f6f8b"/>
   </g>
   <g id="patch_11">
    <path d="M 173.88368 107.5563 
C 174.453416 107.5563 174.999893 107.329942 175.402757 106.927077 
C 175.805621 106.524213 176.03198 105.977736 176.03198 105.408 
C 176.03198 104.838264 175.805621 104.291787 175.402757 103.888923 
C 174.999893 103.486058 174.453416 103.2597 173.88368 103.2597 
C 173.313944 103.2597 172.767466 103.486058 172.364602 103.888923 
C 171.961738 104.291787 171.73538 104.838264 171.73538 105.408 
C 171.73538 105.977736 171.961738 106.524213 172.364602 106.927077 
C 172.767466 107.329942 173.313944 107.5563 173.88368 107.5563 
z
" clip-path="url(#pb3a44a4c6c)" style="fill: #1f6f8b"/>
   </g>
   <g id="patch_12">
    <path d="M 192.29768 98.3493 
C 192.867416 98.3493 193.413893 98.122942 193.816757 97.720077 
C 194.219621 97.317213 194.44598 96.770736 194.44598 96.201 
C 194.44598 95.631264 194.219621 95.084787 193.816757 94.681923 
C 193.413893 94.279058 192.867416 94.0527 192.29768 94.0527 
C 191.727944 94.0527 191.181466 94.279058 190.778602 94.681923 
C 190.375738 95.084787 190.14938 95.631264 190.14938 96.201 
C 190.14938 96.770736 190.375738 97.317213 190.778602 97.720077 
C 191.181466 98.122942 191.727944 98.3493 192.29768 98.3493 
z
" clip-path="url(#pb3a44a4c6c)" style="fill: #1f6f8b"/>
   </g>
   <g id="patch_13">
    <path d="M 92.55518 100.8045 
L 106.36568 100.8045 
L 106.36568 85.4595 
L 92.55518 85.4595 
z
" clip-path="url(#pb3a44a4c6c)" style="fill: #1e2a33; stroke: #1e2a33; stroke-linejoin: miter"/>
   </g>
   <g id="patch_14">
    <path d="M 28.10618 98.6562 
L 61.86518 98.6562 
L 61.86518 87.6078 
L 28.10618 87.6078 
z
" style="fill: #ffffff; stroke: #1e2a33; stroke-linejoin: miter"/>
   </g>
   <g id="patch_15">
    <path d="M 35.77868 98.0424 
L 49.58918 98.0424 
L 49.58918 88.2216 
L 35.77868 88.2216 
z
" style="fill: #cddfe5"/>
   </g>
   <g id="line2d_1">
    <path d="M 121.71068 80.856 
L 121.71068 74.718 
" clip-path="url(#pb3a44a4c6c)" style="fill: none; stroke: #1e2a33; stroke-width: 0.7; stroke-linecap: square"/>
   </g>
   <g id="line2d_2">
    <path d="M 137.05568 80.856 
L 137.05568 74.718 
" clip-path="url(#pb3a44a4c6c)" style="fill: none; stroke: #1e2a33; stroke-width: 0.7; stroke-linecap: square"/>
   </g>
   <g id="line2d_3">
    <path d="M 152.40068 80.856 
L 152.40068 74.718 
" clip-path="url(#pb3a44a4c6c)" style="fill: none; stroke: #1e2a33; stroke-width: 0.7; stroke-linecap: square"/>
   </g>
   <g id="line2d_4">
    <path d="M 167.74568 80.856 
L 167.74568 74.718 
" clip-path="url(#pb3a44a4c6c)" style="fill: none; stroke: #1e2a33; stroke-width: 0.7; stroke-linecap: square"/>
   </g>
   <g id="line2d_5">
    <path d="M 183.09068 80.856 
L 183.09068 74.718 
" clip-path="url(#pb3a44a4c6c)" style="fill: none; stroke: #1e2a33; stroke-width: 0.7; stroke-linecap: square"/>
   </g>
   <g id="line2d_6">
    <path d="M 198.43568 80.856 
L 198.43568 74.718 
" clip-path="url(#pb3a44a4c6c)" style="fill: none; stroke: #1e2a33; stroke-width: 0.7; stroke-linecap: square"/>
   </g>
   <g id="line2d_7">
    <path d="M 213.78068 80.856 
L 213.78068 74.718 
" clip-path="url(#pb3a44a4c6c)" style="fill: none; stroke: #1e2a33; stroke-width: 0.7; stroke-linecap: square"/>
   </g>
   <g id="line2d_8">
    <path d="M 229.12568 80.856 
L 229.12568 74.718 
" clip-path="url(#pb3a44a4c6c)" style="fill: none; stroke: #1e2a33; stroke-width: 0.7; stroke-linecap: square"/>
   </g>
   <g id="line2d_9">
    <path d="M 244.47068 80.856 
L 244.47068 74.718 
" clip-path="url(#pb3a44a4c6c)" style="fill: none; stroke: #1e2a33; stroke-width: 0.7; stroke-linecap: square"/>
   </g>
   <g id="line2d_10">
    <path d="M 259.81568 80.856 
L 259.81568 74.718 
" clip-path="url(#pb3a44a4c6c)" style="fill: none; stroke: #1e2a33; stroke-width: 0.7; stroke-linecap: square"/>
   </g>
   <g id="line2d_11">
    <path d="M 207.64268 93.132 
L 364.16168 93.132 
" clip-path="url(#pb3a44a4c6c)" style="fill: none; stroke: #1e2a33; stroke-width: 2.2; stroke-linecap: square"/>
   </g>
   <g id="line2d_12">
    <path d="M 61.86518 93.132 
L 99.61388 93.132 
" clip-path="url(#pb3a44a4c6c)" style="fill: none; stroke: #1e2a33; stroke-linecap: square"/>
   </g>
   <g id="line2d_13">
    <path d="M 20.43368 93.132 
L 28.10618 93.132 
" style="fill: none; stroke: #1e2a33; stroke-width: 1.6; stroke-linecap: square"/>
   </g>
   <g id="text_1">
    <!-- oven or steam jacket at T, above the boiling point -->
    <g transform="translate(117.395625 65.511) scale(0.085 -0.085)">
     <defs>
      <path id="IBMPlexSans-6f" d="M 1792 -77 
Q 1459 -77 1184 44 
Q 909 166 713 393 
Q 518 621 409 937 
Q 301 1254 301 1651 
Q 301 2042 409 2362 
Q 518 2682 713 2909 
Q 909 3136 1184 3257 
Q 1459 3379 1792 3379 
Q 2125 3379 2397 3257 
Q 2669 3136 2867 2909 
Q 3066 2682 3174 2362 
Q 3283 2042 3283 1651 
Q 3283 1254 3174 937 
Q 3066 621 2867 393 
Q 2669 166 2397 44 
Q 2125 -77 1792 -77 
z
M 1792 378 
Q 2208 378 2470 634 
Q 2733 890 2733 1414 
L 2733 1888 
Q 2733 2413 2470 2669 
Q 2208 2925 1792 2925 
Q 1376 2925 1113 2669 
Q 851 2413 851 1888 
L 851 1414 
Q 851 890 1113 634 
Q 1376 378 1792 378 
z
" transform="scale(0.015625)"/>
      <path id="IBMPlexSans-76" d="M 1274 0 
L 115 3302 
L 627 3302 
L 1203 1664 
L 1562 538 
L 1594 538 
L 1952 1664 
L 2541 3302 
L 3034 3302 
L 1869 0 
L 1274 0 
z
" transform="scale(0.015625)"/>
      <path id="IBMPlexSans-65" d="M 1786 -77 
Q 1446 -77 1174 44 
Q 902 166 707 393 
Q 512 621 406 937 
Q 301 1254 301 1651 
Q 301 2042 406 2362 
Q 512 2682 707 2909 
Q 902 3136 1174 3257 
Q 1446 3379 1786 3379 
Q 2118 3379 2380 3257 
Q 2643 3136 2828 2921 
Q 3014 2707 3113 2412 
Q 3213 2118 3213 1766 
L 3213 1523 
L 838 1523 
L 838 1370 
Q 838 1158 905 976 
Q 973 794 1097 659 
Q 1222 525 1404 448 
Q 1587 371 1818 371 
Q 2131 371 2364 518 
Q 2598 666 2726 941 
L 3091 678 
Q 2931 339 2592 131 
Q 2253 -77 1786 -77 
z
M 1786 2950 
Q 1574 2950 1401 2876 
Q 1229 2803 1104 2668 
Q 979 2534 908 2352 
Q 838 2170 838 1952 
L 838 1907 
L 2662 1907 
L 2662 1978 
Q 2662 2419 2422 2684 
Q 2182 2950 1786 2950 
z
" transform="scale(0.015625)"/>
      <path id="IBMPlexSans-6e" d="M 544 0 
L 544 3302 
L 1056 3302 
L 1056 2765 
L 1082 2765 
Q 1203 3046 1424 3212 
Q 1645 3379 2016 3379 
Q 2528 3379 2825 3049 
Q 3123 2720 3123 2118 
L 3123 0 
L 2611 0 
L 2611 2029 
Q 2611 2918 1862 2918 
Q 1709 2918 1565 2880 
Q 1421 2842 1305 2765 
Q 1190 2688 1123 2569 
Q 1056 2451 1056 2291 
L 1056 0 
L 544 0 
z
" transform="scale(0.015625)"/>
      <path id="IBMPlexSans-20" transform="scale(0.015625)"/>
      <path id="IBMPlexSans-72" d="M 544 0 
L 544 3302 
L 1056 3302 
L 1056 2694 
L 1088 2694 
Q 1178 2931 1408 3116 
Q 1638 3302 2042 3302 
L 2240 3302 
L 2240 2790 
L 1939 2790 
Q 1523 2790 1289 2633 
Q 1056 2477 1056 2240 
L 1056 0 
L 544 0 
z
" transform="scale(0.015625)"/>
      <path id="IBMPlexSans-73" d="M 1536 -77 
Q 1075 -77 764 99 
Q 454 275 230 570 
L 595 864 
Q 787 621 1024 489 
Q 1261 358 1574 358 
Q 1901 358 2083 499 
Q 2266 640 2266 896 
Q 2266 1088 2141 1225 
Q 2016 1363 1690 1414 
L 1427 1453 
Q 1197 1485 1005 1552 
Q 813 1619 669 1731 
Q 525 1843 445 2009 
Q 365 2176 365 2406 
Q 365 2650 454 2832 
Q 544 3014 701 3136 
Q 858 3258 1075 3318 
Q 1293 3379 1542 3379 
Q 1946 3379 2218 3238 
Q 2490 3098 2694 2848 
L 2355 2541 
Q 2246 2694 2035 2819 
Q 1824 2944 1504 2944 
Q 1184 2944 1021 2806 
Q 858 2669 858 2432 
Q 858 2189 1021 2080 
Q 1184 1971 1491 1920 
L 1747 1882 
Q 2298 1798 2528 1564 
Q 2758 1331 2758 954 
Q 2758 474 2432 198 
Q 2106 -77 1536 -77 
z
" transform="scale(0.015625)"/>
      <path id="IBMPlexSans-74" d="M 1274 0 
Q 1005 0 867 150 
Q 730 301 730 544 
L 730 2854 
L 186 2854 
L 186 3302 
L 493 3302 
Q 659 3302 720 3369 
Q 781 3437 781 3603 
L 781 4218 
L 1242 4218 
L 1242 3302 
L 1965 3302 
L 1965 2854 
L 1242 2854 
L 1242 448 
L 1914 448 
L 1914 0 
L 1274 0 
z
" transform="scale(0.015625)"/>
      <path id="IBMPlexSans-61" d="M 2944 0 
Q 2656 0 2531 153 
Q 2406 307 2374 538 
L 2342 538 
Q 2234 230 1984 76 
Q 1734 -77 1389 -77 
Q 864 -77 573 192 
Q 282 461 282 922 
Q 282 1389 624 1638 
Q 966 1888 1690 1888 
L 2342 1888 
L 2342 2214 
Q 2342 2566 2150 2752 
Q 1958 2938 1562 2938 
Q 1261 2938 1059 2803 
Q 858 2669 723 2445 
L 416 2733 
Q 550 3002 844 3190 
Q 1139 3379 1587 3379 
Q 2189 3379 2521 3084 
Q 2854 2790 2854 2266 
L 2854 448 
L 3232 448 
L 3232 0 
L 2944 0 
z
M 1472 358 
Q 1664 358 1824 403 
Q 1984 448 2099 531 
Q 2214 614 2278 723 
Q 2342 832 2342 960 
L 2342 1504 
L 1664 1504 
Q 1222 1504 1020 1376 
Q 819 1248 819 1005 
L 819 870 
Q 819 627 995 492 
Q 1171 358 1472 358 
z
" transform="scale(0.015625)"/>
      <path id="IBMPlexSans-6d" d="M 544 0 
L 544 3302 
L 1056 3302 
L 1056 2765 
L 1082 2765 
Q 1139 2893 1212 3005 
Q 1286 3117 1392 3200 
Q 1498 3283 1638 3331 
Q 1779 3379 1971 3379 
Q 2298 3379 2573 3222 
Q 2848 3066 2982 2707 
L 2995 2707 
Q 3085 2976 3331 3177 
Q 3578 3379 4000 3379 
Q 4506 3379 4790 3049 
Q 5075 2720 5075 2118 
L 5075 0 
L 4563 0 
L 4563 2029 
Q 4563 2470 4390 2694 
Q 4218 2918 3840 2918 
Q 3686 2918 3548 2880 
Q 3411 2842 3302 2765 
Q 3194 2688 3130 2569 
Q 3066 2451 3066 2291 
L 3066 0 
L 2554 0 
L 2554 2029 
Q 2554 2470 2381 2694 
Q 2208 2918 1843 2918 
Q 1690 2918 1549 2880 
Q 1408 2842 1299 2765 
Q 1190 2688 1123 2569 
Q 1056 2451 1056 2291 
L 1056 0 
L 544 0 
z
" transform="scale(0.015625)"/>
      <path id="IBMPlexSans-6a" d="M 544 3302 
L 1056 3302 
L 1056 -512 
Q 1056 -858 883 -1069 
Q 710 -1280 339 -1280 
L 6 -1280 
L 6 -832 
L 544 -832 
L 544 3302 
z
M 800 4077 
Q 634 4077 560 4157 
Q 486 4237 486 4365 
L 486 4448 
Q 486 4576 560 4656 
Q 634 4736 800 4736 
Q 966 4736 1040 4656 
Q 1114 4576 1114 4448 
L 1114 4365 
Q 1114 4237 1040 4157 
Q 966 4077 800 4077 
z
" transform="scale(0.015625)"/>
      <path id="IBMPlexSans-63" d="M 1773 -77 
Q 1427 -77 1152 44 
Q 877 166 688 390 
Q 499 614 400 934 
Q 301 1254 301 1651 
Q 301 2048 400 2368 
Q 499 2688 688 2912 
Q 877 3136 1152 3257 
Q 1427 3379 1773 3379 
Q 2266 3379 2563 3164 
Q 2861 2950 3008 2605 
L 2579 2387 
Q 2490 2643 2285 2784 
Q 2080 2925 1773 2925 
Q 1542 2925 1369 2851 
Q 1197 2778 1081 2646 
Q 966 2515 908 2332 
Q 851 2150 851 1933 
L 851 1370 
Q 851 934 1084 656 
Q 1318 378 1773 378 
Q 2394 378 2669 954 
L 3040 704 
Q 2880 346 2563 134 
Q 2246 -77 1773 -77 
z
" transform="scale(0.015625)"/>
      <path id="IBMPlexSans-6b" d="M 544 4736 
L 1056 4736 
L 1056 1734 
L 1082 1734 
L 1587 2298 
L 2522 3302 
L 3142 3302 
L 1920 1997 
L 3264 0 
L 2643 0 
L 1549 1683 
L 1056 1178 
L 1056 0 
L 544 0 
L 544 4736 
z
" transform="scale(0.015625)"/>
      <path id="IBMPlexSans-54" d="M 2099 3994 
L 2099 0 
L 1562 0 
L 1562 3994 
L 141 3994 
L 141 4467 
L 3520 4467 
L 3520 3994 
L 2099 3994 
z
" transform="scale(0.015625)"/>
      <path id="IBMPlexSans-2c" d="M 870 749 
Q 1075 749 1168 643 
Q 1261 538 1261 371 
L 1261 282 
Q 1261 19 1107 -297 
Q 954 -614 678 -851 
L 250 -851 
Q 442 -646 560 -464 
Q 678 -282 730 -58 
Q 602 -26 541 64 
Q 480 154 480 282 
L 480 371 
Q 480 538 573 643 
Q 666 749 870 749 
z
" transform="scale(0.015625)"/>
      <path id="IBMPlexSans-62" d="M 544 4736 
L 1056 4736 
L 1056 2765 
L 1082 2765 
Q 1210 3078 1456 3228 
Q 1702 3379 2048 3379 
Q 2355 3379 2604 3257 
Q 2854 3136 3030 2912 
Q 3206 2688 3299 2368 
Q 3392 2048 3392 1651 
Q 3392 1254 3299 934 
Q 3206 614 3030 390 
Q 2854 166 2604 44 
Q 2355 -77 2048 -77 
Q 1376 -77 1082 538 
L 1056 538 
L 1056 0 
L 544 0 
L 544 4736 
z
M 1907 384 
Q 2342 384 2592 656 
Q 2842 928 2842 1370 
L 2842 1933 
Q 2842 2374 2592 2646 
Q 2342 2918 1907 2918 
Q 1734 2918 1577 2870 
Q 1421 2822 1305 2739 
Q 1190 2656 1123 2537 
Q 1056 2419 1056 2285 
L 1056 1056 
Q 1056 896 1123 771 
Q 1190 646 1305 560 
Q 1421 474 1577 429 
Q 1734 384 1907 384 
z
" transform="scale(0.015625)"/>
      <path id="IBMPlexSans-68" d="M 544 4736 
L 1056 4736 
L 1056 2765 
L 1082 2765 
Q 1203 3046 1424 3212 
Q 1645 3379 2016 3379 
Q 2528 3379 2825 3049 
Q 3123 2720 3123 2118 
L 3123 0 
L 2611 0 
L 2611 2029 
Q 2611 2918 1862 2918 
Q 1709 2918 1565 2880 
Q 1421 2842 1305 2765 
Q 1190 2688 1123 2569 
Q 1056 2451 1056 2291 
L 1056 0 
L 544 0 
L 544 4736 
z
" transform="scale(0.015625)"/>
      <path id="IBMPlexSans-69" d="M 800 4077 
Q 634 4077 560 4157 
Q 486 4237 486 4365 
L 486 4448 
Q 486 4576 560 4656 
Q 634 4736 800 4736 
Q 966 4736 1040 4656 
Q 1114 4576 1114 4448 
L 1114 4365 
Q 1114 4237 1040 4157 
Q 966 4077 800 4077 
z
M 544 3302 
L 1056 3302 
L 1056 0 
L 544 0 
L 544 3302 
z
" transform="scale(0.015625)"/>
      <path id="IBMPlexSans-6c" d="M 1088 0 
Q 819 0 681 150 
Q 544 301 544 531 
L 544 4736 
L 1056 4736 
L 1056 448 
L 1542 448 
L 1542 0 
L 1088 0 
z
" transform="scale(0.015625)"/>
      <path id="IBMPlexSans-67" d="M 3328 -365 
Q 3328 -877 2928 -1117 
Q 2528 -1357 1728 -1357 
Q 954 -1357 614 -1145 
Q 275 -934 275 -544 
Q 275 -275 416 -124 
Q 557 26 800 96 
L 800 166 
Q 506 307 506 627 
Q 506 877 666 1008 
Q 826 1139 1075 1203 
L 1075 1229 
Q 781 1370 617 1632 
Q 454 1894 454 2240 
Q 454 2490 544 2701 
Q 634 2912 797 3062 
Q 960 3213 1187 3296 
Q 1414 3379 1696 3379 
Q 2048 3379 2323 3251 
L 2323 3309 
Q 2323 3501 2412 3625 
Q 2502 3750 2707 3750 
L 3200 3750 
L 3200 3302 
L 2573 3302 
L 2573 3091 
Q 2752 2938 2851 2723 
Q 2950 2509 2950 2240 
Q 2950 1990 2860 1779 
Q 2771 1568 2608 1417 
Q 2445 1267 2214 1184 
Q 1984 1101 1702 1101 
Q 1542 1101 1382 1133 
Q 1216 1088 1081 1001 
Q 947 915 947 762 
Q 947 614 1088 563 
Q 1229 512 1453 512 
L 2157 512 
Q 2771 512 3049 278 
Q 3328 45 3328 -365 
z
M 2848 -403 
Q 2848 -205 2697 -86 
Q 2547 32 2163 32 
L 1062 32 
Q 755 -109 755 -416 
Q 755 -634 918 -787 
Q 1082 -941 1472 -941 
L 1946 -941 
Q 2374 -941 2611 -806 
Q 2848 -672 2848 -403 
z
M 1702 1510 
Q 2029 1510 2221 1667 
Q 2413 1824 2413 2150 
L 2413 2330 
Q 2413 2656 2221 2813 
Q 2029 2970 1702 2970 
Q 1376 2970 1184 2813 
Q 992 2656 992 2330 
L 992 2150 
Q 992 1824 1184 1667 
Q 1376 1510 1702 1510 
z
" transform="scale(0.015625)"/>
      <path id="IBMPlexSans-70" d="M 544 3302 
L 1056 3302 
L 1056 2765 
L 1082 2765 
Q 1210 3078 1456 3228 
Q 1702 3379 2048 3379 
Q 2355 3379 2604 3257 
Q 2854 3136 3030 2912 
Q 3206 2688 3299 2368 
Q 3392 2048 3392 1651 
Q 3392 1254 3299 934 
Q 3206 614 3030 390 
Q 2854 166 2604 44 
Q 2355 -77 2048 -77 
Q 1376 -77 1082 538 
L 1056 538 
L 1056 -1280 
L 544 -1280 
L 544 3302 
z
M 1907 384 
Q 2342 384 2592 656 
Q 2842 928 2842 1370 
L 2842 1933 
Q 2842 2374 2592 2646 
Q 2342 2918 1907 2918 
Q 1734 2918 1577 2870 
Q 1421 2822 1305 2739 
Q 1190 2656 1123 2537 
Q 1056 2419 1056 2285 
L 1056 1056 
Q 1056 896 1123 771 
Q 1190 646 1305 560 
Q 1421 474 1577 429 
Q 1734 384 1907 384 
z
" transform="scale(0.015625)"/>
     </defs>
     <use xlink:href="#IBMPlexSans-6f"/>
     <use xlink:href="#IBMPlexSans-76" transform="translate(55.999985 0)"/>
     <use xlink:href="#IBMPlexSans-65" transform="translate(105.199982 0)"/>
     <use xlink:href="#IBMPlexSans-6e" transform="translate(160.099976 0)"/>
     <use xlink:href="#IBMPlexSans-20" transform="translate(216.899963 0)"/>
     <use xlink:href="#IBMPlexSans-6f" transform="translate(240.499954 0)"/>
     <use xlink:href="#IBMPlexSans-72" transform="translate(296.499939 0)"/>
     <use xlink:href="#IBMPlexSans-20" transform="translate(333.199936 0)"/>
     <use xlink:href="#IBMPlexSans-73" transform="translate(356.799927 0)"/>
     <use xlink:href="#IBMPlexSans-74" transform="translate(405.499924 0)"/>
     <use xlink:href="#IBMPlexSans-65" transform="translate(440.599915 0)"/>
     <use xlink:href="#IBMPlexSans-61" transform="translate(495.499908 0)"/>
     <use xlink:href="#IBMPlexSans-6d" transform="translate(548.899902 0)"/>
     <use xlink:href="#IBMPlexSans-20" transform="translate(636.19989 0)"/>
     <use xlink:href="#IBMPlexSans-6a" transform="translate(659.799881 0)"/>
     <use xlink:href="#IBMPlexSans-61" transform="translate(684.799866 0)"/>
     <use xlink:href="#IBMPlexSans-63" transform="translate(738.19986 0)"/>
     <use xlink:href="#IBMPlexSans-6b" transform="translate(788.499847 0)"/>
     <use xlink:href="#IBMPlexSans-65" transform="translate(841.199844 0)"/>
     <use xlink:href="#IBMPlexSans-74" transform="translate(896.099838 0)"/>
     <use xlink:href="#IBMPlexSans-20" transform="translate(931.199829 0)"/>
     <use xlink:href="#IBMPlexSans-61" transform="translate(954.79982 0)"/>
     <use xlink:href="#IBMPlexSans-74" transform="translate(1008.199814 0)"/>
     <use xlink:href="#IBMPlexSans-20" transform="translate(1043.299805 0)"/>
     <use xlink:href="#IBMPlexSans-54" transform="translate(1066.899796 0)"/>
     <use xlink:href="#IBMPlexSans-2c" transform="translate(1124.099792 0)"/>
     <use xlink:href="#IBMPlexSans-20" transform="translate(1151.299789 0)"/>
     <use xlink:href="#IBMPlexSans-61" transform="translate(1174.89978 0)"/>
     <use xlink:href="#IBMPlexSans-62" transform="translate(1228.299774 0)"/>
     <use xlink:href="#IBMPlexSans-6f" transform="translate(1286.299759 0)"/>
     <use xlink:href="#IBMPlexSans-76" transform="translate(1342.299744 0)"/>
     <use xlink:href="#IBMPlexSans-65" transform="translate(1391.499741 0)"/>
     <use xlink:href="#IBMPlexSans-20" transform="translate(1446.399734 0)"/>
     <use xlink:href="#IBMPlexSans-74" transform="translate(1469.999725 0)"/>
     <use xlink:href="#IBMPlexSans-68" transform="translate(1505.099716 0)"/>
     <use xlink:href="#IBMPlexSans-65" transform="translate(1561.899704 0)"/>
     <use xlink:href="#IBMPlexSans-20" transform="translate(1616.799698 0)"/>
     <use xlink:href="#IBMPlexSans-62" transform="translate(1640.399689 0)"/>
     <use xlink:href="#IBMPlexSans-6f" transform="translate(1698.399673 0)"/>
     <use xlink:href="#IBMPlexSans-69" transform="translate(1754.399658 0)"/>
     <use xlink:href="#IBMPlexSans-6c" transform="translate(1779.399643 0)"/>
     <use xlink:href="#IBMPlexSans-69" transform="translate(1806.59964 0)"/>
     <use xlink:href="#IBMPlexSans-6e" transform="translate(1831.599625 0)"/>
     <use xlink:href="#IBMPlexSans-67" transform="translate(1888.399612 0)"/>
     <use xlink:href="#IBMPlexSans-20" transform="translate(1941.1996 0)"/>
     <use xlink:href="#IBMPlexSans-70" transform="translate(1964.799591 0)"/>
     <use xlink:href="#IBMPlexSans-6f" transform="translate(2022.799576 0)"/>
     <use xlink:href="#IBMPlexSans-69" transform="translate(2078.799561 0)"/>
     <use xlink:href="#IBMPlexSans-6e" transform="translate(2103.799545 0)"/>
     <use xlink:href="#IBMPlexSans-74" transform="translate(2160.599533 0)"/>
    </g>
   </g>
   <g id="text_2">
    <!-- vapour, volume V -->
    <g style="fill: #1f6f8b" transform="translate(117.444117 125.3565) scale(0.09 -0.09)">
     <defs>
      <path id="IBMPlexSans-75" d="M 2579 538 
L 2554 538 
Q 2502 422 2428 310 
Q 2355 198 2246 112 
Q 2138 26 1984 -25 
Q 1830 -77 1626 -77 
Q 1114 -77 813 252 
Q 512 582 512 1184 
L 512 3302 
L 1024 3302 
L 1024 1274 
Q 1024 384 1779 384 
Q 1933 384 2077 422 
Q 2221 461 2333 537 
Q 2445 614 2512 732 
Q 2579 851 2579 1018 
L 2579 3302 
L 3091 3302 
L 3091 0 
L 2579 0 
L 2579 538 
z
" transform="scale(0.015625)"/>
      <path id="IBMPlexSans-56" d="M 1613 0 
L 128 4467 
L 704 4467 
L 1440 2214 
L 1933 538 
L 1965 538 
L 2470 2214 
L 3213 4467 
L 3770 4467 
L 2266 0 
L 1613 0 
z
" transform="scale(0.015625)"/>
     </defs>
     <use xlink:href="#IBMPlexSans-76"/>
     <use xlink:href="#IBMPlexSans-61" transform="translate(49.199997 0)"/>
     <use xlink:href="#IBMPlexSans-70" transform="translate(102.599991 0)"/>
     <use xlink:href="#IBMPlexSans-6f" transform="translate(160.599976 0)"/>
     <use xlink:href="#IBMPlexSans-75" transform="translate(216.59996 0)"/>
     <use xlink:href="#IBMPlexSans-72" transform="translate(273.399948 0)"/>
     <use xlink:href="#IBMPlexSans-2c" transform="translate(310.099945 0)"/>
     <use xlink:href="#IBMPlexSans-20" transform="translate(337.299942 0)"/>
     <use xlink:href="#IBMPlexSans-76" transform="translate(360.899933 0)"/>
     <use xlink:href="#IBMPlexSans-6f" transform="translate(410.09993 0)"/>
     <use xlink:href="#IBMPlexSans-6c" transform="translate(466.099915 0)"/>
     <use xlink:href="#IBMPlexSans-75" transform="translate(493.299911 0)"/>
     <use xlink:href="#IBMPlexSans-6d" transform="translate(550.099899 0)"/>
     <use xlink:href="#IBMPlexSans-65" transform="translate(637.399887 0)"/>
     <use xlink:href="#IBMPlexSans-20" transform="translate(692.299881 0)"/>
     <use xlink:href="#IBMPlexSans-56" transform="translate(715.899872 0)"/>
    </g>
   </g>
   <g id="text_3">
    <!-- small hypodermic syringe: -->
    <g transform="translate(7.2 142.751234) scale(0.085 -0.085)">
     <defs>
      <path id="IBMPlexSans-79" d="M 2579 3302 
L 3085 3302 
L 1606 -768 
Q 1549 -915 1491 -1014 
Q 1434 -1114 1350 -1171 
Q 1267 -1229 1142 -1254 
Q 1018 -1280 838 -1280 
L 576 -1280 
L 576 -832 
L 1094 -832 
L 1344 -128 
L 109 3302 
L 621 3302 
L 1414 1056 
L 1568 518 
L 1600 518 
L 1779 1056 
L 2579 3302 
z
" transform="scale(0.015625)"/>
      <path id="IBMPlexSans-64" d="M 2656 538 
L 2630 538 
Q 2330 -77 1664 -77 
Q 1357 -77 1107 44 
Q 858 166 682 390 
Q 506 614 413 934 
Q 320 1254 320 1651 
Q 320 2048 413 2368 
Q 506 2688 682 2912 
Q 858 3136 1107 3257 
Q 1357 3379 1664 3379 
Q 2010 3379 2256 3228 
Q 2502 3078 2630 2765 
L 2656 2765 
L 2656 4736 
L 3168 4736 
L 3168 0 
L 2656 0 
L 2656 538 
z
M 1805 384 
Q 1978 384 2134 429 
Q 2291 474 2406 560 
Q 2522 646 2589 771 
Q 2656 896 2656 1056 
L 2656 2285 
Q 2656 2419 2589 2537 
Q 2522 2656 2406 2739 
Q 2291 2822 2134 2870 
Q 1978 2918 1805 2918 
Q 1370 2918 1120 2646 
Q 870 2374 870 1933 
L 870 1370 
Q 870 928 1120 656 
Q 1370 384 1805 384 
z
" transform="scale(0.015625)"/>
      <path id="IBMPlexSans-3a" d="M 934 -77 
Q 730 -77 637 25 
Q 544 128 544 294 
L 544 378 
Q 544 544 637 646 
Q 730 749 934 749 
Q 1139 749 1232 646 
Q 1325 544 1325 378 
L 1325 294 
Q 1325 128 1232 25 
Q 1139 -77 934 -77 
z
M 934 2547 
Q 730 2547 637 2649 
Q 544 2752 544 2918 
L 544 3002 
Q 544 3168 637 3270 
Q 730 3373 934 3373 
Q 1139 3373 1232 3270 
Q 1325 3168 1325 3002 
L 1325 2918 
Q 1325 2752 1232 2649 
Q 1139 2547 934 2547 
z
" transform="scale(0.015625)"/>
     </defs>
     <use xlink:href="#IBMPlexSans-73"/>
     <use xlink:href="#IBMPlexSans-6d" transform="translate(48.699997 0)"/>
     <use xlink:href="#IBMPlexSans-61" transform="translate(135.999985 0)"/>
     <use xlink:href="#IBMPlexSans-6c" transform="translate(189.399979 0)"/>
     <use xlink:href="#IBMPlexSans-6c" transform="translate(216.599976 0)"/>
     <use xlink:href="#IBMPlexSans-20" transform="translate(243.799973 0)"/>
     <use xlink:href="#IBMPlexSans-68" transform="translate(267.399963 0)"/>
     <use xlink:href="#IBMPlexSans-79" transform="translate(324.199951 0)"/>
     <use xlink:href="#IBMPlexSans-70" transform="translate(374.099945 0)"/>
     <use xlink:href="#IBMPlexSans-6f" transform="translate(432.09993 0)"/>
     <use xlink:href="#IBMPlexSans-64" transform="translate(488.099915 0)"/>
     <use xlink:href="#IBMPlexSans-65" transform="translate(546.099899 0)"/>
     <use xlink:href="#IBMPlexSans-72" transform="translate(600.999893 0)"/>
     <use xlink:href="#IBMPlexSans-6d" transform="translate(637.69989 0)"/>
     <use xlink:href="#IBMPlexSans-69" transform="translate(724.999878 0)"/>
     <use xlink:href="#IBMPlexSans-63" transform="translate(749.999863 0)"/>
     <use xlink:href="#IBMPlexSans-20" transform="translate(800.29985 0)"/>
     <use xlink:href="#IBMPlexSans-73" transform="translate(823.899841 0)"/>
     <use xlink:href="#IBMPlexSans-79" transform="translate(872.599838 0)"/>
     <use xlink:href="#IBMPlexSans-72" transform="translate(922.499832 0)"/>
     <use xlink:href="#IBMPlexSans-69" transform="translate(959.199829 0)"/>
     <use xlink:href="#IBMPlexSans-6e" transform="translate(984.199814 0)"/>
     <use xlink:href="#IBMPlexSans-67" transform="translate(1040.999802 0)"/>
     <use xlink:href="#IBMPlexSans-65" transform="translate(1093.799789 0)"/>
     <use xlink:href="#IBMPlexSans-3a" transform="translate(1148.699783 0)"/>
    </g>
    <!-- mass of liquid injected, m -->
    <g transform="translate(8.582578 152.1015) scale(0.085 -0.085)">
     <defs>
      <path id="IBMPlexSans-66" d="M 723 2854 
L 186 2854 
L 186 3302 
L 723 3302 
L 723 3968 
Q 723 4314 902 4525 
Q 1082 4736 1446 4736 
L 1946 4736 
L 1946 4288 
L 1235 4288 
L 1235 3302 
L 1946 3302 
L 1946 2854 
L 1235 2854 
L 1235 0 
L 723 0 
L 723 2854 
z
" transform="scale(0.015625)"/>
      <path id="IBMPlexSans-71" d="M 2656 538 
L 2630 538 
Q 2330 -77 1664 -77 
Q 1357 -77 1107 44 
Q 858 166 682 390 
Q 506 614 413 934 
Q 320 1254 320 1651 
Q 320 2048 413 2368 
Q 506 2688 682 2912 
Q 858 3136 1107 3257 
Q 1357 3379 1664 3379 
Q 2010 3379 2256 3228 
Q 2502 3078 2630 2765 
L 2656 2765 
L 2656 3302 
L 3168 3302 
L 3168 -1280 
L 2656 -1280 
L 2656 538 
z
M 1805 384 
Q 1978 384 2134 429 
Q 2291 474 2406 560 
Q 2522 646 2589 771 
Q 2656 896 2656 1056 
L 2656 2285 
Q 2656 2419 2589 2537 
Q 2522 2656 2406 2739 
Q 2291 2822 2134 2870 
Q 1978 2918 1805 2918 
Q 1370 2918 1120 2646 
Q 870 2374 870 1933 
L 870 1370 
Q 870 928 1120 656 
Q 1370 384 1805 384 
z
" transform="scale(0.015625)"/>
     </defs>
     <use xlink:href="#IBMPlexSans-6d"/>
     <use xlink:href="#IBMPlexSans-61" transform="translate(87.299988 0)"/>
     <use xlink:href="#IBMPlexSans-73" transform="translate(140.699982 0)"/>
     <use xlink:href="#IBMPlexSans-73" transform="translate(189.399979 0)"/>
     <use xlink:href="#IBMPlexSans-20" transform="translate(238.099976 0)"/>
     <use xlink:href="#IBMPlexSans-6f" transform="translate(261.699966 0)"/>
     <use xlink:href="#IBMPlexSans-66" transform="translate(317.699951 0)"/>
     <use xlink:href="#IBMPlexSans-20" transform="translate(350.099945 0)"/>
     <use xlink:href="#IBMPlexSans-6c" transform="translate(373.699936 0)"/>
     <use xlink:href="#IBMPlexSans-69" transform="translate(400.899933 0)"/>
     <use xlink:href="#IBMPlexSans-71" transform="translate(425.899918 0)"/>
     <use xlink:href="#IBMPlexSans-75" transform="translate(483.899902 0)"/>
     <use xlink:href="#IBMPlexSans-69" transform="translate(540.69989 0)"/>
     <use xlink:href="#IBMPlexSans-64" transform="translate(565.699875 0)"/>
     <use xlink:href="#IBMPlexSans-20" transform="translate(623.69986 0)"/>
     <use xlink:href="#IBMPlexSans-69" transform="translate(647.29985 0)"/>
     <use xlink:href="#IBMPlexSans-6e" transform="translate(672.299835 0)"/>
     <use xlink:href="#IBMPlexSans-6a" transform="translate(729.099823 0)"/>
     <use xlink:href="#IBMPlexSans-65" transform="translate(754.099808 0)"/>
     <use xlink:href="#IBMPlexSans-63" transform="translate(808.999802 0)"/>
     <use xlink:href="#IBMPlexSans-74" transform="translate(859.299789 0)"/>
     <use xlink:href="#IBMPlexSans-65" transform="translate(894.39978 0)"/>
     <use xlink:href="#IBMPlexSans-64" transform="translate(949.299774 0)"/>
     <use xlink:href="#IBMPlexSans-2c" transform="translate(1007.299759 0)"/>
     <use xlink:href="#IBMPlexSans-20" transform="translate(1034.499756 0)"/>
     <use xlink:href="#IBMPlexSans-6d" transform="translate(1058.099747 0)"/>
    </g>
    <!-- (weigh before and after) -->
    <g transform="translate(11.458633 161.5535) scale(0.085 -0.085)">
     <defs>
      <path id="IBMPlexSans-28" d="M 531 1997 
Q 531 2458 620 2886 
Q 710 3315 867 3683 
Q 1024 4051 1235 4352 
Q 1446 4653 1690 4864 
L 2176 4864 
Q 1907 4621 1692 4313 
Q 1478 4006 1328 3660 
Q 1178 3315 1094 2956 
Q 1011 2598 1011 2266 
L 1011 1715 
Q 1011 1376 1094 1017 
Q 1178 659 1331 313 
Q 1485 -32 1699 -339 
Q 1914 -646 2176 -877 
L 1690 -877 
Q 1453 -678 1241 -377 
Q 1030 -77 873 294 
Q 717 666 624 1098 
Q 531 1530 531 1997 
z
" transform="scale(0.015625)"/>
      <path id="IBMPlexSans-77" d="M 198 3302 
L 698 3302 
L 1050 1875 
L 1402 429 
L 1414 429 
L 1818 1875 
L 2234 3302 
L 2688 3302 
L 3117 1875 
L 3526 429 
L 3539 429 
L 3878 1875 
L 4237 3302 
L 4717 3302 
L 3840 0 
L 3206 0 
L 2746 1587 
L 2458 2592 
L 2445 2592 
L 2163 1587 
L 1702 0 
L 1082 0 
L 198 3302 
z
" transform="scale(0.015625)"/>
      <path id="IBMPlexSans-29" d="M 1613 1997 
Q 1613 1530 1520 1098 
Q 1427 666 1270 294 
Q 1114 -77 902 -377 
Q 691 -678 454 -877 
L -32 -877 
Q 230 -646 444 -339 
Q 659 -32 812 313 
Q 966 659 1049 1017 
Q 1133 1376 1133 1715 
L 1133 2266 
Q 1133 2598 1049 2956 
Q 966 3315 816 3660 
Q 666 4006 451 4313 
Q 237 4621 -32 4864 
L 454 4864 
Q 698 4653 909 4352 
Q 1120 4051 1277 3683 
Q 1434 3315 1523 2886 
Q 1613 2458 1613 1997 
z
" transform="scale(0.015625)"/>
     </defs>
     <use xlink:href="#IBMPlexSans-28"/>
     <use xlink:href="#IBMPlexSans-77" transform="translate(33.499985 0)"/>
     <use xlink:href="#IBMPlexSans-65" transform="translate(110.299973 0)"/>
     <use xlink:href="#IBMPlexSans-69" transform="translate(165.199966 0)"/>
     <use xlink:href="#IBMPlexSans-67" transform="translate(190.199951 0)"/>
     <use xlink:href="#IBMPlexSans-68" transform="translate(242.999939 0)"/>
     <use xlink:href="#IBMPlexSans-20" transform="translate(299.799927 0)"/>
     <use xlink:href="#IBMPlexSans-62" transform="translate(323.399918 0)"/>
     <use xlink:href="#IBMPlexSans-65" transform="translate(381.399902 0)"/>
     <use xlink:href="#IBMPlexSans-66" transform="translate(436.299896 0)"/>
     <use xlink:href="#IBMPlexSans-6f" transform="translate(468.69989 0)"/>
     <use xlink:href="#IBMPlexSans-72" transform="translate(524.699875 0)"/>
     <use xlink:href="#IBMPlexSans-65" transform="translate(561.399872 0)"/>
     <use xlink:href="#IBMPlexSans-20" transform="translate(616.299866 0)"/>
     <use xlink:href="#IBMPlexSans-61" transform="translate(639.899857 0)"/>
     <use xlink:href="#IBMPlexSans-6e" transform="translate(693.29985 0)"/>
     <use xlink:href="#IBMPlexSans-64" transform="translate(750.099838 0)"/>
     <use xlink:href="#IBMPlexSans-20" transform="translate(808.099823 0)"/>
     <use xlink:href="#IBMPlexSans-61" transform="translate(831.699814 0)"/>
     <use xlink:href="#IBMPlexSans-66" transform="translate(885.099808 0)"/>
     <use xlink:href="#IBMPlexSans-74" transform="translate(917.499802 0)"/>
     <use xlink:href="#IBMPlexSans-65" transform="translate(952.599792 0)"/>
     <use xlink:href="#IBMPlexSans-72" transform="translate(1007.499786 0)"/>
     <use xlink:href="#IBMPlexSans-29" transform="translate(1044.199783 0)"/>
    </g>
   </g>
   <g id="patch_16">
    <path d="M 53.781332 128.006097 
Q 51.123877 115.383188 48.627651 103.526115 
" style="fill: none; stroke: #1e2a33; stroke-width: 0.7; stroke-linecap: round"/>
    <path d="M 47.381288 108.284957 
L 48.627651 103.526115 
L 51.686907 107.378511 
z
" style="fill: #1e2a33; stroke: #1e2a33; stroke-width: 0.7; stroke-linecap: round"/>
   </g>
   <g id="text_4">
    <!-- self-sealing -->
    <g transform="translate(47.355336 20.164867) scale(0.085 -0.085)">
     <defs>
      <path id="IBMPlexSans-2d" d="M 442 1670 
L 442 2221 
L 2112 2221 
L 2112 1670 
L 442 1670 
z
" transform="scale(0.015625)"/>
     </defs>
     <use xlink:href="#IBMPlexSans-73"/>
     <use xlink:href="#IBMPlexSans-65" transform="translate(48.699997 0)"/>
     <use xlink:href="#IBMPlexSans-6c" transform="translate(103.599991 0)"/>
     <use xlink:href="#IBMPlexSans-66" transform="translate(130.799988 0)"/>
     <use xlink:href="#IBMPlexSans-2d" transform="translate(163.199982 0)"/>
     <use xlink:href="#IBMPlexSans-73" transform="translate(203.099976 0)"/>
     <use xlink:href="#IBMPlexSans-65" transform="translate(251.799973 0)"/>
     <use xlink:href="#IBMPlexSans-61" transform="translate(306.699966 0)"/>
     <use xlink:href="#IBMPlexSans-6c" transform="translate(360.09996 0)"/>
     <use xlink:href="#IBMPlexSans-69" transform="translate(387.299957 0)"/>
     <use xlink:href="#IBMPlexSans-6e" transform="translate(412.299942 0)"/>
     <use xlink:href="#IBMPlexSans-67" transform="translate(469.09993 0)"/>
    </g>
    <!-- rubber cap -->
    <g transform="translate(48.865414 29.515133) scale(0.085 -0.085)">
     <use xlink:href="#IBMPlexSans-72"/>
     <use xlink:href="#IBMPlexSans-75" transform="translate(36.699997 0)"/>
     <use xlink:href="#IBMPlexSans-62" transform="translate(93.499985 0)"/>
     <use xlink:href="#IBMPlexSans-62" transform="translate(151.499969 0)"/>
     <use xlink:href="#IBMPlexSans-65" transform="translate(209.499954 0)"/>
     <use xlink:href="#IBMPlexSans-72" transform="translate(264.399948 0)"/>
     <use xlink:href="#IBMPlexSans-20" transform="translate(301.099945 0)"/>
     <use xlink:href="#IBMPlexSans-63" transform="translate(324.699936 0)"/>
     <use xlink:href="#IBMPlexSans-61" transform="translate(374.999924 0)"/>
     <use xlink:href="#IBMPlexSans-70" transform="translate(428.399918 0)"/>
    </g>
   </g>
   <g id="patch_17">
    <path d="M 76.534059 36.62932 
Q 87.184205 59.065628 97.498744 80.794922 
" style="fill: none; stroke: #1e2a33; stroke-width: 0.7; stroke-linecap: round"/>
    <path d="M 97.599375 75.876602 
L 97.498744 80.794922 
L 93.624466 77.763425 
z
" style="fill: #1e2a33; stroke: #1e2a33; stroke-width: 0.7; stroke-linecap: round"/>
   </g>
   <g id="text_5">
    <!-- read V when the plunger stops; -->
    <g transform="translate(249.721828 147.528367) scale(0.085 -0.085)">
     <defs>
      <path id="IBMPlexSans-3b" d="M 934 749 
Q 1139 749 1232 643 
Q 1325 538 1325 371 
L 1325 282 
Q 1325 19 1171 -297 
Q 1018 -614 742 -851 
L 314 -851 
Q 506 -646 624 -464 
Q 742 -282 794 -58 
Q 666 -26 605 64 
Q 544 154 544 282 
L 544 371 
Q 544 538 637 643 
Q 730 749 934 749 
z
M 934 2547 
Q 730 2547 637 2649 
Q 544 2752 544 2918 
L 544 3002 
Q 544 3168 637 3270 
Q 730 3373 934 3373 
Q 1139 3373 1232 3270 
Q 1325 3168 1325 3002 
L 1325 2918 
Q 1325 2752 1232 2649 
Q 1139 2547 934 2547 
z
" transform="scale(0.015625)"/>
     </defs>
     <use xlink:href="#IBMPlexSans-72"/>
     <use xlink:href="#IBMPlexSans-65" transform="translate(36.699997 0)"/>
     <use xlink:href="#IBMPlexSans-61" transform="translate(91.599991 0)"/>
     <use xlink:href="#IBMPlexSans-64" transform="translate(144.999985 0)"/>
     <use xlink:href="#IBMPlexSans-20" transform="translate(202.999969 0)"/>
     <use xlink:href="#IBMPlexSans-56" transform="translate(226.59996 0)"/>
     <use xlink:href="#IBMPlexSans-20" transform="translate(287.499954 0)"/>
     <use xlink:href="#IBMPlexSans-77" transform="translate(311.099945 0)"/>
     <use xlink:href="#IBMPlexSans-68" transform="translate(387.899933 0)"/>
     <use xlink:href="#IBMPlexSans-65" transform="translate(444.699921 0)"/>
     <use xlink:href="#IBMPlexSans-6e" transform="translate(499.599915 0)"/>
     <use xlink:href="#IBMPlexSans-20" transform="translate(556.399902 0)"/>
     <use xlink:href="#IBMPlexSans-74" transform="translate(579.999893 0)"/>
     <use xlink:href="#IBMPlexSans-68" transform="translate(615.099884 0)"/>
     <use xlink:href="#IBMPlexSans-65" transform="translate(671.899872 0)"/>
     <use xlink:href="#IBMPlexSans-20" transform="translate(726.799866 0)"/>
     <use xlink:href="#IBMPlexSans-70" transform="translate(750.399857 0)"/>
     <use xlink:href="#IBMPlexSans-6c" transform="translate(808.399841 0)"/>
     <use xlink:href="#IBMPlexSans-75" transform="translate(835.599838 0)"/>
     <use xlink:href="#IBMPlexSans-6e" transform="translate(892.399826 0)"/>
     <use xlink:href="#IBMPlexSans-67" transform="translate(949.199814 0)"/>
     <use xlink:href="#IBMPlexSans-65" transform="translate(1001.999802 0)"/>
     <use xlink:href="#IBMPlexSans-72" transform="translate(1056.899796 0)"/>
     <use xlink:href="#IBMPlexSans-20" transform="translate(1093.599792 0)"/>
     <use xlink:href="#IBMPlexSans-73" transform="translate(1117.199783 0)"/>
     <use xlink:href="#IBMPlexSans-74" transform="translate(1165.89978 0)"/>
     <use xlink:href="#IBMPlexSans-6f" transform="translate(1200.999771 0)"/>
     <use xlink:href="#IBMPlexSans-70" transform="translate(1256.999756 0)"/>
     <use xlink:href="#IBMPlexSans-73" transform="translate(1314.999741 0)"/>
     <use xlink:href="#IBMPlexSans-3b" transform="translate(1363.699738 0)"/>
    </g>
    <!-- record T and the pressure, p -->
    <g transform="translate(255.224914 156.878633) scale(0.085 -0.085)">
     <use xlink:href="#IBMPlexSans-72"/>
     <use xlink:href="#IBMPlexSans-65" transform="translate(36.699997 0)"/>
     <use xlink:href="#IBMPlexSans-63" transform="translate(91.599991 0)"/>
     <use xlink:href="#IBMPlexSans-6f" transform="translate(141.899979 0)"/>
     <use xlink:href="#IBMPlexSans-72" transform="translate(197.899963 0)"/>
     <use xlink:href="#IBMPlexSans-64" transform="translate(234.59996 0)"/>
     <use xlink:href="#IBMPlexSans-20" transform="translate(292.599945 0)"/>
     <use xlink:href="#IBMPlexSans-54" transform="translate(316.199936 0)"/>
     <use xlink:href="#IBMPlexSans-20" transform="translate(373.399933 0)"/>
     <use xlink:href="#IBMPlexSans-61" transform="translate(396.999924 0)"/>
     <use xlink:href="#IBMPlexSans-6e" transform="translate(450.399918 0)"/>
     <use xlink:href="#IBMPlexSans-64" transform="translate(507.199905 0)"/>
     <use xlink:href="#IBMPlexSans-20" transform="translate(565.19989 0)"/>
     <use xlink:href="#IBMPlexSans-74" transform="translate(588.799881 0)"/>
     <use xlink:href="#IBMPlexSans-68" transform="translate(623.899872 0)"/>
     <use xlink:href="#IBMPlexSans-65" transform="translate(680.69986 0)"/>
     <use xlink:href="#IBMPlexSans-20" transform="translate(735.599854 0)"/>
     <use xlink:href="#IBMPlexSans-70" transform="translate(759.199844 0)"/>
     <use xlink:href="#IBMPlexSans-72" transform="translate(817.199829 0)"/>
     <use xlink:href="#IBMPlexSans-65" transform="translate(853.899826 0)"/>
     <use xlink:href="#IBMPlexSans-73" transform="translate(908.79982 0)"/>
     <use xlink:href="#IBMPlexSans-73" transform="translate(957.499817 0)"/>
     <use xlink:href="#IBMPlexSans-75" transform="translate(1006.199814 0)"/>
     <use xlink:href="#IBMPlexSans-72" transform="translate(1062.999802 0)"/>
     <use xlink:href="#IBMPlexSans-65" transform="translate(1099.699799 0)"/>
     <use xlink:href="#IBMPlexSans-2c" transform="translate(1154.599792 0)"/>
     <use xlink:href="#IBMPlexSans-20" transform="translate(1181.799789 0)"/>
     <use xlink:href="#IBMPlexSans-70" transform="translate(1205.39978 0)"/>
    </g>
   </g>
   <g id="patch_18">
    <path d="M 270.257847 138.375118 
Q 238.33183 124.588883 207.12431 111.112909 
" style="fill: none; stroke: #1e2a33; stroke-width: 0.7; stroke-linecap: round"/>
    <path d="M 210.291625 114.876964 
L 207.12431 111.112909 
L 212.035944 110.83749 
z
" style="fill: #1e2a33; stroke: #1e2a33; stroke-width: 0.7; stroke-linecap: round"/>
   </g>
  </g>
 </g>
 <defs>
  <clipPath id="pb3a44a4c6c">
   <rect x="38.84768" y="7.2" width="368.28" height="159.588"/>
  </clipPath>
 </defs>
</svg>
