<?xml version="1.0" encoding="utf-8" standalone="no"?>
<!DOCTYPE svg PUBLIC "-//W3C//DTD SVG 1.1//EN"
  "http://www.w3.org/Graphics/SVG/1.1/DTD/svg11.dtd">
<svg xmlns:xlink="http://www.w3.org/1999/xlink" width="595.44pt" height="160.123618pt" viewBox="0 0 595.44 160.123618" xmlns="http://www.w3.org/2000/svg" version="1.1">
 <metadata>
  <rdf:RDF xmlns:dc="http://purl.org/dc/elements/1.1/" xmlns:cc="http://creativecommons.org/ns#" xmlns:rdf="http://www.w3.org/1999/02/22-rdf-syntax-ns#">
   <cc:Work>
    <dc:type rdf:resource="http://purl.org/dc/dcmitype/StillImage"/>
    <dc:format>image/svg+xml</dc:format>
    <dc:creator>
     <cc:Agent>
      <dc:title>Matplotlib v3.11.2, https://matplotlib.org/</dc:title>
     </cc:Agent>
    </dc:creator>
   </cc:Work>
  </rdf:RDF>
 </metadata>
 <defs>
  <style type="text/css">*{stroke-linejoin: round; stroke-linecap: butt}</style>
 </defs>
 <g id="figure_1">
  <g id="patch_1">
   <path d="M 0 160.123618 
L 595.44 160.123618 
L 595.44 0 
L 0 0 
z
" style="fill: #ffffff"/>
  </g>
  <g id="axes_1">
   <g id="line2d_1">
    <path d="M 86.125969 68.11725 
L 119.386972 68.11725 
" clip-path="url(#pcd49b85c39)" style="fill: none; stroke: #1e2a33; stroke-width: 1.5; stroke-linecap: round"/>
   </g>
   <g id="line2d_2">
    <path d="M 86.125969 60.950515 
L 119.386972 60.950515 
" clip-path="url(#pcd49b85c39)" style="fill: none; stroke: #1e2a33; stroke-width: 1.5; stroke-linecap: round"/>
   </g>
   <g id="line2d_3">
    <path d="M 70.985263 57.043185 
L 56.325149 37.05212 
" clip-path="url(#pcd49b85c39)" style="fill: none; stroke: #1e2a33; stroke-width: 1.5; stroke-linecap: round"/>
   </g>
   <g id="line2d_4">
    <path d="M 70.985263 72.02458 
L 55.69359 92.876861 
" clip-path="url(#pcd49b85c39)" style="fill: none; stroke: #1e2a33; stroke-width: 1.5; stroke-linecap: round"/>
   </g>
   <g id="line2d_5">
    <path d="M 134.527678 57.043185 
L 149.187792 37.05212 
" clip-path="url(#pcd49b85c39)" style="fill: none; stroke: #1e2a33; stroke-width: 1.5; stroke-linecap: round"/>
   </g>
   <g id="line2d_6">
    <path d="M 134.527678 72.02458 
L 149.819351 92.876861 
" clip-path="url(#pcd49b85c39)" style="fill: none; stroke: #1e2a33; stroke-width: 1.5; stroke-linecap: round"/>
   </g>
   <g id="text_1">
    <!-- cis-but-2-ene -->
    <g transform="translate(71.845533 119.478853) scale(0.1 -0.1)">
     <defs>
      <path id="IBMPlexSans-7" d="M 1773 -77 
Q 1427 -77 1152 44 
Q 877 166 688 390 
Q 499 614 400 934 
Q 301 1254 301 1651 
Q 301 2048 400 2368 
Q 499 2688 688 2912 
Q 877 3136 1152 3257 
Q 1427 3379 1773 3379 
Q 2266 3379 2563 3164 
Q 2861 2950 3008 2605 
L 2579 2387 
Q 2490 2643 2285 2784 
Q 2080 2925 1773 2925 
Q 1542 2925 1369 2851 
Q 1197 2778 1081 2646 
Q 966 2515 908 2332 
Q 851 2150 851 1933 
L 851 1370 
Q 851 934 1084 656 
Q 1318 378 1773 378 
Q 2394 378 2669 954 
L 3040 704 
Q 2880 346 2563 134 
Q 2246 -77 1773 -77 
z
" transform="scale(0.015625)"/>
      <path id="IBMPlexSans-f" d="M 800 4077 
Q 634 4077 560 4157 
Q 486 4237 486 4365 
L 486 4448 
Q 486 4576 560 4656 
Q 634 4736 800 4736 
Q 966 4736 1040 4656 
Q 1114 4576 1114 4448 
L 1114 4365 
Q 1114 4237 1040 4157 
Q 966 4077 800 4077 
z
M 544 3302 
L 1056 3302 
L 1056 0 
L 544 0 
L 544 3302 
z
" transform="scale(0.015625)"/>
      <path id="IBMPlexSans-19" d="M 1536 -77 
Q 1075 -77 764 99 
Q 454 275 230 570 
L 595 864 
Q 787 621 1024 489 
Q 1261 358 1574 358 
Q 1901 358 2083 499 
Q 2266 640 2266 896 
Q 2266 1088 2141 1225 
Q 2016 1363 1690 1414 
L 1427 1453 
Q 1197 1485 1005 1552 
Q 813 1619 669 1731 
Q 525 1843 445 2009 
Q 365 2176 365 2406 
Q 365 2650 454 2832 
Q 544 3014 701 3136 
Q 858 3258 1075 3318 
Q 1293 3379 1542 3379 
Q 1946 3379 2218 3238 
Q 2490 3098 2694 2848 
L 2355 2541 
Q 2246 2694 2035 2819 
Q 1824 2944 1504 2944 
Q 1184 2944 1021 2806 
Q 858 2669 858 2432 
Q 858 2189 1021 2080 
Q 1184 1971 1491 1920 
L 1747 1882 
Q 2298 1798 2528 1564 
Q 2758 1331 2758 954 
Q 2758 474 2432 198 
Q 2106 -77 1536 -77 
z
" transform="scale(0.015625)"/>
      <path id="IBMPlexSans-55" d="M 442 1670 
L 442 2221 
L 2112 2221 
L 2112 1670 
L 442 1670 
z
" transform="scale(0.015625)"/>
      <path id="IBMPlexSans-6" d="M 544 4736 
L 1056 4736 
L 1056 2765 
L 1082 2765 
Q 1210 3078 1456 3228 
Q 1702 3379 2048 3379 
Q 2355 3379 2604 3257 
Q 2854 3136 3030 2912 
Q 3206 2688 3299 2368 
Q 3392 2048 3392 1651 
Q 3392 1254 3299 934 
Q 3206 614 3030 390 
Q 2854 166 2604 44 
Q 2355 -77 2048 -77 
Q 1376 -77 1082 538 
L 1056 538 
L 1056 0 
L 544 0 
L 544 4736 
z
M 1907 384 
Q 2342 384 2592 656 
Q 2842 928 2842 1370 
L 2842 1933 
Q 2842 2374 2592 2646 
Q 2342 2918 1907 2918 
Q 1734 2918 1577 2870 
Q 1421 2822 1305 2739 
Q 1190 2656 1123 2537 
Q 1056 2419 1056 2285 
L 1056 1056 
Q 1056 896 1123 771 
Q 1190 646 1305 560 
Q 1421 474 1577 429 
Q 1734 384 1907 384 
z
" transform="scale(0.015625)"/>
      <path id="IBMPlexSans-1b" d="M 2579 538 
L 2554 538 
Q 2502 422 2428 310 
Q 2355 198 2246 112 
Q 2138 26 1984 -25 
Q 1830 -77 1626 -77 
Q 1114 -77 813 252 
Q 512 582 512 1184 
L 512 3302 
L 1024 3302 
L 1024 1274 
Q 1024 384 1779 384 
Q 1933 384 2077 422 
Q 2221 461 2333 537 
Q 2445 614 2512 732 
Q 2579 851 2579 1018 
L 2579 3302 
L 3091 3302 
L 3091 0 
L 2579 0 
L 2579 538 
z
" transform="scale(0.015625)"/>
      <path id="IBMPlexSans-1a" d="M 1274 0 
Q 1005 0 867 150 
Q 730 301 730 544 
L 730 2854 
L 186 2854 
L 186 3302 
L 493 3302 
Q 659 3302 720 3369 
Q 781 3437 781 3603 
L 781 4218 
L 1242 4218 
L 1242 3302 
L 1965 3302 
L 1965 2854 
L 1242 2854 
L 1242 448 
L 1914 448 
L 1914 0 
L 1274 0 
z
" transform="scale(0.015625)"/>
      <path id="IBMPlexSans-3f" d="M 3411 0 
L 480 0 
L 480 550 
L 1939 1894 
Q 2253 2182 2464 2505 
Q 2675 2829 2675 3155 
L 2675 3232 
Q 2675 3603 2470 3833 
Q 2266 4064 1850 4064 
Q 1645 4064 1491 4006 
Q 1338 3949 1226 3846 
Q 1114 3744 1040 3606 
Q 966 3469 922 3309 
L 442 3494 
Q 506 3693 618 3881 
Q 730 4070 899 4217 
Q 1069 4365 1309 4454 
Q 1549 4544 1875 4544 
Q 2202 4544 2458 4448 
Q 2714 4352 2886 4179 
Q 3059 4006 3152 3769 
Q 3245 3533 3245 3245 
Q 3245 2982 3171 2758 
Q 3098 2534 2970 2332 
Q 2842 2131 2659 1939 
Q 2477 1747 2266 1555 
L 1062 474 
L 3411 474 
L 3411 0 
z
" transform="scale(0.015625)"/>
      <path id="IBMPlexSans-9" d="M 1786 -77 
Q 1446 -77 1174 44 
Q 902 166 707 393 
Q 512 621 406 937 
Q 301 1254 301 1651 
Q 301 2042 406 2362 
Q 512 2682 707 2909 
Q 902 3136 1174 3257 
Q 1446 3379 1786 3379 
Q 2118 3379 2380 3257 
Q 2643 3136 2828 2921 
Q 3014 2707 3113 2412 
Q 3213 2118 3213 1766 
L 3213 1523 
L 838 1523 
L 838 1370 
Q 838 1158 905 976 
Q 973 794 1097 659 
Q 1222 525 1404 448 
Q 1587 371 1818 371 
Q 2131 371 2364 518 
Q 2598 666 2726 941 
L 3091 678 
Q 2931 339 2592 131 
Q 2253 -77 1786 -77 
z
M 1786 2950 
Q 1574 2950 1401 2876 
Q 1229 2803 1104 2668 
Q 979 2534 908 2352 
Q 838 2170 838 1952 
L 838 1907 
L 2662 1907 
L 2662 1978 
Q 2662 2419 2422 2684 
Q 2182 2950 1786 2950 
z
" transform="scale(0.015625)"/>
      <path id="IBMPlexSans-14" d="M 544 0 
L 544 3302 
L 1056 3302 
L 1056 2765 
L 1082 2765 
Q 1203 3046 1424 3212 
Q 1645 3379 2016 3379 
Q 2528 3379 2825 3049 
Q 3123 2720 3123 2118 
L 3123 0 
L 2611 0 
L 2611 2029 
Q 2611 2918 1862 2918 
Q 1709 2918 1565 2880 
Q 1421 2842 1305 2765 
Q 1190 2688 1123 2569 
Q 1056 2451 1056 2291 
L 1056 0 
L 544 0 
z
" transform="scale(0.015625)"/>
     </defs>
     <use xlink:href="#IBMPlexSans-7"/>
     <use xlink:href="#IBMPlexSans-f" transform="translate(50.296875 0)"/>
     <use xlink:href="#IBMPlexSans-19" transform="translate(75.296875 0)"/>
     <use xlink:href="#IBMPlexSans-55" transform="translate(123 0)"/>
     <use xlink:href="#IBMPlexSans-6" transform="translate(162.90625 0)"/>
     <use xlink:href="#IBMPlexSans-1b" transform="translate(220.90625 0)"/>
     <use xlink:href="#IBMPlexSans-1a" transform="translate(277.703125 0)"/>
     <use xlink:href="#IBMPlexSans-55" transform="translate(310.796875 0)"/>
     <use xlink:href="#IBMPlexSans-3f" transform="translate(350.703125 0)"/>
     <use xlink:href="#IBMPlexSans-55" transform="translate(410.703125 0)"/>
     <use xlink:href="#IBMPlexSans-9" transform="translate(451.609375 0)"/>
     <use xlink:href="#IBMPlexSans-14" transform="translate(506.515625 0)"/>
     <use xlink:href="#IBMPlexSans-9" transform="translate(563.3125 0)"/>
    </g>
   </g>
   <g id="text_2">
    <!-- bp 4 °C;  CH$_3$ groups on the same side -->
    <g style="fill: #5b6b75" transform="translate(34.556471 140.979059) scale(0.08 -0.08)">
     <defs>
      <path id="IBMPlexSans-16" d="M 544 3302 
L 1056 3302 
L 1056 2765 
L 1082 2765 
Q 1210 3078 1456 3228 
Q 1702 3379 2048 3379 
Q 2355 3379 2604 3257 
Q 2854 3136 3030 2912 
Q 3206 2688 3299 2368 
Q 3392 2048 3392 1651 
Q 3392 1254 3299 934 
Q 3206 614 3030 390 
Q 2854 166 2604 44 
Q 2355 -77 2048 -77 
Q 1376 -77 1082 538 
L 1056 538 
L 1056 -1280 
L 544 -1280 
L 544 3302 
z
M 1907 384 
Q 2342 384 2592 656 
Q 2842 928 2842 1370 
L 2842 1933 
Q 2842 2374 2592 2646 
Q 2342 2918 1907 2918 
Q 1734 2918 1577 2870 
Q 1421 2822 1305 2739 
Q 1190 2656 1123 2537 
Q 1056 2419 1056 2285 
L 1056 1056 
Q 1056 896 1123 771 
Q 1190 646 1305 560 
Q 1421 474 1577 429 
Q 1734 384 1907 384 
z
" transform="scale(0.015625)"/>
      <path id="IBMPlexSans-3" transform="scale(0.015625)"/>
      <path id="IBMPlexSans-41" d="M 2400 0 
L 2400 877 
L 243 877 
L 243 1350 
L 2112 4467 
L 2912 4467 
L 2912 1325 
L 3558 1325 
L 3558 877 
L 2912 877 
L 2912 0 
L 2400 0 
z
M 749 1325 
L 2400 1325 
L 2400 4051 
L 2368 4051 
L 749 1325 
z
" transform="scale(0.015625)"/>
      <path id="IBMPlexSans-88" d="M 1498 2342 
Q 1267 2342 1072 2425 
Q 877 2509 733 2656 
Q 589 2803 505 3004 
Q 422 3206 422 3443 
Q 422 3680 505 3881 
Q 589 4083 733 4230 
Q 877 4378 1072 4461 
Q 1267 4544 1498 4544 
Q 1728 4544 1923 4461 
Q 2118 4378 2262 4230 
Q 2406 4083 2489 3881 
Q 2573 3680 2573 3443 
Q 2573 3206 2489 3004 
Q 2406 2803 2262 2656 
Q 2118 2509 1923 2425 
Q 1728 2342 1498 2342 
z
M 1498 2752 
Q 1786 2752 1955 2953 
Q 2125 3155 2125 3443 
Q 2125 3731 1955 3932 
Q 1786 4134 1498 4134 
Q 1210 4134 1040 3932 
Q 870 3731 870 3443 
Q 870 3155 1040 2953 
Q 1210 2752 1498 2752 
z
" transform="scale(0.015625)"/>
      <path id="IBMPlexSans-23" d="M 2170 -77 
Q 1318 -77 844 502 
Q 371 1082 371 2208 
Q 371 3334 844 3939 
Q 1318 4544 2170 4544 
Q 2733 4544 3113 4288 
Q 3494 4032 3706 3565 
L 3270 3302 
Q 3136 3648 2861 3856 
Q 2586 4064 2170 4064 
Q 1882 4064 1654 3955 
Q 1427 3846 1270 3644 
Q 1114 3443 1030 3164 
Q 947 2886 947 2541 
L 947 1875 
Q 947 1184 1267 793 
Q 1587 403 2170 403 
Q 2598 403 2886 624 
Q 3174 845 3309 1210 
L 3738 941 
Q 3526 467 3129 195 
Q 2733 -77 2170 -77 
z
" transform="scale(0.015625)"/>
      <path id="IBMPlexSans-61" d="M 934 749 
Q 1139 749 1232 643 
Q 1325 538 1325 371 
L 1325 282 
Q 1325 19 1171 -297 
Q 1018 -614 742 -851 
L 314 -851 
Q 506 -646 624 -464 
Q 742 -282 794 -58 
Q 666 -26 605 64 
Q 544 154 544 282 
L 544 371 
Q 544 538 637 643 
Q 730 749 934 749 
z
M 934 2553 
Q 730 2553 637 2655 
Q 544 2758 544 2924 
L 544 3008 
Q 544 3174 637 3276 
Q 730 3379 934 3379 
Q 1139 3379 1232 3276 
Q 1325 3174 1325 3008 
L 1325 2924 
Q 1325 2758 1232 2655 
Q 1139 2553 934 2553 
z
" transform="scale(0.015625)"/>
      <path id="IBMPlexSans-28" d="M 3392 2022 
L 1133 2022 
L 1133 0 
L 595 0 
L 595 4467 
L 1133 4467 
L 1133 2496 
L 3392 2496 
L 3392 4467 
L 3930 4467 
L 3930 0 
L 3392 0 
L 3392 2022 
z
" transform="scale(0.015625)"/>
      <path id="IBMPlexSans-40" d="M 1670 2573 
Q 2125 2573 2352 2781 
Q 2579 2989 2579 3315 
L 2579 3360 
Q 2579 3712 2358 3888 
Q 2138 4064 1779 4064 
Q 1434 4064 1216 3913 
Q 998 3763 858 3507 
L 461 3814 
Q 544 3949 662 4080 
Q 781 4211 941 4313 
Q 1101 4416 1312 4480 
Q 1523 4544 1792 4544 
Q 2074 4544 2323 4470 
Q 2573 4397 2755 4253 
Q 2938 4109 3043 3897 
Q 3149 3686 3149 3418 
Q 3149 3200 3081 3027 
Q 3014 2854 2899 2726 
Q 2784 2598 2627 2508 
Q 2470 2419 2291 2374 
L 2291 2349 
Q 2470 2310 2640 2224 
Q 2810 2138 2941 2000 
Q 3072 1862 3152 1667 
Q 3232 1472 3232 1222 
Q 3232 934 3123 694 
Q 3014 454 2816 284 
Q 2618 115 2336 19 
Q 2054 -77 1715 -77 
Q 1427 -77 1203 -13 
Q 979 51 806 160 
Q 634 269 502 403 
Q 371 538 269 685 
L 672 992 
Q 755 858 854 749 
Q 954 640 1075 563 
Q 1197 486 1350 444 
Q 1504 403 1709 403 
Q 2182 403 2425 617 
Q 2669 832 2669 1229 
L 2669 1280 
Q 2669 1677 2425 1891 
Q 2182 2106 1709 2106 
L 1184 2106 
L 1184 2573 
L 1670 2573 
z
" transform="scale(0.015625)"/>
      <path id="IBMPlexSans-b" d="M 3328 -365 
Q 3328 -877 2928 -1117 
Q 2528 -1357 1728 -1357 
Q 954 -1357 614 -1145 
Q 275 -934 275 -544 
Q 275 -275 416 -124 
Q 557 26 800 96 
L 800 166 
Q 506 307 506 627 
Q 506 877 666 1008 
Q 826 1139 1075 1203 
L 1075 1229 
Q 781 1370 617 1632 
Q 454 1894 454 2240 
Q 454 2490 544 2701 
Q 634 2912 797 3062 
Q 960 3213 1187 3296 
Q 1414 3379 1696 3379 
Q 2048 3379 2323 3251 
L 2323 3309 
Q 2323 3501 2412 3625 
Q 2502 3750 2707 3750 
L 3200 3750 
L 3200 3302 
L 2573 3302 
L 2573 3091 
Q 2752 2938 2851 2723 
Q 2950 2509 2950 2240 
Q 2950 1990 2860 1779 
Q 2771 1568 2608 1417 
Q 2445 1267 2214 1184 
Q 1984 1101 1702 1101 
Q 1542 1101 1382 1133 
Q 1216 1088 1081 1001 
Q 947 915 947 762 
Q 947 614 1088 563 
Q 1229 512 1453 512 
L 2157 512 
Q 2771 512 3049 278 
Q 3328 45 3328 -365 
z
M 2848 -403 
Q 2848 -205 2697 -86 
Q 2547 32 2163 32 
L 1062 32 
Q 755 -109 755 -416 
Q 755 -634 918 -787 
Q 1082 -941 1472 -941 
L 1946 -941 
Q 2374 -941 2611 -806 
Q 2848 -672 2848 -403 
z
M 1702 1510 
Q 2029 1510 2221 1667 
Q 2413 1824 2413 2150 
L 2413 2330 
Q 2413 2656 2221 2813 
Q 2029 2970 1702 2970 
Q 1376 2970 1184 2813 
Q 992 2656 992 2330 
L 992 2150 
Q 992 1824 1184 1667 
Q 1376 1510 1702 1510 
z
" transform="scale(0.015625)"/>
      <path id="IBMPlexSans-18" d="M 544 0 
L 544 3302 
L 1056 3302 
L 1056 2694 
L 1088 2694 
Q 1178 2931 1408 3116 
Q 1638 3302 2042 3302 
L 2240 3302 
L 2240 2790 
L 1939 2790 
Q 1523 2790 1289 2633 
Q 1056 2477 1056 2240 
L 1056 0 
L 544 0 
z
" transform="scale(0.015625)"/>
      <path id="IBMPlexSans-15" d="M 1792 -77 
Q 1459 -77 1184 44 
Q 909 166 713 393 
Q 518 621 409 937 
Q 301 1254 301 1651 
Q 301 2042 409 2362 
Q 518 2682 713 2909 
Q 909 3136 1184 3257 
Q 1459 3379 1792 3379 
Q 2125 3379 2397 3257 
Q 2669 3136 2867 2909 
Q 3066 2682 3174 2362 
Q 3283 2042 3283 1651 
Q 3283 1254 3174 937 
Q 3066 621 2867 393 
Q 2669 166 2397 44 
Q 2125 -77 1792 -77 
z
M 1792 378 
Q 2208 378 2470 634 
Q 2733 890 2733 1414 
L 2733 1888 
Q 2733 2413 2470 2669 
Q 2208 2925 1792 2925 
Q 1376 2925 1113 2669 
Q 851 2413 851 1888 
L 851 1414 
Q 851 890 1113 634 
Q 1376 378 1792 378 
z
" transform="scale(0.015625)"/>
      <path id="IBMPlexSans-e" d="M 544 4736 
L 1056 4736 
L 1056 2765 
L 1082 2765 
Q 1203 3046 1424 3212 
Q 1645 3379 2016 3379 
Q 2528 3379 2825 3049 
Q 3123 2720 3123 2118 
L 3123 0 
L 2611 0 
L 2611 2029 
Q 2611 2918 1862 2918 
Q 1709 2918 1565 2880 
Q 1421 2842 1305 2765 
Q 1190 2688 1123 2569 
Q 1056 2451 1056 2291 
L 1056 0 
L 544 0 
L 544 4736 
z
" transform="scale(0.015625)"/>
      <path id="IBMPlexSans-4" d="M 2944 0 
Q 2656 0 2531 153 
Q 2406 307 2374 538 
L 2342 538 
Q 2234 230 1984 76 
Q 1734 -77 1389 -77 
Q 864 -77 573 192 
Q 282 461 282 922 
Q 282 1389 624 1638 
Q 966 1888 1690 1888 
L 2342 1888 
L 2342 2214 
Q 2342 2566 2150 2752 
Q 1958 2938 1562 2938 
Q 1261 2938 1059 2803 
Q 858 2669 723 2445 
L 416 2733 
Q 550 3002 844 3190 
Q 1139 3379 1587 3379 
Q 2189 3379 2521 3084 
Q 2854 2790 2854 2266 
L 2854 448 
L 3232 448 
L 3232 0 
L 2944 0 
z
M 1472 358 
Q 1664 358 1824 403 
Q 1984 448 2099 531 
Q 2214 614 2278 723 
Q 2342 832 2342 960 
L 2342 1504 
L 1664 1504 
Q 1222 1504 1020 1376 
Q 819 1248 819 1005 
L 819 870 
Q 819 627 995 492 
Q 1171 358 1472 358 
z
" transform="scale(0.015625)"/>
      <path id="IBMPlexSans-13" d="M 544 0 
L 544 3302 
L 1056 3302 
L 1056 2765 
L 1082 2765 
Q 1139 2893 1212 3005 
Q 1286 3117 1392 3200 
Q 1498 3283 1638 3331 
Q 1779 3379 1971 3379 
Q 2298 3379 2573 3222 
Q 2848 3066 2982 2707 
L 2995 2707 
Q 3085 2976 3331 3177 
Q 3578 3379 4000 3379 
Q 4506 3379 4790 3049 
Q 5075 2720 5075 2118 
L 5075 0 
L 4563 0 
L 4563 2029 
Q 4563 2470 4390 2694 
Q 4218 2918 3840 2918 
Q 3686 2918 3548 2880 
Q 3411 2842 3302 2765 
Q 3194 2688 3130 2569 
Q 3066 2451 3066 2291 
L 3066 0 
L 2554 0 
L 2554 2029 
Q 2554 2470 2381 2694 
Q 2208 2918 1843 2918 
Q 1690 2918 1549 2880 
Q 1408 2842 1299 2765 
Q 1190 2688 1123 2569 
Q 1056 2451 1056 2291 
L 1056 0 
L 544 0 
z
" transform="scale(0.015625)"/>
      <path id="IBMPlexSans-8" d="M 2656 538 
L 2630 538 
Q 2330 -77 1664 -77 
Q 1357 -77 1107 44 
Q 858 166 682 390 
Q 506 614 413 934 
Q 320 1254 320 1651 
Q 320 2048 413 2368 
Q 506 2688 682 2912 
Q 858 3136 1107 3257 
Q 1357 3379 1664 3379 
Q 2010 3379 2256 3228 
Q 2502 3078 2630 2765 
L 2656 2765 
L 2656 4736 
L 3168 4736 
L 3168 0 
L 2656 0 
L 2656 538 
z
M 1805 384 
Q 1978 384 2134 429 
Q 2291 474 2406 560 
Q 2522 646 2589 771 
Q 2656 896 2656 1056 
L 2656 2285 
Q 2656 2419 2589 2537 
Q 2522 2656 2406 2739 
Q 2291 2822 2134 2870 
Q 1978 2918 1805 2918 
Q 1370 2918 1120 2646 
Q 870 2374 870 1933 
L 870 1370 
Q 870 928 1120 656 
Q 1370 384 1805 384 
z
" transform="scale(0.015625)"/>
     </defs>
     <use xlink:href="#IBMPlexSans-6"/>
     <use xlink:href="#IBMPlexSans-16" transform="translate(57.999939 0)"/>
     <use xlink:href="#IBMPlexSans-3" transform="translate(115.999878 0)"/>
     <use xlink:href="#IBMPlexSans-41" transform="translate(139.599854 0)"/>
     <use xlink:href="#IBMPlexSans-3" transform="translate(199.599792 0)"/>
     <use xlink:href="#IBMPlexSans-88" transform="translate(223.199768 0)"/>
     <use xlink:href="#IBMPlexSans-23" transform="translate(269.999725 0)"/>
     <use xlink:href="#IBMPlexSans-61" transform="translate(332.09967 0)"/>
     <use xlink:href="#IBMPlexSans-3" transform="translate(361.299637 0)"/>
     <use xlink:href="#IBMPlexSans-3" transform="translate(384.899612 0)"/>
     <use xlink:href="#IBMPlexSans-23" transform="translate(408.499588 0)"/>
     <use xlink:href="#IBMPlexSans-28" transform="translate(470.599533 0)"/>
     <use xlink:href="#IBMPlexSans-40" transform="translate(542.20236 -15.478125) scale(0.7)"/>
     <use xlink:href="#IBMPlexSans-3" transform="translate(586.782004 0)"/>
     <use xlink:href="#IBMPlexSans-b" transform="translate(610.38198 0)"/>
     <use xlink:href="#IBMPlexSans-18" transform="translate(663.181937 0)"/>
     <use xlink:href="#IBMPlexSans-15" transform="translate(699.881904 0)"/>
     <use xlink:href="#IBMPlexSans-1b" transform="translate(755.881858 0)"/>
     <use xlink:href="#IBMPlexSans-16" transform="translate(812.6818 0)"/>
     <use xlink:href="#IBMPlexSans-19" transform="translate(870.681739 0)"/>
     <use xlink:href="#IBMPlexSans-3" transform="translate(919.38169 0)"/>
     <use xlink:href="#IBMPlexSans-15" transform="translate(942.981666 0)"/>
     <use xlink:href="#IBMPlexSans-14" transform="translate(998.98162 0)"/>
     <use xlink:href="#IBMPlexSans-3" transform="translate(1055.781562 0)"/>
     <use xlink:href="#IBMPlexSans-1a" transform="translate(1079.381537 0)"/>
     <use xlink:href="#IBMPlexSans-e" transform="translate(1114.481498 0)"/>
     <use xlink:href="#IBMPlexSans-9" transform="translate(1171.28144 0)"/>
     <use xlink:href="#IBMPlexSans-3" transform="translate(1226.181388 0)"/>
     <use xlink:href="#IBMPlexSans-19" transform="translate(1249.781364 0)"/>
     <use xlink:href="#IBMPlexSans-4" transform="translate(1298.481315 0)"/>
     <use xlink:href="#IBMPlexSans-13" transform="translate(1351.881263 0)"/>
     <use xlink:href="#IBMPlexSans-9" transform="translate(1439.181174 0)"/>
     <use xlink:href="#IBMPlexSans-3" transform="translate(1494.081122 0)"/>
     <use xlink:href="#IBMPlexSans-19" transform="translate(1517.681098 0)"/>
     <use xlink:href="#IBMPlexSans-f" transform="translate(1566.381049 0)"/>
     <use xlink:href="#IBMPlexSans-8" transform="translate(1591.381019 0)"/>
     <use xlink:href="#IBMPlexSans-9" transform="translate(1649.380958 0)"/>
    </g>
   </g>
   <g id="text_3">
    <!-- C -->
    <g style="fill: #1e2a33" transform="translate(73.063285 67.613882) scale(0.11 -0.11)">
     <use xlink:href="#IBMPlexSans-23"/>
    </g>
   </g>
   <g id="text_4">
    <!-- C -->
    <g style="fill: #1e2a33" transform="translate(125.619344 67.613882) scale(0.11 -0.11)">
     <use xlink:href="#IBMPlexSans-23"/>
    </g>
   </g>
   <g id="text_5">
    <!-- H$_3$C -->
    <g style="fill: #1e2a33" transform="translate(40.355412 31.780206) scale(0.11 -0.11)">
     <use xlink:href="#IBMPlexSans-28"/>
     <use xlink:href="#IBMPlexSans-40" transform="translate(71.602827 -15.478125) scale(0.7)"/>
     <use xlink:href="#IBMPlexSans-23" transform="translate(116.182471 0)"/>
    </g>
   </g>
   <g id="text_6">
    <!-- H -->
    <g style="fill: #1e2a33" transform="translate(46.31174 103.447559) scale(0.11 -0.11)">
     <use xlink:href="#IBMPlexSans-28"/>
    </g>
   </g>
   <g id="text_7">
    <!-- CH$_3$ -->
    <g style="fill: #1e2a33" transform="translate(145.467529 31.780206) scale(0.11 -0.11)">
     <use xlink:href="#IBMPlexSans-23"/>
     <use xlink:href="#IBMPlexSans-28" transform="translate(62.099945 0)"/>
     <use xlink:href="#IBMPlexSans-40" transform="translate(133.702772 -15.478125) scale(0.7)"/>
    </g>
   </g>
   <g id="text_8">
    <!-- H -->
    <g style="fill: #1e2a33" transform="translate(151.423858 103.447559) scale(0.11 -0.11)">
     <use xlink:href="#IBMPlexSans-28"/>
    </g>
   </g>
  </g>
  <g id="axes_2">
   <g id="line2d_7">
    <path d="M 281.089499 68.11725 
L 314.350501 68.11725 
" clip-path="url(#p2782ecc440)" style="fill: none; stroke: #1e2a33; stroke-width: 1.5; stroke-linecap: round"/>
   </g>
   <g id="line2d_8">
    <path d="M 281.089499 60.950515 
L 314.350501 60.950515 
" clip-path="url(#p2782ecc440)" style="fill: none; stroke: #1e2a33; stroke-width: 1.5; stroke-linecap: round"/>
   </g>
   <g id="line2d_9">
    <path d="M 265.948792 57.043185 
L 251.288678 37.05212 
" clip-path="url(#p2782ecc440)" style="fill: none; stroke: #1e2a33; stroke-width: 1.5; stroke-linecap: round"/>
   </g>
   <g id="line2d_10">
    <path d="M 265.948792 72.02458 
L 250.657119 92.876861 
" clip-path="url(#p2782ecc440)" style="fill: none; stroke: #1e2a33; stroke-width: 1.5; stroke-linecap: round"/>
   </g>
   <g id="line2d_11">
    <path d="M 329.491208 57.043185 
L 344.782881 36.190903 
" clip-path="url(#p2782ecc440)" style="fill: none; stroke: #1e2a33; stroke-width: 1.5; stroke-linecap: round"/>
   </g>
   <g id="line2d_12">
    <path d="M 329.491208 72.02458 
L 344.151322 92.015644 
" clip-path="url(#p2782ecc440)" style="fill: none; stroke: #1e2a33; stroke-width: 1.5; stroke-linecap: round"/>
   </g>
   <g id="text_9">
    <!-- trans-but-2-ene -->
    <g transform="translate(261.494219 119.478853) scale(0.1 -0.1)">
     <use xlink:href="#IBMPlexSans-1a"/>
     <use xlink:href="#IBMPlexSans-18" transform="translate(35.09375 0)"/>
     <use xlink:href="#IBMPlexSans-4" transform="translate(71.390625 0)"/>
     <use xlink:href="#IBMPlexSans-14" transform="translate(124.796875 0)"/>
     <use xlink:href="#IBMPlexSans-19" transform="translate(181.59375 0)"/>
     <use xlink:href="#IBMPlexSans-55" transform="translate(229.296875 0)"/>
     <use xlink:href="#IBMPlexSans-6" transform="translate(269.203125 0)"/>
     <use xlink:href="#IBMPlexSans-1b" transform="translate(327.203125 0)"/>
     <use xlink:href="#IBMPlexSans-1a" transform="translate(384 0)"/>
     <use xlink:href="#IBMPlexSans-55" transform="translate(417.09375 0)"/>
     <use xlink:href="#IBMPlexSans-3f" transform="translate(457 0)"/>
     <use xlink:href="#IBMPlexSans-55" transform="translate(517 0)"/>
     <use xlink:href="#IBMPlexSans-9" transform="translate(557.90625 0)"/>
     <use xlink:href="#IBMPlexSans-14" transform="translate(612.8125 0)"/>
     <use xlink:href="#IBMPlexSans-9" transform="translate(669.609375 0)"/>
    </g>
   </g>
   <g id="text_10">
    <!-- bp 1 °C;  CH$_3$ groups on opposite sides -->
    <g style="fill: #5b6b75" transform="translate(228.52 140.979059) scale(0.08 -0.08)">
     <defs>
      <path id="IBMPlexSans-3e" d="M 563 0 
L 563 474 
L 1811 474 
L 1811 4070 
L 1766 4070 
L 640 3021 
L 326 3360 
L 1510 4467 
L 2349 4467 
L 2349 474 
L 3501 474 
L 3501 0 
L 563 0 
z
" transform="scale(0.015625)"/>
     </defs>
     <use xlink:href="#IBMPlexSans-6"/>
     <use xlink:href="#IBMPlexSans-16" transform="translate(57.999939 0)"/>
     <use xlink:href="#IBMPlexSans-3" transform="translate(115.999878 0)"/>
     <use xlink:href="#IBMPlexSans-3e" transform="translate(139.599854 0)"/>
     <use xlink:href="#IBMPlexSans-3" transform="translate(199.599792 0)"/>
     <use xlink:href="#IBMPlexSans-88" transform="translate(223.199768 0)"/>
     <use xlink:href="#IBMPlexSans-23" transform="translate(269.999725 0)"/>
     <use xlink:href="#IBMPlexSans-61" transform="translate(332.09967 0)"/>
     <use xlink:href="#IBMPlexSans-3" transform="translate(361.299637 0)"/>
     <use xlink:href="#IBMPlexSans-3" transform="translate(384.899612 0)"/>
     <use xlink:href="#IBMPlexSans-23" transform="translate(408.499588 0)"/>
     <use xlink:href="#IBMPlexSans-28" transform="translate(470.599533 0)"/>
     <use xlink:href="#IBMPlexSans-40" transform="translate(542.20236 -15.478125) scale(0.7)"/>
     <use xlink:href="#IBMPlexSans-3" transform="translate(586.782004 0)"/>
     <use xlink:href="#IBMPlexSans-b" transform="translate(610.38198 0)"/>
     <use xlink:href="#IBMPlexSans-18" transform="translate(663.181937 0)"/>
     <use xlink:href="#IBMPlexSans-15" transform="translate(699.881904 0)"/>
     <use xlink:href="#IBMPlexSans-1b" transform="translate(755.881858 0)"/>
     <use xlink:href="#IBMPlexSans-16" transform="translate(812.6818 0)"/>
     <use xlink:href="#IBMPlexSans-19" transform="translate(870.681739 0)"/>
     <use xlink:href="#IBMPlexSans-3" transform="translate(919.38169 0)"/>
     <use xlink:href="#IBMPlexSans-15" transform="translate(942.981666 0)"/>
     <use xlink:href="#IBMPlexSans-14" transform="translate(998.98162 0)"/>
     <use xlink:href="#IBMPlexSans-3" transform="translate(1055.781562 0)"/>
     <use xlink:href="#IBMPlexSans-15" transform="translate(1079.381537 0)"/>
     <use xlink:href="#IBMPlexSans-16" transform="translate(1135.381492 0)"/>
     <use xlink:href="#IBMPlexSans-16" transform="translate(1193.381431 0)"/>
     <use xlink:href="#IBMPlexSans-15" transform="translate(1251.38137 0)"/>
     <use xlink:href="#IBMPlexSans-19" transform="translate(1307.381324 0)"/>
     <use xlink:href="#IBMPlexSans-f" transform="translate(1356.081275 0)"/>
     <use xlink:href="#IBMPlexSans-1a" transform="translate(1381.081245 0)"/>
     <use xlink:href="#IBMPlexSans-9" transform="translate(1416.181205 0)"/>
     <use xlink:href="#IBMPlexSans-3" transform="translate(1471.081153 0)"/>
     <use xlink:href="#IBMPlexSans-19" transform="translate(1494.681129 0)"/>
     <use xlink:href="#IBMPlexSans-f" transform="translate(1543.38108 0)"/>
     <use xlink:href="#IBMPlexSans-8" transform="translate(1568.381049 0)"/>
     <use xlink:href="#IBMPlexSans-9" transform="translate(1626.380988 0)"/>
     <use xlink:href="#IBMPlexSans-19" transform="translate(1681.280936 0)"/>
    </g>
   </g>
   <g id="text_11">
    <!-- C -->
    <g style="fill: #1e2a33" transform="translate(268.026814 67.613882) scale(0.11 -0.11)">
     <use xlink:href="#IBMPlexSans-23"/>
    </g>
   </g>
   <g id="text_12">
    <!-- C -->
    <g style="fill: #1e2a33" transform="translate(320.582873 67.613882) scale(0.11 -0.11)">
     <use xlink:href="#IBMPlexSans-23"/>
    </g>
   </g>
   <g id="text_13">
    <!-- H$_3$C -->
    <g style="fill: #1e2a33" transform="translate(235.318941 31.780206) scale(0.11 -0.11)">
     <use xlink:href="#IBMPlexSans-28"/>
     <use xlink:href="#IBMPlexSans-40" transform="translate(71.602827 -15.478125) scale(0.7)"/>
     <use xlink:href="#IBMPlexSans-23" transform="translate(116.182471 0)"/>
    </g>
   </g>
   <g id="text_14">
    <!-- H -->
    <g style="fill: #1e2a33" transform="translate(241.275269 103.447559) scale(0.11 -0.11)">
     <use xlink:href="#IBMPlexSans-28"/>
    </g>
   </g>
   <g id="text_15">
    <!-- H -->
    <g style="fill: #1e2a33" transform="translate(346.387387 31.780206) scale(0.11 -0.11)">
     <use xlink:href="#IBMPlexSans-28"/>
    </g>
   </g>
   <g id="text_16">
    <!-- CH$_3$ -->
    <g style="fill: #1e2a33" transform="translate(340.431059 103.447559) scale(0.11 -0.11)">
     <use xlink:href="#IBMPlexSans-23"/>
     <use xlink:href="#IBMPlexSans-28" transform="translate(62.099945 0)"/>
     <use xlink:href="#IBMPlexSans-40" transform="translate(133.702772 -15.478125) scale(0.7)"/>
    </g>
   </g>
  </g>
  <g id="axes_3">
   <g id="line2d_13">
    <path d="M 476.053028 68.11725 
L 509.314031 68.11725 
" clip-path="url(#p65eea2e514)" style="fill: none; stroke: #1e2a33; stroke-width: 1.5; stroke-linecap: round"/>
   </g>
   <g id="line2d_14">
    <path d="M 476.053028 60.950515 
L 509.314031 60.950515 
" clip-path="url(#p65eea2e514)" style="fill: none; stroke: #1e2a33; stroke-width: 1.5; stroke-linecap: round"/>
   </g>
   <g id="line2d_15">
    <path d="M 460.912322 57.043185 
L 445.620649 36.190903 
" clip-path="url(#p65eea2e514)" style="fill: none; stroke: #1e2a33; stroke-width: 1.5; stroke-linecap: round"/>
   </g>
   <g id="line2d_16">
    <path d="M 460.912322 72.02458 
L 445.620649 92.876861 
" clip-path="url(#p65eea2e514)" style="fill: none; stroke: #1e2a33; stroke-width: 1.5; stroke-linecap: round"/>
   </g>
   <g id="line2d_17">
    <path d="M 524.454737 57.043185 
L 538.892678 37.355084 
" clip-path="url(#p65eea2e514)" style="fill: none; stroke: #1e2a33; stroke-width: 1.5; stroke-linecap: round"/>
   </g>
   <g id="line2d_18">
    <path d="M 524.454737 72.02458 
L 539.74641 92.876861 
" clip-path="url(#p65eea2e514)" style="fill: none; stroke: #1e2a33; stroke-width: 1.5; stroke-linecap: round"/>
   </g>
   <g id="text_17">
    <!-- but-1-ene -->
    <g transform="translate(469.917904 119.478853) scale(0.1 -0.1)">
     <use xlink:href="#IBMPlexSans-6"/>
     <use xlink:href="#IBMPlexSans-1b" transform="translate(58 0)"/>
     <use xlink:href="#IBMPlexSans-1a" transform="translate(114.796875 0)"/>
     <use xlink:href="#IBMPlexSans-55" transform="translate(147.890625 0)"/>
     <use xlink:href="#IBMPlexSans-3e" transform="translate(187.796875 0)"/>
     <use xlink:href="#IBMPlexSans-55" transform="translate(247.796875 0)"/>
     <use xlink:href="#IBMPlexSans-9" transform="translate(288.703125 0)"/>
     <use xlink:href="#IBMPlexSans-14" transform="translate(343.609375 0)"/>
     <use xlink:href="#IBMPlexSans-9" transform="translate(400.40625 0)"/>
    </g>
   </g>
   <g id="text_18">
    <!-- two H on one C: no cis-trans isomers -->
    <g style="fill: #5b6b75" transform="translate(427.149154 140.979059) scale(0.08 -0.08)">
     <defs>
      <path id="IBMPlexSans-1d" d="M 198 3302 
L 698 3302 
L 1050 1875 
L 1402 429 
L 1414 429 
L 1818 1875 
L 2234 3302 
L 2688 3302 
L 3117 1875 
L 3526 429 
L 3539 429 
L 3878 1875 
L 4237 3302 
L 4717 3302 
L 3840 0 
L 3206 0 
L 2746 1587 
L 2458 2592 
L 2445 2592 
L 2163 1587 
L 1702 0 
L 1082 0 
L 198 3302 
z
" transform="scale(0.015625)"/>
      <path id="IBMPlexSans-5f" d="M 934 -77 
Q 730 -77 637 25 
Q 544 128 544 294 
L 544 378 
Q 544 544 637 646 
Q 730 749 934 749 
Q 1139 749 1232 646 
Q 1325 544 1325 378 
L 1325 294 
Q 1325 128 1232 25 
Q 1139 -77 934 -77 
z
M 934 2553 
Q 730 2553 637 2655 
Q 544 2758 544 2924 
L 544 3008 
Q 544 3174 637 3276 
Q 730 3379 934 3379 
Q 1139 3379 1232 3276 
Q 1325 3174 1325 3008 
L 1325 2924 
Q 1325 2758 1232 2655 
Q 1139 2553 934 2553 
z
" transform="scale(0.015625)"/>
     </defs>
     <use xlink:href="#IBMPlexSans-1a"/>
     <use xlink:href="#IBMPlexSans-1d" transform="translate(35.09375 0)"/>
     <use xlink:href="#IBMPlexSans-15" transform="translate(111.390625 0)"/>
     <use xlink:href="#IBMPlexSans-3" transform="translate(167.390625 0)"/>
     <use xlink:href="#IBMPlexSans-28" transform="translate(190.984375 0)"/>
     <use xlink:href="#IBMPlexSans-3" transform="translate(261.6875 0)"/>
     <use xlink:href="#IBMPlexSans-15" transform="translate(285.28125 0)"/>
     <use xlink:href="#IBMPlexSans-14" transform="translate(341.28125 0)"/>
     <use xlink:href="#IBMPlexSans-3" transform="translate(398.078125 0)"/>
     <use xlink:href="#IBMPlexSans-15" transform="translate(421.671875 0)"/>
     <use xlink:href="#IBMPlexSans-14" transform="translate(477.671875 0)"/>
     <use xlink:href="#IBMPlexSans-9" transform="translate(534.46875 0)"/>
     <use xlink:href="#IBMPlexSans-3" transform="translate(589.375 0)"/>
     <use xlink:href="#IBMPlexSans-23" transform="translate(612.96875 0)"/>
     <use xlink:href="#IBMPlexSans-5f" transform="translate(675.0625 0)"/>
     <use xlink:href="#IBMPlexSans-3" transform="translate(704.265625 0)"/>
     <use xlink:href="#IBMPlexSans-14" transform="translate(727.859375 0)"/>
     <use xlink:href="#IBMPlexSans-15" transform="translate(784.65625 0)"/>
     <use xlink:href="#IBMPlexSans-3" transform="translate(840.65625 0)"/>
     <use xlink:href="#IBMPlexSans-7" transform="translate(864.25 0)"/>
     <use xlink:href="#IBMPlexSans-f" transform="translate(914.546875 0)"/>
     <use xlink:href="#IBMPlexSans-19" transform="translate(939.546875 0)"/>
     <use xlink:href="#IBMPlexSans-55" transform="translate(987.25 0)"/>
     <use xlink:href="#IBMPlexSans-1a" transform="translate(1027.15625 0)"/>
     <use xlink:href="#IBMPlexSans-18" transform="translate(1062.25 0)"/>
     <use xlink:href="#IBMPlexSans-4" transform="translate(1098.546875 0)"/>
     <use xlink:href="#IBMPlexSans-14" transform="translate(1151.953125 0)"/>
     <use xlink:href="#IBMPlexSans-19" transform="translate(1208.75 0)"/>
     <use xlink:href="#IBMPlexSans-3" transform="translate(1257.453125 0)"/>
     <use xlink:href="#IBMPlexSans-f" transform="translate(1281.046875 0)"/>
     <use xlink:href="#IBMPlexSans-19" transform="translate(1306.046875 0)"/>
     <use xlink:href="#IBMPlexSans-15" transform="translate(1354.75 0)"/>
     <use xlink:href="#IBMPlexSans-13" transform="translate(1410.75 0)"/>
     <use xlink:href="#IBMPlexSans-9" transform="translate(1498.046875 0)"/>
     <use xlink:href="#IBMPlexSans-18" transform="translate(1552.953125 0)"/>
     <use xlink:href="#IBMPlexSans-19" transform="translate(1589.65625 0)"/>
    </g>
   </g>
   <g id="text_19">
    <!-- C -->
    <g style="fill: #1e2a33" transform="translate(462.990344 67.613882) scale(0.11 -0.11)">
     <use xlink:href="#IBMPlexSans-23"/>
    </g>
   </g>
   <g id="text_20">
    <!-- C -->
    <g style="fill: #1e2a33" transform="translate(515.546403 67.613882) scale(0.11 -0.11)">
     <use xlink:href="#IBMPlexSans-23"/>
    </g>
   </g>
   <g id="text_21">
    <!-- H -->
    <g style="fill: #1e2a33" transform="translate(436.238799 31.780206) scale(0.11 -0.11)">
     <use xlink:href="#IBMPlexSans-28"/>
    </g>
   </g>
   <g id="text_22">
    <!-- H -->
    <g style="fill: #1e2a33" transform="translate(436.238799 103.447559) scale(0.11 -0.11)">
     <use xlink:href="#IBMPlexSans-28"/>
    </g>
   </g>
   <g id="text_23">
    <!-- CH$_2$CH$_3$ -->
    <g style="fill: #1e2a33" transform="translate(525.604588 31.780206) scale(0.11 -0.11)">
     <use xlink:href="#IBMPlexSans-23"/>
     <use xlink:href="#IBMPlexSans-28" transform="translate(62.099945 0)"/>
     <use xlink:href="#IBMPlexSans-3f" transform="translate(133.702772 -15.478125) scale(0.7)"/>
     <use xlink:href="#IBMPlexSans-23" transform="translate(178.282416 0)"/>
     <use xlink:href="#IBMPlexSans-28" transform="translate(240.382361 0)"/>
     <use xlink:href="#IBMPlexSans-40" transform="translate(311.985188 -15.478125) scale(0.7)"/>
    </g>
   </g>
   <g id="text_24">
    <!-- H -->
    <g style="fill: #1e2a33" transform="translate(541.350916 103.447559) scale(0.11 -0.11)">
     <use xlink:href="#IBMPlexSans-28"/>
    </g>
   </g>
  </g>
 </g>
 <defs>
  <clipPath id="pcd49b85c39">
   <rect x="7.2" y="7.2" width="191.112941" height="145.723618"/>
  </clipPath>
  <clipPath id="p2782ecc440">
   <rect x="202.163529" y="7.2" width="191.112941" height="145.723618"/>
  </clipPath>
  <clipPath id="p65eea2e514">
   <rect x="397.127059" y="7.2" width="191.112941" height="145.723618"/>
  </clipPath>
 </defs>
</svg>
